<svg width="118" height="47" viewBox="0 0 118 47" fill="none" xmlns="http://www.w3.org/2000/svg">
<path fill-rule="evenodd" clip-rule="evenodd" d="M0 46.3491H11.6312V19.7164C17.0469 28.8968 22.3325 37.8565 27.7262 46.9998C33.0881 37.9417 38.4821 28.8022 43.8467 19.711V46.3491H52.6879H55.4779H87.0085L81.6054 37.4542H55.478V27.549H76.0619L70.6589 18.6541H55.4781V8.9856H65.2863L59.8833 0.0907554C54.5386 0.0907554 49.2674 0 43.847 0L27.7393 28.108L11.6315 0H0.000306887V46.3492L0 46.3491ZM117.5 0.0906537C98.8596 0.0906537 80.5796 0.0906537 61.936 0.0906537L67.3391 8.9855H80.5928H84.1459V37.4542L89.9527 46.9998L95.777 37.4542V8.9855H98.843H112.097L117.5 0.0906537H117.5Z" fill="white"/>
</svg>
