<svg width="187" height="49" viewBox="0 0 187 49" fill="none" xmlns="http://www.w3.org/2000/svg"><path d="M173.271 18.722V1.399h7.425c1.972 0 3.469.442 4.489 1.325 1.037.883 1.556 2.284 1.556 4.203 0 1.851-.519 3.252-1.556 4.203-1.037.951-2.542 1.427-4.516 1.427h-4.285v6.165h-3.113zm3.113-8.89h4.031c1.122 0 1.939-.239 2.449-.714.509-.493.765-1.206.765-2.14 0-.968-.256-1.681-.765-2.14-.51-.475-1.327-.713-2.449-.713h-4.031v5.706zm-13.686 9.144c-1.259 0-2.416-.186-3.47-.56a7.453 7.453 0 01-2.678-1.707c-.749-.747-1.335-1.673-1.761-2.776-.407-1.121-.611-2.412-.611-3.873 0-1.426.204-2.7.611-3.82.426-1.121 1.012-2.055 1.761-2.803a7.455 7.455 0 012.678-1.706c1.054-.391 2.211-.586 3.47-.586 1.275 0 2.441.195 3.495.586 1.055.39 1.947.96 2.678 1.706.749.748 1.328 1.682 1.735 2.802.426 1.121.638 2.395.638 3.821 0 1.461-.212 2.752-.638 3.873-.407 1.103-.986 2.029-1.735 2.776-.731.747-1.623 1.316-2.678 1.707-1.054.373-2.22.56-3.495.56zm0-2.776c1.718 0 3.045-.552 3.98-1.656.935-1.12 1.403-2.615 1.403-4.484 0-1.885-.468-3.379-1.403-4.483-.935-1.104-2.262-1.656-3.98-1.656-1.701 0-3.027.552-3.979 1.656-.937 1.104-1.403 2.598-1.403 4.483 0 1.869.466 3.363 1.403 4.484.952 1.104 2.278 1.656 3.979 1.656zm-23.247 2.521V1.4h12.399v2.802h-9.286v4.102h4.362c1.991 0 3.487.399 4.491 1.197 1.019.798 1.53 2.131 1.53 4 0 1.8-.511 3.124-1.53 3.973-1.004.832-2.492 1.248-4.466 1.248h-7.5zm7.297-7.718h-4.184v4.993h4.184c1.088 0 1.87-.196 2.346-.586.494-.39.74-1.019.74-1.885 0-.883-.246-1.52-.74-1.91-.476-.408-1.258-.612-2.346-.612zm-13.19 7.718V5.577l-8.724 13.144h-3.291V1.4h3.087v13.043L133.227 1.4h3.419v17.322h-3.088zm-27.23 0V1.4h7.424c1.973 0 3.469.442 4.49 1.325 1.037.883 1.556 2.284 1.556 4.203 0 1.851-.519 3.252-1.556 4.203-1.038.951-2.543 1.427-4.516 1.427h-4.286v6.164h-3.112zm3.112-8.89h4.031c1.123 0 1.939-.238 2.449-.713.51-.493.766-1.206.766-2.14 0-.968-.256-1.681-.766-2.14-.51-.475-1.326-.713-2.449-.713h-4.031v5.706zm-20.524 8.89V1.4h14.592v17.322h-3.112V4.303h-8.368v14.418h-3.112z" fill="#fff"/><path d="M75.45 6.265c0 1.172.315 2.02.944 2.547.63.527 1.607.79 2.934.79.68.017 1.3-.009 1.862-.077a20.482 20.482 0 001.735-.28v-7.82h3.112v17.322h-3.112v-6.776c-.544.119-1.182.23-1.913.331-.715.085-1.472.128-2.27.128-2.16 0-3.768-.46-4.822-1.376-1.055-.934-1.582-2.412-1.582-4.433V1.4h3.112v4.866zM62.425 18.976c-1.259 0-2.415-.186-3.47-.56a7.455 7.455 0 01-2.678-1.707c-.748-.747-1.335-1.673-1.76-2.776-.409-1.121-.613-2.412-.613-3.873 0-1.426.204-2.7.613-3.82.425-1.121 1.011-2.055 1.76-2.803a7.457 7.457 0 012.678-1.706c1.055-.391 2.211-.586 3.47-.586 1.275 0 2.44.195 3.495.586 1.054.39 1.947.96 2.678 1.706.749.748 1.327 1.682 1.735 2.802.425 1.121.638 2.395.638 3.821 0 1.461-.213 2.752-.638 3.873-.408 1.103-.986 2.029-1.734 2.776-.732.747-1.625 1.316-2.68 1.707-1.054.373-2.219.56-3.494.56zm0-2.776c1.718 0 3.044-.552 3.98-1.656.935-1.12 1.403-2.615 1.403-4.484 0-1.885-.468-3.379-1.404-4.483-.935-1.104-2.261-1.656-3.98-1.656-1.7 0-3.026.552-3.979 1.656-.935 1.104-1.403 2.598-1.403 4.483 0 1.869.468 3.363 1.403 4.484.953 1.104 2.28 1.656 3.98 1.656zM38.596 4.303V1.4h15.383v2.904h-6.123v14.419h-3.112V4.303h-6.148z" fill="#D70408"/><path d="M117.797 44.099a5.144 5.144 0 01-.646 2.506 5.008 5.008 0 01-.7 1 5.895 5.895 0 01-.855.798l-.528-.672c.231-.2.449-.43.655-.69a4.343 4.343 0 00.901-1.825c.09-.357.136-.73.136-1.117 0-.775-.146-1.477-.437-2.107-.291-.63-.7-1.16-1.227-1.59l.518-.68c.315.23.606.5.873.808.267.303.497.639.691 1.008a5.446 5.446 0 01.619 2.56zm-8.791 2.406V40.33h5.202v6.175h-1.11v-5.14h-2.983v5.14h-1.109zm-2.371 0V41.82l-3.11 4.686h-1.173V40.33h1.1v4.65l3.065-4.65h1.218v6.175h-1.1zm-7.74-5.275c-.443 0-.788.102-1.037.308a1.51 1.51 0 00-.509.817l-1.091-.19c.121-.6.403-1.069.846-1.408.448-.345 1.045-.518 1.791-.518.716 0 1.282.152 1.701.454.424.297.636.736.636 1.317 0 .345-.085.633-.254.863-.164.23-.41.393-.737.49.352.091.625.251.819.482.193.224.291.526.291.908 0 .569-.21 1.02-.628 1.353-.418.327-1.034.49-1.846.49-.782 0-1.4-.163-1.855-.49-.455-.333-.728-.82-.819-1.462l1.091-.173c.061.357.222.636.482.836.261.2.628.3 1.1.3.456 0 .795-.082 1.02-.246.224-.163.336-.393.336-.69 0-.267-.097-.47-.291-.609-.188-.139-.485-.208-.891-.208h-.928v-.945h.937c.382 0 .654-.07.818-.209.164-.139.246-.336.246-.59a.759.759 0 00-.319-.645c-.206-.157-.509-.236-.909-.236zm-5.971 2.796c0-.478.057-.93.173-1.353.115-.424.27-.814.463-1.171.194-.358.425-.685.691-.981a5.99 5.99 0 01.874-.8l.527.673c-.236.193-.46.42-.673.68a4.575 4.575 0 00-.537.836 4.908 4.908 0 00-.363.99 4.854 4.854 0 00-.128 1.126c0 .757.149 1.456.446 2.098a4.759 4.759 0 001.228 1.607l-.519.672a5.36 5.36 0 01-2.019-3.024 5.48 5.48 0 01-.163-1.353zm-7.332 2.479V40.33h2.719c.643 0 1.13.142 1.464.427.334.285.5.693.5 1.226 0 .309-.07.59-.209.845-.14.248-.367.426-.682.535.352.085.616.255.791.509.176.248.264.55.264.908 0 .563-.185.993-.555 1.29-.364.29-.885.435-1.564.435h-2.728zm2.564-5.23h-1.464v1.652h1.465c.375 0 .639-.072.79-.218.158-.15.237-.357.237-.617 0-.273-.076-.475-.227-.609-.146-.139-.413-.208-.8-.208zm.028 2.57h-1.492v1.716h1.492c.4 0 .69-.07.873-.209.188-.145.282-.357.282-.636 0-.296-.091-.514-.273-.654-.176-.145-.47-.217-.882-.217zm-6.634 2.751a3.68 3.68 0 01-1.238-.2 2.66 2.66 0 01-.954-.608 2.8 2.8 0 01-.628-.99c-.145-.4-.218-.86-.218-1.38 0-.509.073-.963.218-1.362.152-.4.36-.733.627-1a2.66 2.66 0 01.955-.608c.376-.14.788-.209 1.237-.209.455 0 .87.07 1.246.21.376.138.694.341.955.608.267.266.473.599.618.999.152.4.228.853.228 1.362 0 .52-.076.98-.228 1.38a2.698 2.698 0 01-.618.99c-.26.266-.58.47-.955.608-.376.133-.791.2-1.246.2zm0-.99c.612 0 1.085-.197 1.418-.59.333-.4.5-.932.5-1.598 0-.672-.167-1.205-.5-1.599-.334-.393-.806-.59-1.419-.59-.606 0-1.079.197-1.419.59-.333.394-.5.927-.5 1.599 0 .666.167 1.198.5 1.598.34.394.813.59 1.42.59zm-8.472.899V40.33h2.647c.703 0 1.236.157 1.6.472.37.315.555.815.555 1.499 0 .66-.185 1.16-.555 1.498-.37.34-.906.509-1.61.509h-1.527v2.197h-1.11zm1.11-3.169h1.436c.4 0 .692-.085.874-.254.181-.176.272-.43.272-.763 0-.345-.09-.6-.272-.763-.182-.17-.473-.254-.874-.254h-1.436v2.034zm-5.153 3.26a3.68 3.68 0 01-1.236-.2 2.657 2.657 0 01-.955-.608 2.797 2.797 0 01-.628-.99c-.145-.4-.218-.86-.218-1.38 0-.509.073-.963.218-1.362.152-.4.36-.733.628-1a2.66 2.66 0 01.955-.608c.375-.14.788-.209 1.236-.209.455 0 .87.07 1.246.21.376.138.695.341.955.608.267.266.473.599.619.999.151.4.227.853.227 1.362 0 .52-.076.98-.227 1.38a2.7 2.7 0 01-.619.99 2.54 2.54 0 01-.955.608 3.71 3.71 0 01-1.246.2zm0-.99c.613 0 1.086-.197 1.42-.59.333-.4.5-.932.5-1.598 0-.672-.167-1.205-.5-1.599-.334-.393-.807-.59-1.42-.59-.606 0-1.079.197-1.418.59-.334.394-.5.927-.5 1.599 0 .666.166 1.198.5 1.598.34.394.812.59 1.418.59zm-8.56.899V40.33h4.42v1h-3.31v1.461h1.554c.71 0 1.243.142 1.6.427.365.284.546.76.546 1.426 0 .641-.181 1.114-.545 1.416-.358.297-.888.445-1.592.445h-2.673zm2.6-2.751h-1.49v1.78h1.49c.389 0 .667-.07.837-.21.176-.138.264-.362.264-.671 0-.315-.088-.542-.264-.681-.17-.146-.448-.218-.837-.218zm-4.971 2.751V41.82l-3.11 4.686H53.82V40.33h1.1v4.65l3.066-4.65h1.218v6.175h-1.1zm-9.983 0V40.33h2.646c.704 0 1.237.157 1.601.472.37.315.555.815.555 1.499 0 .66-.185 1.16-.555 1.498-.37.34-.906.509-1.61.509h-1.527v2.197h-1.11zm1.11-3.169h1.436c.4 0 .692-.085.873-.254.182-.176.273-.43.273-.763 0-.345-.09-.6-.273-.763-.181-.17-.472-.254-.873-.254h-1.436v2.034zm-7.588 3.169V40.33h5.201v6.175h-1.109v-5.14h-2.983v5.14h-1.11zm112.494-9.27l-1.601-2.361-1.564 2.361h-1.327l2.218-3.197-2.128-2.978h1.364l1.519 2.216 1.464-2.216h1.328l-2.12 3.07 2.211 3.105h-1.364zm-6.273 0V31.06h1.11v6.175h-1.11zm-3.028 0h-2.565V31.06h1.111v2.216h1.49c.698 0 1.231.16 1.601.48.37.316.554.815.554 1.5 0 .647-.187 1.14-.563 1.48-.37.333-.913.499-1.628.499zm-.073-.98c.406 0 .701-.083.882-.246.182-.17.274-.424.274-.763 0-.327-.092-.572-.274-.735-.175-.17-.464-.255-.863-.255h-1.4v1.998h1.381zm-8.995.98V31.06h1.108v2.552h3.011V31.06h1.11v6.175h-1.11v-2.597h-3.011v2.597h-1.108zm-5.762-6.175h1.109v2.216h1.546c.697 0 1.231.16 1.601.48.37.316.555.815.555 1.5 0 .647-.188 1.14-.565 1.48-.368.333-.912.499-1.627.499h-2.619V31.06zm2.546 5.194c.406 0 .7-.081.882-.245.182-.17.273-.424.273-.763 0-.327-.091-.572-.273-.735-.175-.17-.467-.255-.873-.255h-1.446v1.998h1.437zm-8.316-1.134l.018-.845c.006-.327.009-.67.009-1.027.007-.357.01-.723.01-1.098.006-.382.009-.745.009-1.09h4.456v6.175h-1.11v-5.14h-2.264c0 .248-.003.515-.009.8 0 .278-.003.56-.009.844 0 .278-.003.55-.009.817l-.019.708c-.024.715-.181 1.223-.472 1.526-.291.297-.743.445-1.355.445h-.473v-1.053h.309c.267 0 .482-.07.645-.21.164-.139.252-.423.264-.853zm-6.111 2.115V31.06h4.411v.98h-3.301v1.608h3.173v.953h-3.173v1.653h3.273v.981h-4.383zm-6.209-5.14V31.06h5.484v1.035h-2.183v5.14h-1.109v-5.14h-2.192zm-1.807-1.035l2.338 6.175h-1.183l-.572-1.562h-2.62l-.554 1.562h-1.164l2.319-6.175h1.436zm-1.673 3.614h1.892l-.955-2.624-.937 2.624zm-7.036-2.579V31.06h5.484v1.035h-2.182v5.14h-1.11v-5.14H101.4zm-1.85 5.14V31.06h1.109v6.175h-1.11zm-3.028 0h-2.565V31.06h1.11v2.216h1.49c.698 0 1.232.16 1.602.48.37.316.554.815.554 1.5 0 .647-.188 1.14-.564 1.48-.37.333-.912.499-1.627.499zm-.073-.98c.406 0 .7-.083.882-.246.182-.17.273-.424.273-.763 0-.327-.091-.572-.273-.735-.176-.17-.464-.255-.864-.255h-1.4v1.998h1.382zm-8.971.98V31.06h5.202v6.175h-1.11v-5.14h-2.982v5.14h-1.11zm-3.696-.899c.49 0 .867-.112 1.127-.336.267-.23.44-.533.519-.908l1.091.182c-.127.665-.418 1.174-.873 1.525s-1.076.527-1.864.527c-.449 0-.855-.07-1.219-.209a2.586 2.586 0 01-.937-.608 2.82 2.82 0 01-.59-1 4.042 4.042 0 01-.21-1.352c0-.521.073-.981.219-1.38.145-.4.348-.733.609-1 .26-.266.573-.466.937-.599.363-.14.763-.209 1.2-.209.782 0 1.4.179 1.855.536.46.357.749.86.864 1.507l-1.091.182a1.732 1.732 0 00-.519-.881c-.254-.236-.624-.354-1.11-.354-.581 0-1.036.197-1.363.59-.322.388-.482.923-.482 1.608 0 .672.163 1.204.49 1.598.328.387.777.58 1.347.58zm-5.065.899v-4.686l-3.11 4.686h-1.173V31.06h1.1v4.65l3.065-4.65h1.218v6.175h-1.1zm-13.305 1.299V36.2h.618c.195-.17.355-.427.483-.772a3.43 3.43 0 00.218-1.144c.018-.436.03-.927.036-1.471.006-.545.01-1.13.01-1.753h4.374v5.14h.855v2.334h-1.074v-1.299h-4.447v1.299h-1.073zm2.383-4.178c-.018.364-.07.7-.155 1.008a2.5 2.5 0 01-.382.836h2.783v-4.105H67.85c-.007.34-.016.718-.028 1.135-.006.418-.015.793-.027 1.126zm-5.495 2.97c-.45 0-.862-.067-1.238-.2a2.658 2.658 0 01-.954-.608 2.799 2.799 0 01-.628-.99c-.145-.4-.218-.86-.218-1.38 0-.509.072-.963.218-1.363.152-.4.36-.732.628-.999.266-.266.585-.469.954-.608.376-.14.788-.209 1.237-.209.455 0 .87.07 1.246.209a2.573 2.573 0 011.573 1.608c.152.399.228.853.228 1.361 0 .521-.076.981-.228 1.38a2.697 2.697 0 01-.618.99c-.26.267-.579.47-.955.609-.376.133-.791.2-1.246.2zm0-.99c.611 0 1.085-.197 1.418-.59.333-.4.5-.933.5-1.599 0-.672-.167-1.204-.5-1.598-.334-.393-.807-.59-1.419-.59-.606 0-1.079.197-1.419.59-.333.394-.5.926-.5 1.599 0 .665.167 1.198.5 1.598.34.393.813.59 1.42.59zm-8.605.899V31.06h2.72c.642 0 1.13.142 1.464.427.333.284.5.693.5 1.226 0 .308-.07.59-.21.844-.139.248-.366.427-.681.536.351.085.615.254.79.509.177.248.264.55.264.908 0 .563-.184.992-.554 1.29-.364.29-.885.435-1.565.435h-2.728zm2.565-5.23h-1.464v1.652h1.464c.376 0 .64-.072.791-.218.158-.151.236-.357.236-.617 0-.273-.075-.476-.227-.609-.145-.139-.412-.209-.8-.209zm.027 2.57h-1.491v1.716h1.491c.4 0 .691-.07.873-.21.188-.145.282-.356.282-.635 0-.296-.09-.514-.273-.654-.176-.145-.47-.218-.882-.218zm-5.674-3.515l2.338 6.175h-1.183l-.573-1.562h-2.619l-.554 1.562h-1.165l2.32-6.175h1.436zm-1.673 3.614h1.892l-.955-2.624-.937 2.624zm-4.906-2.715c-.443 0-.788.103-1.037.309a1.51 1.51 0 00-.51.817l-1.09-.19c.12-.6.403-1.07.845-1.408.449-.345 1.046-.518 1.792-.518.715 0 1.282.151 1.7.454.425.297.637.736.637 1.317 0 .345-.085.633-.255.862-.163.23-.409.394-.736.49.351.092.624.252.818.482.194.224.291.527.291.908 0 .57-.21 1.02-.627 1.354-.419.326-1.034.49-1.846.49-.783 0-1.401-.164-1.856-.49-.454-.334-.727-.82-.818-1.463l1.091-.172c.06.357.221.636.482.835.26.2.628.3 1.1.3.455 0 .795-.082 1.02-.245a.806.806 0 00.336-.69c0-.267-.097-.47-.291-.609-.188-.139-.486-.209-.892-.209h-.927v-.944h.936c.382 0 .655-.07.819-.209.163-.14.245-.336.245-.59a.76.76 0 00-.318-.645c-.206-.157-.51-.236-.91-.236zM.9 33.63l.062-10.795 18.74-18.988-2.727-2.702h11.27l-.093 10.59-2.664-2.66L6.786 27.753 18.93 39.878l9.358-9.345V41.8l-4.712 4.705-9.818-.038L.9 33.63z" fill="#fff"/><path d="M10.396 27.924l8.384-8.371 8.383 8.37-8.383 8.372-8.384-8.371z" fill="#fff"/><path d="M.964 22.835L.902 33.63l5.886-5.878L25.491 9.076l2.663 2.659.092-10.59H16.977l2.726 2.702L.963 22.835z" fill="#D70408"/></svg>