<svg xmlns="http://www.w3.org/2000/svg" width="25" height="25" viewBox="0 0 25 25" fill="none"><path d="M12.323 11.071c-.226.834-.678 1.786-1.13 2.858-.225.476-.451.833-.564 1.19h.113c1.468-.595 2.822-.952 3.726-1.071l-.339-.357c-.677-.596-1.355-1.548-1.806-2.62zm7.338 4.643c-.226.238-.564.357-1.016.357-.903 0-2.258-.238-3.387-.833-1.92.238-3.387.476-4.516.953-.113 0-.113 0-.226.119C9.161 18.81 8.032 20 7.13 20c-.226 0-.339 0-.452-.119l-.564-.595v-.12C6 19.049 6 18.81 6 18.572c.113-.595.79-1.666 2.145-2.5.226-.238.565-.357 1.016-.595.339-.595.678-1.31 1.13-2.143.564-1.19.902-2.38 1.241-3.452-.451-1.548-.79-2.381-.338-3.929.112-.476.451-.952.903-.952h.226c.225 0 .451.119.677.238.79.833.452 2.738 0 4.286v.119c.452 1.31 1.129 2.38 1.806 3.095.34.238.565.476 1.017.714h1.467c1.355 0 2.258.239 2.597.834.113.238.113.476.113.714 0 .119-.113.476-.339.714zm-.451-.952c-.113-.12-.565-.476-2.146-.476-.112 0-.112 0-.225.119.79.357 1.58.595 2.145.595h.226s.113 0 .113-.119c0 0-.113 0-.113-.12zM8.823 16.548a1.57 1.57 0 0 0-.452.357c-.79.714-1.355 1.547-1.355 2.024.452-.238 1.13-.953 1.807-2.381zm3.387-8.215c.113-.476.225-.714.225-1.071v-.238c.113-.595.113-1.072-.112-1.31h-.113s0 .12-.113.12c-.113.595-.113 1.428.113 2.5z" fill="#F73434"/><rect x=".5" y=".5" width="24" height="24" rx="1.5" stroke="#BDBDBD"/></svg>