<svg width="181" height="53" viewBox="0 0 181 53" fill="none" xmlns="http://www.w3.org/2000/svg"><g opacity=".7" fill="#000"><path fill-rule="evenodd" clip-rule="evenodd" d="M25.34 6.114h-.17c-.17-.089-.255-.089-.34-.177l.51-.352.51.352c-.085.088-.255.088-.34.176h-.17zm-1.02-1.321c0 .088-.085.704.425 1.056l.17-.616-.595-.44zm2.04 0l-.595.44.17.616c.425-.352.425-.88.425-1.056zm.765 14.618c0-.793-.425-1.409-1.02-1.673l-.085-.088c-.255-.088-.255-.44-.255-.44l.51-1.322c-.085-.352-.425-.44-.425-.44v-.352s.34-.44.255-1.057c0-.088-.425-6.34-.51-7.045a.487.487 0 00.255-.44v-.176c1.275-.705.68-1.938.425-2.114l-.085.088c.085 0 .17.176.255.353h-.765L25.34 4l-.255.793h-.765c.085-.177.17-.353.255-.353l-.085-.088c-.255.176-.935 1.321.425 2.114v.176c0 .176.085.352.255.44-.085.617-.51 6.957-.51 7.045-.085.617.17 1.057.17 1.057v.264s-.34.088-.425.44l.51 1.321s0 .353-.255.44c-.68.265-1.19.97-1.19 1.762v1.497h-.765v2.378h5.185v-2.378h-.765v-1.497zm-.68 25.626h.85V24.254h-.85v20.783zM40.47 32.62v15.411c.51.176 1.02.44 1.53.705V32.62h-1.53zm-2.975 0H35.2v13.65c1.53.44 3.06.88 4.505 1.497V31.211h-2.21v1.41zm-6.63 12.77c1.19.176 2.295.352 3.4.616v-8.278h-3.4v7.661zm-2.805-.265c.68.088 1.275.088 1.955.176V24.254H28.06v20.871zM12.59 31.211h-2.295v16.732c1.445-.616 2.975-1.145 4.505-1.497V32.62h-2.21v-1.409zm3.145 14.971c1.19-.264 2.38-.528 3.655-.705v-7.749h-3.655v8.454zM8 49c.51-.264 1.02-.528 1.53-.705V32.62H8V49zm16.915-4.05h.85V24.253h-.85V44.95zm-4.59-8.19v8.54c.765-.088 1.445-.176 2.21-.264V24.254h-2.21V36.76zm2.975 8.277h.85V24.254h-.85v20.783z"/><path d="M60.91 23.5v-9.36h6.11v1.651h-4.342V23.5H60.91zm7.148 0v-9.36h6.11v1.651h-4.343v2.002h3.563v1.651h-3.563v2.405h4.343V23.5h-6.11zm11.29.195c-.935 0-1.743-.204-2.424-.611a4.098 4.098 0 01-1.566-1.71c-.364-.732-.546-1.583-.546-2.554 0-.97.182-1.822.546-2.555a4.098 4.098 0 011.566-1.709c.68-.407 1.489-.611 2.425-.611.936 0 1.742.204 2.418.611.68.407 1.202.977 1.566 1.71.369.732.553 1.583.553 2.554 0 .97-.184 1.822-.553 2.555a4.043 4.043 0 01-1.566 1.709c-.676.407-1.482.611-2.418.611zm0-1.664c.594.009 1.088-.12 1.483-.383.394-.265.689-.64.884-1.125.2-.485.299-1.053.299-1.703 0-.65-.1-1.213-.3-1.69a2.386 2.386 0 00-.883-1.111c-.395-.265-.889-.401-1.482-.41-.594-.009-1.088.12-1.482.383-.395.265-.691.64-.89 1.125-.196.485-.293 1.053-.293 1.703 0 .65.097 1.213.292 1.69.2.477.496.847.89 1.111.395.265.89.401 1.483.41zm5.835 1.469v-9.36h6.11v1.651h-4.342V23.5h-1.768zm7.148 0v-9.36h3.952c.09 0 .212.004.364.013.156.004.295.017.416.039.559.087 1.016.27 1.371.553.36.281.624.637.793 1.066.17.424.254.899.254 1.423s-.087 1.001-.26 1.43a2.494 2.494 0 01-.793 1.06c-.355.281-.81.465-1.365.552a6.964 6.964 0 01-.78.052h-2.184V23.5H92.33zm1.768-4.823h2.106c.09 0 .19-.004.299-.013.108-.009.208-.026.299-.052.238-.065.422-.173.552-.325.13-.156.22-.327.267-.514.052-.19.078-.37.078-.539 0-.169-.026-.347-.078-.533a1.243 1.243 0 00-.267-.514 1.057 1.057 0 00-.552-.331 1.536 1.536 0 00-.3-.052 3.754 3.754 0 00-.298-.013h-2.106v2.886zm5.263 4.823l2.86-9.36h2.639l2.86 9.36h-1.82l-2.548-8.255h.338l-2.509 8.255h-1.82zm1.716-1.95v-1.651h4.94v1.651h-4.94zM111.7 23.5v-1.365a3.163 3.163 0 01-1.372-.052 2.823 2.823 0 01-1.144-.637 3.164 3.164 0 01-.786-1.183c-.191-.485-.286-1.053-.286-1.703 0-.65.095-1.22.286-1.71.19-.49.453-.89.786-1.202a2.782 2.782 0 011.144-.663 3.033 3.033 0 011.372-.065v-.78h1.755v.78c.481-.082.938-.06 1.371.065.434.126.817.347 1.151.663.333.312.596.713.786 1.203.195.49.293 1.059.293 1.709 0 .65-.098 1.218-.293 1.703-.19.481-.453.875-.786 1.183a2.817 2.817 0 01-1.151.637c-.433.117-.89.134-1.371.052V23.5H111.7zm0-2.977v-4.017c-.369-.06-.672-.037-.91.072a1.23 1.23 0 00-.546.48 2.16 2.16 0 00-.267.715 4.27 4.27 0 000 1.56c.052.256.141.486.267.69.13.199.312.346.546.442.238.095.541.114.91.058zm1.755 0c.368.056.669.037.903-.058.234-.1.416-.247.546-.442.135-.2.228-.423.28-.67a3.65 3.65 0 000-1.508 2.196 2.196 0 00-.28-.735 1.275 1.275 0 00-.546-.513c-.234-.121-.535-.152-.903-.091v4.017zm12.558 2.977h-1.794v-6.24l-4.069 6.24h-1.794v-9.36h1.794v6.24l4.069-6.24h1.794v9.36zm7.131 0v-4.082l.247.403c-.238.212-.579.377-1.021.494a5.47 5.47 0 01-1.371.169c-.78 0-1.402-.154-1.866-.462a2.61 2.61 0 01-1.001-1.287c-.203-.55-.305-1.185-.305-1.904V14.14h1.794v2.158c0 .282.011.57.032.865.022.294.085.567.189.819.108.25.286.454.533.61.247.152.594.228 1.04.228.481 0 .888-.082 1.222-.247.334-.169.568-.347.702-.533l-.195.793V14.14h1.781v9.36h-1.781zm3.595 0v-9.36h6.11v1.651h-4.342v2.002h3.562v1.651h-3.562v2.405h4.342V23.5h-6.11zm11.292.195c-.936 0-1.745-.204-2.425-.611a4.095 4.095 0 01-1.566-1.71c-.364-.732-.546-1.583-.546-2.554 0-.97.182-1.822.546-2.555a4.095 4.095 0 011.566-1.709c.68-.407 1.489-.611 2.425-.611 1.074 0 1.976.266 2.704.8.732.533 1.248 1.254 1.547 2.164l-1.781.494c-.174-.568-.466-1.008-.878-1.32-.412-.316-.942-.474-1.592-.474-.594 0-1.09.132-1.489.397a2.42 2.42 0 00-.89 1.117c-.2.482-.299 1.047-.299 1.697 0 .65.099 1.215.299 1.697.199.48.496.853.89 1.117.399.265.895.397 1.489.397.65 0 1.18-.158 1.592-.474.412-.317.704-.757.878-1.32l1.781.494c-.299.91-.815 1.631-1.547 2.164-.728.534-1.63.8-2.704.8zm5.682-.195v-9.36h1.768v4.316l3.562-4.316h2.158l-3.913 4.615 4.16 4.745h-2.236l-3.731-4.264V23.5h-1.768zm16.302 0h-1.794v-6.24l-4.069 6.24h-1.794v-9.36h1.794v6.24l4.069-6.24h1.794v9.36zm1.814 0v-9.36h1.794v6.24l4.069-6.24h1.794v9.36h-1.794v-6.24l-4.069 6.24h-1.794zm3.796-10.14a1.99 1.99 0 01-1.04-.28 2.136 2.136 0 01-.748-.747 1.993 1.993 0 01-.279-1.04h1.365c0 .195.067.362.201.5a.695.695 0 00.501.202c.195 0 .36-.067.494-.201a.681.681 0 00.208-.501h1.365c0 .381-.093.728-.28 1.04a2.125 2.125 0 01-.747.748 1.99 1.99 0 01-1.04.279zM63.978 39.5v-1.365a3.16 3.16 0 01-1.372-.052 2.821 2.821 0 01-1.144-.637 3.165 3.165 0 01-.786-1.183c-.19-.485-.286-1.053-.286-1.703 0-.65.095-1.22.286-1.71.19-.49.453-.89.786-1.202a2.78 2.78 0 011.144-.663 3.03 3.03 0 011.372-.065v-.78h1.755v.78a3.03 3.03 0 011.371.065c.434.126.817.347 1.151.663.334.312.596.713.787 1.202.195.49.292 1.06.292 1.71 0 .65-.097 1.218-.293 1.703-.19.481-.452.875-.786 1.183a2.818 2.818 0 01-1.15.637 3.16 3.16 0 01-1.372.052V39.5h-1.755zm0-2.977v-4.017c-.368-.06-.672-.037-.91.072a1.23 1.23 0 00-.546.48 2.165 2.165 0 00-.267.715 4.421 4.421 0 00-.071.787c0 .26.024.518.072.773.051.256.14.486.266.69.13.199.312.346.546.441.238.096.542.115.91.059zm1.755 0c.368.056.67.037.903-.059.235-.1.416-.246.547-.441.134-.2.227-.423.279-.67a3.65 3.65 0 000-1.508 2.21 2.21 0 00-.28-.734 1.275 1.275 0 00-.546-.514c-.233-.121-.535-.152-.903-.091v4.017zm3.998 2.977l2.86-9.36h2.639l2.86 9.36h-1.82l-2.548-8.255h.338L71.55 39.5h-1.82zm1.716-1.95v-1.651h4.94v1.651h-4.94zm7.808 1.95v-9.36h1.768v4.316l3.562-4.316h2.158l-3.913 4.615 4.16 4.745h-2.236l-3.731-4.264V39.5h-1.768zm9.763 0l1.3-2.626-3.198-6.734h2.002l2.12 4.875 2.196-4.875h1.885l-4.42 9.36h-1.885zm5.646 0v-1.469c.2.013.369-.004.507-.052a.735.735 0 00.351-.26c.1-.13.187-.308.26-.533a7.34 7.34 0 00.208-.858 23.3 23.3 0 00.26-1.71 52.467 52.467 0 00.292-3.341c.027-.476.046-.855.06-1.137h6.382v9.36h-1.768v-7.709h-2.99c-.017.243-.04.559-.071.949a42.085 42.085 0 01-.286 2.762c-.07.508-.154 1-.254 1.476a8.422 8.422 0 01-.331 1.235c-.13.355-.303.648-.52.877a1.558 1.558 0 01-.826.449c-.338.074-.762.06-1.274-.039zm10.133 0v-9.36h1.768v3.172h2.184c.087 0 .208.004.364.013.156.004.295.017.416.039.555.087 1.01.27 1.365.553.36.281.624.636.793 1.066.174.424.26.899.26 1.423s-.084 1.001-.253 1.43a2.491 2.491 0 01-.793 1.06c-.355.281-.813.465-1.372.552a6.646 6.646 0 01-.78.052h-3.952zm1.768-1.651h2.106c.091 0 .191-.004.299-.013a1.55 1.55 0 00.299-.052c.239-.065.423-.173.553-.325.13-.156.219-.327.266-.514.052-.19.078-.37.078-.539 0-.169-.026-.347-.078-.533a1.234 1.234 0 00-.266-.514 1.056 1.056 0 00-.553-.331 1.527 1.527 0 00-.299-.052 3.748 3.748 0 00-.299-.013h-2.106v2.886zm8.732 1.651v-7.709h-2.951V30.14h7.67v1.651h-2.951V39.5h-1.768zm5.763 0v-9.36h6.11v1.651h-4.342v2.002h3.562v1.651h-3.562v2.405h4.342V39.5h-6.11zm9.839 0v-7.709h-2.951V30.14h7.67v1.651h-2.951V39.5h-1.768zm10.575 0v-9.36h1.586l3.094 6.214 3.094-6.214h1.586v9.36h-1.651v-5.59l-2.717 5.59h-.624l-2.717-5.59v5.59h-1.651zm11.185 0v-9.36h6.11v1.651h-4.342V39.5h-1.768zm8.265 0l1.3-2.626-3.198-6.734h2.002l2.119 4.875 2.197-4.875h1.885l-4.42 9.36h-1.885z"/></g></svg>