<svg width="287" height="53" viewBox="0 0 287 53" fill="none" xmlns="http://www.w3.org/2000/svg"><g clip-path="url(#clip0_471_116)" opacity=".7"><path d="M18.38 12.851l-5.183 12.664-5.185-12.664H0v19.887h5.75l-.094-14.07 5.655 14.07h3.771l5.655-14.07-.094 14.07h5.75V12.851h-8.012zm99.258 0l-5.279 12.664-5.184-12.664h-8.013v19.887h5.75l-.094-14.07 5.75 14.07h3.676l5.656-14.07v14.07h5.655V12.851h-7.917zm74.278 0l-5.185 12.664-5.184-12.664h-8.012v19.887h5.75l-.094-14.07 5.75 14.07h3.676l5.655-14.07v14.07h5.656V12.851h-8.012zM48.074 32.738H29.127V12.851h18.947v3.846l-13.197.094v3.752h11.311v3.753H34.877v4.69h13.197v3.752zm10.839-19.887c-5.844.282-8.012 7.036-8.012 16.135h-2.074v3.752h22.811V12.851H58.913zm7.07 16.135h-9.426V26.64c0-5.629 1.32-9.756 4.995-9.944h4.43v12.289zm29.22 3.846H90.49V18.667l-8.483 14.165h-6.693v-19.98h4.808v15.196l9.426-15.197h5.655v19.98zm38.554 0h-4.713v-19.98h4.713v7.785h4.713l5.75-7.786h5.938l-6.975 9.568 6.787 10.413h-5.939l-5.184-7.974-5.09.094v7.88z" fill="#000"/><path d="M160.715 12.851c-5.938 0-10.84 4.503-10.84 9.944 0 5.44 4.902 10.037 10.84 10.037 5.939 0 10.84-4.503 10.84-9.944 0-5.44-4.807-10.037-10.84-10.037zm0 15.76c-3.299 0-6.032-2.627-6.032-5.816 0-3.19 2.733-5.816 6.032-5.816s6.033 2.626 6.033 5.816c0 3.283-2.734 5.816-6.033 5.816zM0 43.15h1.037l2.45 3.659.472.75c.188-.28.283-.562.471-.75l2.357-3.658h1.037v7.598H6.787v-6.19c-.189.281-.283.563-.471.844l-2.357 3.47H3.77l-2.262-3.376c-.094-.094-.188-.282-.283-.376-.094-.093-.094-.28-.188-.28l-.094-.095v5.91H.094v-7.411L0 43.151zm9.238 0h4.713v.939c-.377 0-.755-.094-1.037-.094h-2.451v2.626l3.016-.093-.094.938-3.016-.094v2.626h3.581l-.095.845H9.332v-7.505l-.094-.187zm4.807 6.848h.566c.094-.187.282-.281.377-.469l.282-.562c.095-.188.189-.376.189-.657 0-.282.094-.47.188-.657.095-.187.095-.469.095-.75 0-.282.094-.563.094-.75 0-.188.094-.47.094-.845s0-.657.094-.844c0-.188 0-.563.095-.938h4.43v6.848h1.037v2.908l-.943.093-.188-2.25h-5.373v2.157l-.943.093-.094-3.377zm1.697 0h3.676v-6.003h-2.451c-.094 1.5-.188 2.627-.377 3.565-.189.938-.471 1.782-.848 2.438zm6.598-6.848l1.131-.093v6.378h.094c.189-.375.377-.75.566-1.032l3.488-5.253 1.036-.093v7.598h-1.13V44.37a4.376 4.376 0 01-.472.938l-3.582 5.347h-1.037V43.15h-.094zm7.73 0l1.13-.093v6.847h3.865v-6.941l1.131-.094v6.848h1.037v2.908l-.942.094-.189-2.252h-5.938v-7.505l-.095.189zm7.917 0l1.131-.093v6.378h.095c.188-.375.377-.75.565-1.032l3.488-5.253 1.037-.093v7.598h-1.131V44.37a4.376 4.376 0 01-.472.938l-3.582 5.347h-1.036V43.15h-.095zm7.73 0l1.131-.093v3.283h3.865v-3.377l1.13-.094v7.598h-1.13v-3.47h-3.865v3.47h-1.131v-7.505.189zm7.258 4.034c0-.844.094-1.595.377-2.157a3.734 3.734 0 011.131-1.501c.566-.376 1.131-.563 1.886-.563h.66c.188 0 .47.094.66.094.188 0 .376.093.565.093l-.189.939s-.283 0-.754-.094c-.471-.094-.848-.094-1.131-.094-.471 0-.848.094-1.131.375-.377.282-.566.657-.754 1.032-.189.47-.283.938-.283 1.5 0 .376 0 .657.094.939l.283.844c.094.282.283.47.471.75.189.188.472.376.754.47.283.093.66.187.943.187.283 0 .566 0 .848-.093.283 0 .472-.094.566-.094l.189-.094.188.75s-.094.094-.188.094c-.095 0-.283.094-.566.094-.283.094-.66.094-1.037.094-1.131 0-1.98-.376-2.545-1.032-.754-.563-1.037-1.407-1.037-2.533zm6.221-4.034h1.13v3.378h.755c.754-.938 1.225-1.595 1.508-2.064a8.44 8.44 0 00.754-1.22h1.131c-.282.47-.565.938-.942 1.407-.377.47-.943 1.22-1.697 2.158l2.357 3.19c.094.093.188.187.282.375.095.187.189.187.283.281l.094.094-1.32.094-2.639-3.565h-.565v3.377h-1.131V43.15zm6.221 0l1.131-.093v6.378h.095c.188-.375.377-.75.565-1.032l3.488-5.253h.942v7.599h-1.13v-6.284a4.367 4.367 0 01-.472.938l-3.582 5.347h-1.037v-7.599zm7.73 0h4.713l-.094.939c-.378 0-.755-.094-1.037-.094h-2.451v2.626l3.016-.093-.094.938-3.016-.094v2.626h3.581l-.094.845h-4.619v-7.505l.095-.187zm7.729 0h1.131v6.38h.094c.189-.375.377-.75.566-1.032l3.488-5.253 1.037-.093v7.597H86.06v-6.284a4.379 4.379 0 01-.472.938l-3.582 5.347H80.97v-7.505l-.094-.093zm7.07 7.411v-.844c.094 0 .188 0 .282.094.095 0 .283.093.566.093s.566.094.848.094c.566 0 1.037-.094 1.32-.375.283-.281.377-.563.377-1.032 0-.469-.094-.75-.377-1.032-.283-.281-.66-.375-1.131-.375h-.754v-.75h.848c.472 0 .754-.094.943-.376a1.43 1.43 0 00.377-.938c0-.375-.094-.75-.283-.938-.189-.281-.471-.375-.943-.375-.188 0-.565 0-1.036.094-.377.094-.66.188-.755.188l-.094-.845c.094 0 .283 0 .566-.094.282 0 .471-.093.66-.093h.565c.754 0 1.414.187 1.791.563.377.375.566.844.566 1.5 0 .376-.095.75-.283 1.032-.189.282-.471.563-.943.657a2.25 2.25 0 011.037.563c.283.281.377.656.377 1.125 0 .657-.283 1.22-.754 1.689-.471.469-1.131.657-2.074.657-.282 0-.565 0-.942-.094-.283 0-.472-.094-.66-.094l-.094-.094zm4.619-.563h.565c.095-.187.283-.281.377-.469l.283-.563c.094-.187.189-.375.189-.656.094-.282.094-.47.188-.657.094-.188.094-.469.094-.75 0-.282.095-.563.095-.75 0-.188.094-.47.094-.845s0-.657.094-.844c0-.188 0-.563.095-.938h4.43v6.847h1.037v2.908l-.943.094-.188-2.251h-5.468v2.157l-.942.094v-3.377zm1.697 0h3.676v-6.003h-2.451c-.094 1.5-.189 2.626-.377 3.564-.189.938-.471 1.783-.849 2.44zm6.598-6.848h4.713l-.094.845c-.377 0-.755-.094-1.037-.094h-2.451v2.627l3.016-.094-.094.938-3.016-.094v2.627h3.582l-.095.844h-4.618v-7.505l.094-.093zm4.807 6.755a.722.722 0 00.471-.188c.094-.094.283-.188.377-.375l.283-.563c.094-.188.188-.47.283-.75.094-.282.094-.563.188-.845 0-.281.094-.656.094-1.125 0-.47.095-.938.095-1.314 0-.375.094-.938.188-1.594h4.242v7.504h-1.131v-6.754h-2.263c-.094.657-.094 1.22-.188 1.595 0 .375-.094.844-.094 1.407-.095.563-.095.938-.189 1.22-.094.28-.188.656-.283.937a1.805 1.805 0 01-.471.845l-.566.562c-.188.188-.471.282-.754.376l-.282-.938zm7.823-6.755l1.132-.093v6.378h.094c.188-.375.377-.75.565-1.032l3.488-5.253 1.037-.093v7.598h-1.131V44.37a4.384 4.384 0 01-.471.938l-3.582 5.347h-1.037V43.15h-.095zm6.976 7.599l1.885-2.908c-.471-.188-.754-.47-1.037-.844-.283-.376-.377-.845-.377-1.314 0-.75.283-1.313.754-1.782.472-.469 1.131-.657 1.98-.657h2.168v7.692l-1.131.094v-2.72h-1.509l-1.696 2.72h-1.037v-.281zm1.602-5.16c0 .47.189.939.472 1.22.282.281.754.469 1.319.469h.943v-3.283h-.943c-.565 0-1.037.187-1.319.469a1.55 1.55 0 00-.472 1.126zM.094 37.334h218.969v.938H.094" fill="#000"/><path d="M218.968 37.803h.66c.377 0 .66-.28.66-.656v-1.501c0-.188.094-.375.188-.469l.377-.469a.712.712 0 00.189-.47l.189-5.627c0-.563.188-1.126.471-1.595l1.319-2.158V22.42c0-.28 0-.469.095-.75l.094-.188v-.75c0-.188.094-.375.189-.563l.094-.094c.094-.187.188-.375.188-.563v-1.5L224.341 0m4.148 36.021v-.563a.716.716 0 00-.188-.469l-.378-.469a.716.716 0 01-.188-.469l-.189-5.628c0-.563-.188-1.126-.471-1.595l-1.32-2.157v-2.44c0-.28 0-.468-.094-.75l-.094-.187v-.75c0-.188-.094-.376-.189-.564l-.094-.093c-.094-.188-.188-.376-.188-.563v-1.501L224.342.187m19.418 37.804c0-.094.377.282.848.657.471.375 1.414.469 1.508-.188.283-2.532 3.017-5.253 6.599-5.347.094 0 0-.656 0-1.125 0-.094.754-.75 1.225-1.501.283-.47.188-2.533.188-3.752 0-.188.755-.376.755-.845 0-1.22.565-2.157 1.791-3.002v-1.876c0-.093.848-2.439.848-2.439" stroke="#000" stroke-miterlimit="10"/><path d="M270.341 38.366c-.377 1.126-1.131-.093-1.225-.469-.66-2.345-3.205-4.69-6.504-4.784-.095 0 0-.656 0-1.125 0-.094-.754-.75-1.226-1.501-.283-.47-.188-2.533-.188-3.752 0-.188-.754-.376-.754-.845 0-1.22-.66-2.251-1.791-3.001v-1.877c0-.093-.943-2.907-.943-2.907l-.848 2.907M228.489 35.74s-.094 2.814-.094 3.377c.283 2.908 1.037 12.476 1.037 12.476 0 .094.189.094.189 0l2.168-14.821c0-.188.282-.282.377-.094l.848.75c.283.282.754.094.848-.281l2.922-9.944c.095-.187.283-.187.377 0l3.111 12.101c.094.282.377.47.66.47l1.131-1.69c.189-.28.566-.468.943-.468l1.696 1.126c.189.093.377.187.566.187" stroke="#000" stroke-miterlimit="10"/><path d="M286.931 38.835H274.96c-.377 0-.66-.187-.943-.469l-1.979-2.532c-.094-.094-.189-.094-.189 0l-1.602 2.626" stroke="#000" stroke-miterlimit="10"/></g><defs><clipPath id="clip0_471_116"><path fill="#fff" d="M0 0h286.931v53H0z"/></clipPath></defs></svg>