<svg width="287" height="53" viewBox="0 0 287 53" fill="none" xmlns="http://www.w3.org/2000/svg">
<g opacity="0.7">
<g clip-path="url(#clip0_471_116)">
<path d="M18.3809 12.8513L13.1966 25.515L8.0122 12.8513H0V32.738H5.74993L5.65567 18.6672L11.3113 32.738H13.1966H15.0818L20.7375 18.6672L20.6432 32.738H26.3931V12.8513H18.3809Z" fill="black"/>
<path d="M117.638 12.8513L112.359 25.515L107.175 12.8513H99.1624V32.738H104.912L104.818 18.6672L110.568 32.738H112.359H114.244L119.9 18.6672V32.738H125.555V12.8513H117.638Z" fill="black"/>
<path d="M191.916 12.8513L186.731 25.515L181.547 12.8513H173.535V32.738H179.285L179.191 18.6672L184.941 32.738H186.731H188.617L194.272 18.6672V32.738H199.928V12.8513H191.916Z" fill="black"/>
<path d="M48.0735 32.738H29.127V12.8513H48.0735V16.6973L34.8769 16.7911V20.5434H46.1882V24.2956H34.8769V28.9858H48.0735V32.738Z" fill="black"/>
<path d="M58.9132 12.8513C53.069 13.1327 50.901 19.8867 50.901 28.9858H48.8273V32.738H71.6385V12.8513H58.9132ZM65.9828 28.9858H56.5567V26.6407C56.5567 21.0124 57.8763 16.8849 61.5525 16.6973H65.9828V28.9858Z" fill="black"/>
<path d="M95.2034 32.8319H90.4904V18.6672L82.0069 32.8319H75.3143V12.8513H80.1217V28.0478L89.5478 12.8513H95.2034V32.8319Z" fill="black"/>
<path d="M133.757 32.8319H129.044V12.8513H133.757V20.6372H138.47L144.22 12.8513H148.838H150.158L143.183 22.4195L149.97 32.8319H148.838H144.031L138.847 24.8584L133.757 24.9522V32.8319Z" fill="black"/>
<path d="M160.715 12.8513C154.777 12.8513 149.875 17.354 149.875 22.7947C149.875 28.2354 154.777 32.8319 160.715 32.8319C166.654 32.8319 171.555 28.3292 171.555 22.8885C171.555 17.4478 166.748 12.8513 160.715 12.8513ZM160.715 28.6106C157.416 28.6106 154.683 25.9841 154.683 22.7947C154.683 19.6053 157.416 16.9788 160.715 16.9788C164.014 16.9788 166.748 19.6053 166.748 22.7947C166.748 26.0779 164.014 28.6106 160.715 28.6106Z" fill="black"/>
<path d="M0 43.1506H1.03687L3.48766 46.809L3.95897 47.5595C4.14749 47.2781 4.24175 46.9967 4.43028 46.809L6.78681 43.1506H7.82368V49.8108C7.82368 49.9984 7.82368 50.0922 7.82368 50.2798C7.82368 50.4674 7.82368 50.5613 7.82368 50.6551V50.7489H6.78681V45.4958C6.78681 45.3082 6.78681 45.2144 6.78681 45.0267C6.78681 44.8391 6.78681 44.7453 6.78681 44.6515V44.5577C6.59828 44.8391 6.50402 45.1205 6.3155 45.402L3.95897 48.8728H3.77045L1.50818 45.4958C1.41392 45.402 1.31966 45.2144 1.2254 45.1205C1.13113 45.0267 1.13113 44.8391 1.03687 44.8391L0.942612 44.7453C0.942612 45.0267 0.942612 45.402 0.942612 45.6834V49.8108C0.942612 49.9046 0.942612 50.0922 0.942612 50.186C0.942612 50.3736 0.942612 50.4675 0.942612 50.5613V50.6551H0.0942612V44.2763C0.0942612 44.0887 0.0942612 43.9011 0.0942612 43.7135C0.0942612 43.5259 0.0942612 43.3382 0.0942612 43.2444L0 43.1506Z" fill="black"/>
<path d="M9.23755 43.1506H13.9506V44.0887C13.5736 44.0887 13.1965 43.9949 12.9137 43.9949H10.4629V46.6214L13.4793 46.5276L13.385 47.4657L10.3687 47.3719V49.9984H13.1023C13.2908 49.9984 13.385 49.9984 13.5736 49.9984C13.7621 49.9984 13.8563 49.9984 13.8563 49.9984H13.9506L13.8563 50.8427H9.33181V44.3701C9.33181 44.1825 9.33181 43.9949 9.33181 43.8073C9.33181 43.6197 9.33181 43.5259 9.33181 43.3382L9.23755 43.1506Z" fill="black"/>
<path d="M14.0449 49.9984H14.6105C14.7048 49.8108 14.8933 49.717 14.9875 49.5294C15.0818 49.3418 15.1761 49.1542 15.2703 48.9666C15.3646 48.779 15.4588 48.5914 15.4588 48.3099C15.4588 48.0285 15.5531 47.8409 15.6474 47.6533C15.7416 47.4657 15.7416 47.1843 15.7416 46.9029C15.7416 46.6215 15.8359 46.34 15.8359 46.1524C15.8359 45.9648 15.9301 45.6834 15.9301 45.3082C15.9301 44.933 15.9301 44.6515 16.0244 44.4639C16.0244 44.2763 16.0244 43.9011 16.1187 43.5259H20.5489V50.3737H21.5858V52.3436C21.5858 52.4374 21.5858 52.625 21.5858 52.8126C21.5858 53.0002 21.5858 53.094 21.5858 53.1878V53.2816L20.6432 53.3754L20.4547 51.1241H15.0818V52.3436C15.0818 52.4374 15.0818 52.625 15.0818 52.8126C15.0818 53.0002 15.0818 53.094 15.0818 53.1878V53.2816L14.1392 53.3754L14.0449 49.9984ZM15.7416 49.9984H19.4178V43.9949H16.967C16.8728 45.4958 16.7785 46.6215 16.59 47.5595C16.4015 48.4976 16.1187 49.3418 15.7416 49.9984Z" fill="black"/>
<path d="M22.3398 43.1504L23.471 43.0566V48.2159C23.471 48.4035 23.471 48.5912 23.471 48.7788C23.471 48.9664 23.471 49.154 23.471 49.2478V49.4354H23.5652C23.7538 49.0602 23.9423 48.685 24.1308 48.4035L27.6185 43.1504L28.6553 43.0566V49.7168C28.6553 49.9044 28.6553 49.9982 28.6553 50.1858C28.6553 50.3735 28.6553 50.4673 28.6553 50.5611V50.6549H27.5242V45.308C27.5242 45.1204 27.5242 45.0266 27.5242 44.8389C27.5242 44.6513 27.5242 44.5575 27.5242 44.4637V44.3699C27.4299 44.6513 27.2414 45.0266 27.0529 45.308L23.471 50.6549H22.4341V44.1823C22.4341 43.9947 22.4341 43.8071 22.4341 43.6195C22.4341 43.4319 22.4341 43.2442 22.4341 43.1504H22.3398Z" fill="black"/>
<path d="M30.0693 43.1506L31.2005 43.0568V49.9045H35.0652V44.1824C35.0652 43.9948 35.0652 43.8072 35.0652 43.6196C35.0652 43.432 35.0652 43.2444 35.0652 43.1506V42.9629L36.1963 42.8691V49.7169H37.2332V51.6868C37.2332 51.7806 37.2332 51.9683 37.2332 52.1559C37.2332 52.3435 37.2332 52.4373 37.2332 52.5311V52.6249L36.2906 52.7187L36.1021 50.4674H30.1636V43.9948C30.1636 43.8072 30.1636 43.6196 30.1636 43.432C30.1636 43.2444 30.1636 43.0567 30.1636 42.9629L30.0693 43.1506Z" fill="black"/>
<path d="M37.9873 43.1504L39.1184 43.0566V48.2159C39.1184 48.4035 39.1184 48.5912 39.1184 48.7788C39.1184 48.9664 39.1184 49.154 39.1184 49.2478V49.4354H39.2127C39.4012 49.0602 39.5897 48.685 39.7783 48.4035L43.2659 43.1504L44.3028 43.0566V49.7168C44.3028 49.9044 44.3028 49.9982 44.3028 50.1858C44.3028 50.3735 44.3028 50.4673 44.3028 50.5611V50.6549H43.1717V45.308C43.1717 45.1204 43.1717 45.0266 43.1717 44.8389C43.1717 44.6513 43.1717 44.5575 43.1717 44.4637V44.3699C43.0774 44.6513 42.8889 45.0266 42.7004 45.308L39.1184 50.6549H38.0816V44.1823C38.0816 43.9947 38.0816 43.8071 38.0816 43.6195C38.0816 43.4319 38.0816 43.2442 38.0816 43.1504H37.9873Z" fill="black"/>
<path d="M45.7169 43.1506L46.8481 43.0568V46.3399H50.7128V44.1824C50.7128 43.9948 50.7128 43.8072 50.7128 43.6196C50.7128 43.432 50.7128 43.2444 50.7128 43.1506V42.9629L51.8439 42.8691V49.5293C51.8439 49.7169 51.8439 49.8107 51.8439 49.9983C51.8439 50.186 51.8439 50.2798 51.8439 50.3736V50.4674H50.7128V46.9966H46.8481V49.5293C46.8481 49.7169 46.8481 49.8107 46.8481 49.9983C46.8481 50.186 46.8481 50.2798 46.8481 50.3736V50.4674H45.7169V43.9948C45.7169 43.8072 45.7169 43.6196 45.7169 43.432C45.7169 43.2444 45.7169 43.0567 45.7169 42.9629V43.1506Z" fill="black"/>
<path d="M52.9751 47.1841C52.9751 46.3399 53.0694 45.5894 53.3521 45.0266C53.6349 44.37 54.012 43.9009 54.4833 43.5257C55.0488 43.1505 55.6144 42.9629 56.3685 42.9629C56.557 42.9629 56.7455 42.9629 57.0283 42.9629C57.2169 42.9629 57.4996 43.0567 57.6882 43.0567C57.8767 43.0567 58.0652 43.1505 58.2537 43.1505L58.0652 44.0886C58.0652 44.0886 57.7824 44.0886 57.3111 43.9948C56.8398 43.9009 56.4628 43.9009 56.18 43.9009C55.7087 43.9009 55.3316 43.9948 55.0488 44.2762C54.6718 44.5576 54.4833 44.9328 54.2948 45.308C54.1062 45.7771 54.012 46.2461 54.012 46.8089C54.012 47.1841 54.012 47.4655 54.1062 47.747C54.2005 48.0284 54.2948 48.3098 54.389 48.5912C54.4833 48.8726 54.6718 49.0602 54.8603 49.3417C55.0488 49.5293 55.3316 49.7169 55.6144 49.8107C55.8972 49.9045 56.2742 49.9983 56.557 49.9983C56.8398 49.9983 57.1226 49.9983 57.4054 49.9045C57.6882 49.9045 57.8767 49.8107 57.9709 49.8107L58.1595 49.7169L58.348 50.4673C58.348 50.4673 58.2537 50.5611 58.1595 50.5611C58.0652 50.5611 57.8767 50.6549 57.5939 50.6549C57.3111 50.7487 56.9341 50.7487 56.557 50.7487C55.4259 50.7487 54.5775 50.3735 54.012 49.7169C53.2579 49.154 52.9751 48.3098 52.9751 47.1841Z" fill="black"/>
<path d="M59.1957 43.1506H60.3268V46.5276H61.0809C61.835 45.5896 62.3063 44.9329 62.5891 44.4639C62.8719 44.0887 63.1546 43.6197 63.3432 43.2444H64.4743C64.1915 43.7135 63.9087 44.1825 63.5317 44.6515C63.1547 45.1205 62.5891 45.871 61.835 46.809L64.1915 49.9984C64.2858 50.0922 64.38 50.186 64.4743 50.3736C64.5686 50.5613 64.6628 50.5613 64.7571 50.6551L64.8514 50.7489L63.5317 50.8427L60.8924 47.2781H60.3268V49.717C60.3268 49.9046 60.3268 49.9984 60.3268 50.186C60.3268 50.3736 60.3268 50.4675 60.3268 50.5613V50.6551H59.1957V44.1825C59.1957 43.9949 59.1957 43.8073 59.1957 43.6197C59.1957 43.4321 59.1957 43.2444 59.1957 43.1506Z" fill="black"/>
<path d="M65.4172 43.1504L66.5484 43.0566V48.2159C66.5484 48.4035 66.5484 48.5912 66.5484 48.7788C66.5484 48.9664 66.5484 49.154 66.5484 49.2478V49.4354H66.6426C66.8312 49.0602 67.0197 48.685 67.2082 48.4035L70.6959 43.1504H71.6385V49.8106C71.6385 49.9982 71.6385 50.092 71.6385 50.2796C71.6385 50.4673 71.6385 50.5611 71.6385 50.6549V50.7487H70.5073V45.4018C70.5073 45.2142 70.5073 45.1204 70.5073 44.9327C70.5073 44.7451 70.5073 44.6513 70.5073 44.5575V44.4637C70.4131 44.7451 70.2246 45.1204 70.036 45.4018L66.4541 50.7487H65.4172V44.2761C65.4172 44.0885 65.4172 43.9009 65.4172 43.7133C65.4172 43.5257 65.4172 43.3381 65.4172 43.2442V43.1504Z" fill="black"/>
<path d="M73.1467 43.1506H77.8598L77.7655 44.0887C77.3885 44.0887 77.0115 43.9949 76.7287 43.9949H74.2779V46.6214L77.2942 46.5276L77.2 47.4657L74.1836 47.3719V49.9984H76.9172C77.1057 49.9984 77.2 49.9984 77.3885 49.9984C77.577 49.9984 77.6713 49.9984 77.6713 49.9984H77.7655L77.6713 50.8427H73.0525V44.3701C73.0525 44.1825 73.0525 43.9949 73.0525 43.8073C73.0525 43.6197 73.0525 43.5259 73.0525 43.3382L73.1467 43.1506Z" fill="black"/>
<path d="M80.8761 43.1506H82.0072V48.3099C82.0072 48.4975 82.0072 48.6851 82.0072 48.8728C82.0072 49.0604 82.0072 49.248 82.0072 49.3418V49.5294H82.1015C82.29 49.1542 82.4785 48.779 82.6671 48.4975L86.1547 43.2444L87.1916 43.1506V49.8108C87.1916 49.9984 87.1916 50.0922 87.1916 50.2798C87.1916 50.4674 87.1916 50.5613 87.1916 50.6551V50.7489H86.0605V45.402C86.0605 45.2144 86.0605 45.1205 86.0605 44.9329C86.0605 44.7453 86.0605 44.6515 86.0605 44.5577V44.4639C85.9662 44.7453 85.7777 45.1205 85.5892 45.402L82.0072 50.7489H80.9704V44.2763C80.9704 44.0887 80.9704 43.9011 80.9704 43.7135C80.9704 43.5259 80.9704 43.3382 80.9704 43.2444L80.8761 43.1506Z" fill="black"/>
<path d="M87.9457 50.5611V49.7168C88.0399 49.7168 88.1342 49.7168 88.2285 49.8106C88.3227 49.8106 88.5112 49.9044 88.794 49.9044C89.0768 49.9044 89.3596 49.9982 89.6424 49.9982C90.2079 49.9982 90.6792 49.9044 90.962 49.623C91.2448 49.3416 91.3391 49.0602 91.3391 48.5912C91.3391 48.1221 91.2448 47.8407 90.962 47.5593C90.6792 47.2779 90.3022 47.1841 89.8309 47.1841H89.0768V46.4336H89.9252C90.3965 46.4336 90.6793 46.3398 90.8678 46.0584C91.0563 45.8708 91.2448 45.4956 91.2448 45.1204C91.2448 44.7451 91.1506 44.3699 90.962 44.1823C90.7735 43.9009 90.4907 43.8071 90.0194 43.8071C89.8309 43.8071 89.4539 43.8071 88.9826 43.9009C88.6055 43.9947 88.3227 44.0885 88.2285 44.0885L88.1342 43.2442C88.2285 43.2442 88.417 43.2442 88.6998 43.1504C88.9825 43.1504 89.1711 43.0566 89.3596 43.0566C89.5481 43.0566 89.7366 43.0566 89.9252 43.0566C90.6793 43.0566 91.3391 43.2442 91.7161 43.6195C92.0932 43.9947 92.2817 44.4637 92.2817 45.1204C92.2817 45.4956 92.1874 45.8708 91.9989 46.1522C91.8104 46.4336 91.5276 46.715 91.0563 46.8089C91.4333 46.9027 91.8104 47.0903 92.0932 47.3717C92.3759 47.6531 92.4702 48.0283 92.4702 48.4973C92.4702 49.154 92.1874 49.7168 91.7161 50.1858C91.2448 50.6549 90.585 50.8425 89.6424 50.8425C89.3596 50.8425 89.0768 50.8425 88.6998 50.7487C88.417 50.7487 88.2285 50.6549 88.0399 50.6549L87.9457 50.5611Z" fill="black"/>
<path d="M92.5648 49.9982H93.1304C93.2247 49.8106 93.4132 49.7168 93.5074 49.5292C93.6017 49.3416 93.696 49.154 93.7902 48.9663C93.8845 48.7787 93.9787 48.5911 93.9787 48.3097C94.073 48.0283 94.073 47.8407 94.1673 47.6531C94.2615 47.4655 94.2615 47.184 94.2615 46.9026C94.2615 46.6212 94.3558 46.3398 94.3558 46.1522C94.3558 45.9646 94.45 45.6832 94.45 45.3079C94.45 44.9327 94.45 44.6513 94.5443 44.4637C94.5443 44.2761 94.5443 43.9009 94.6386 43.5256H99.0688V50.3734H100.106V52.3433C100.106 52.4371 100.106 52.6247 100.106 52.8124C100.106 53 100.106 53.0938 100.106 53.1876V53.2814L99.1631 53.3752L98.9746 51.1239H93.5074V52.3433C93.5074 52.4371 93.5074 52.6247 93.5074 52.8124C93.5074 53 93.5074 53.0938 93.5074 53.1876V53.2814L92.5648 53.3752V49.9982ZM94.2615 49.9982H97.9377V43.9947H95.4869C95.3927 45.4955 95.2984 46.6212 95.1099 47.5593C94.9214 48.4973 94.6386 49.3416 94.2615 49.9982Z" fill="black"/>
<path d="M100.86 43.1506H105.573L105.479 43.9949C105.102 43.9949 104.724 43.9011 104.442 43.9011H101.991V46.5276L105.007 46.4338L104.913 47.3719L101.897 47.2781V49.9046H104.63C104.819 49.9046 104.913 49.9046 105.102 49.9046C105.29 49.9046 105.384 49.9046 105.384 49.9046H105.479L105.384 50.7489H100.766V44.2763C100.766 44.0887 100.766 43.9011 100.766 43.7135C100.766 43.5259 100.766 43.432 100.766 43.2444L100.86 43.1506Z" fill="black"/>
<path d="M105.667 49.9046C105.855 49.9046 106.044 49.8108 106.138 49.717C106.232 49.6232 106.421 49.5294 106.515 49.3418C106.609 49.1542 106.704 48.9666 106.798 48.779C106.892 48.5913 106.986 48.3099 107.081 48.0285C107.175 47.7471 107.175 47.4657 107.269 47.1843C107.269 46.9028 107.363 46.5276 107.363 46.0586C107.363 45.5896 107.458 45.1205 107.458 44.7453C107.458 44.3701 107.552 43.8073 107.646 43.1506H111.888V49.717C111.888 49.9046 111.888 49.9984 111.888 50.186C111.888 50.3736 111.888 50.4675 111.888 50.5613V50.6551H110.757V43.9011H108.494C108.4 44.5577 108.4 45.1205 108.306 45.4958C108.306 45.871 108.212 46.34 108.212 46.9028C108.117 47.4657 108.117 47.8409 108.023 48.1223C107.929 48.4037 107.835 48.779 107.74 49.0604C107.646 49.4356 107.458 49.717 107.269 49.9046C107.081 50.0922 106.892 50.2798 106.703 50.4674C106.515 50.6551 106.232 50.7489 105.949 50.8427L105.667 49.9046Z" fill="black"/>
<path d="M113.49 43.1504L114.622 43.0566V48.2159C114.622 48.4035 114.622 48.5912 114.622 48.7788C114.622 48.9664 114.622 49.154 114.622 49.2478V49.4354H114.716C114.904 49.0602 115.093 48.685 115.281 48.4035L118.769 43.1504L119.806 43.0566V49.7168C119.806 49.9044 119.806 49.9982 119.806 50.1858C119.806 50.3735 119.806 50.4673 119.806 50.5611V50.6549H118.675V45.308C118.675 45.1204 118.675 45.0266 118.675 44.8389C118.675 44.6513 118.675 44.5575 118.675 44.4637V44.3699C118.581 44.6513 118.392 45.0266 118.204 45.308L114.622 50.6549H113.585V44.1823C113.585 43.9947 113.585 43.8071 113.585 43.6195C113.585 43.4319 113.585 43.2442 113.585 43.1504H113.49Z" fill="black"/>
<path d="M120.466 50.7488L122.351 47.8408C121.88 47.6532 121.597 47.3718 121.314 46.9966C121.031 46.6214 120.937 46.1524 120.937 45.6833C120.937 44.9329 121.22 44.37 121.691 43.901C122.163 43.432 122.822 43.2444 123.671 43.2444H125.839V49.717C125.839 49.9046 125.839 50.0922 125.839 50.2798C125.839 50.4674 125.839 50.655 125.839 50.7488V50.9364L124.708 51.0302V48.3099H123.576C123.388 48.3099 123.294 48.3099 123.199 48.3099L121.503 51.0302H120.466V50.7488ZM122.068 45.5895C122.068 46.0585 122.257 46.5276 122.54 46.809C122.822 47.0904 123.294 47.278 123.859 47.278H124.802V43.9948H123.859C123.294 43.9948 122.822 44.1824 122.54 44.4639C122.257 44.7453 122.068 45.1205 122.068 45.5895Z" fill="black"/>
<path d="M0.0942383 37.3345H219.063V38.2725H0.0942383" fill="black"/>
<path d="M218.968 37.8035H219.628C220.005 37.8035 220.288 37.5221 220.288 37.1469V35.646C220.288 35.4584 220.382 35.2708 220.476 35.177L220.853 34.708C220.948 34.6142 221.042 34.4265 221.042 34.2389L221.231 28.6106C221.231 28.0478 221.419 27.485 221.702 27.0159L223.021 24.8584V22.4195C223.021 22.1381 223.021 21.9504 223.116 21.669L223.21 21.4814V20.731C223.21 20.5434 223.304 20.3558 223.399 20.1681L223.493 20.0743C223.587 19.8867 223.681 19.6991 223.681 19.5115V18.0106L224.341 0" stroke="black" stroke-miterlimit="10"/>
<path d="M228.489 36.0211V35.4583C228.489 35.2707 228.395 35.0831 228.301 34.9893L227.923 34.5202C227.829 34.4264 227.735 34.2388 227.735 34.0512L227.546 28.4229C227.546 27.8601 227.358 27.2972 227.075 26.8282L225.755 24.6707V22.2317C225.755 21.9503 225.755 21.7627 225.661 21.4813L225.567 21.2937V20.5433C225.567 20.3556 225.473 20.168 225.378 19.9804L225.284 19.8866C225.19 19.699 225.096 19.5114 225.096 19.3238V17.8229L224.342 0.1875" stroke="black" stroke-miterlimit="10"/>
<path d="M243.76 37.9912C243.76 37.8974 244.137 38.2726 244.608 38.6478C245.079 39.023 246.022 39.1168 246.116 38.4602C246.399 35.9275 249.133 33.2071 252.715 33.1133C252.809 33.1133 252.715 32.4567 252.715 31.9876C252.715 31.8938 253.469 31.2372 253.94 30.4868C254.223 30.0177 254.128 27.954 254.128 26.7345C254.128 26.5469 254.883 26.3593 254.883 25.8903C254.883 24.6708 255.448 23.7328 256.674 22.8885V21.0124C256.674 20.9186 257.522 18.5735 257.522 18.5735" stroke="black" stroke-miterlimit="10"/>
<path d="M270.341 38.3664C269.964 39.4921 269.21 38.2726 269.116 37.8974C268.456 35.5523 265.911 33.2071 262.612 33.1133C262.517 33.1133 262.612 32.4567 262.612 31.9877C262.612 31.8939 261.858 31.2372 261.386 30.4868C261.103 30.0178 261.198 27.954 261.198 26.7346C261.198 26.547 260.444 26.3594 260.444 25.8903C260.444 24.6709 259.784 23.639 258.653 22.8886V21.0125C258.653 20.9187 257.71 18.1045 257.71 18.1045L256.862 21.0125" stroke="black" stroke-miterlimit="10"/>
<path d="M228.489 35.7397C228.489 35.7397 228.395 38.5539 228.395 39.1167C228.678 42.0247 229.432 51.5928 229.432 51.5928C229.432 51.6866 229.621 51.6866 229.621 51.5928L231.789 36.7716C231.789 36.584 232.071 36.4902 232.166 36.6778L233.014 37.4282C233.297 37.7096 233.768 37.522 233.862 37.1468L236.784 27.2035C236.879 27.0158 237.067 27.0158 237.161 27.2035L240.272 39.3043C240.366 39.5858 240.649 39.7734 240.932 39.7734L242.063 38.0849C242.252 37.8035 242.629 37.6158 243.006 37.6158L244.702 38.7415C244.891 38.8353 245.079 38.9291 245.268 38.9291" stroke="black" stroke-miterlimit="10"/>
<path d="M286.931 38.8353H274.96C274.583 38.8353 274.3 38.6477 274.017 38.3663L272.038 35.8335C271.944 35.7397 271.849 35.7397 271.849 35.8335L270.247 38.4601" stroke="black" stroke-miterlimit="10"/>
</g>
</g>
<defs>
<clipPath id="clip0_471_116">
<rect width="286.931" height="53" fill="white"/>
</clipPath>
</defs>
</svg>
