<svg width="118" height="53" viewBox="0 0 118 53" fill="none" xmlns="http://www.w3.org/2000/svg">
<g opacity="0.78">
<path d="M116.517 26.1814H49.8599C49.7001 26.1814 49.5468 26.1187 49.4338 26.007C49.3208 25.8954 49.2573 25.7439 49.2573 25.586C49.2573 25.4282 49.3208 25.2767 49.4338 25.1651C49.5468 25.0535 49.7001 24.9907 49.8599 24.9907H116.517C116.677 24.9907 116.83 25.0535 116.943 25.1651C117.056 25.2767 117.12 25.4282 117.12 25.586C117.12 25.7439 117.056 25.8954 116.943 26.007C116.83 26.1187 116.677 26.1814 116.517 26.1814Z" fill="black"/>
<path d="M53.5749 19.1566C53.4725 19.1566 53.364 19.1566 53.2736 19.1566L53.0476 19.1387C52.8442 19.1369 52.6448 19.0825 52.4692 18.981C52.3215 18.8738 52.1679 18.4035 52.1679 16.4985V10.1285C52.1679 8.2264 52.3276 7.74716 52.4692 7.64595C52.6459 7.54707 52.8446 7.49288 53.0476 7.48819L53.2736 7.4733C53.376 7.4733 53.4845 7.4733 53.5749 7.4733C53.6653 7.4733 53.837 7.40187 53.831 7.25304C53.8306 7.22008 53.8236 7.18753 53.8103 7.1573C53.797 7.12708 53.7777 7.09979 53.7535 7.07704C53.7294 7.0543 53.7009 7.03656 53.6697 7.02487C53.6385 7.01317 53.6052 7.00776 53.5719 7.00895H49.5376C49.384 7.02383 49.2363 7.10719 49.2363 7.24709C49.233 7.29873 49.2505 7.34958 49.2849 7.3886C49.3193 7.42761 49.3679 7.45163 49.4201 7.45545C49.4593 7.45545 49.5135 7.45545 49.5165 7.45545L49.857 7.48819C49.9744 7.5003 50.0861 7.54464 50.1794 7.61619C50.2336 7.66381 50.336 7.81265 50.4053 8.29784C50.4652 8.90124 50.4933 9.5073 50.4897 10.1136V16.5074C50.4933 17.1137 50.4652 17.7197 50.4053 18.3231C50.336 18.8113 50.2336 18.9601 50.1794 19.0078C50.0851 19.0771 49.9738 19.1202 49.857 19.1328L49.5135 19.1685C49.4825 19.1654 49.4512 19.1654 49.4201 19.1685C49.394 19.1696 49.3683 19.1759 49.3447 19.1871C49.3212 19.1983 49.3001 19.2142 49.2829 19.2337C49.2657 19.2532 49.2527 19.2759 49.2447 19.3005C49.2367 19.3252 49.2339 19.3511 49.2363 19.3769C49.2363 19.5168 49.3749 19.5971 49.5376 19.612H53.5659C53.5991 19.6136 53.6322 19.6086 53.6634 19.5972C53.6946 19.5859 53.7231 19.5684 53.7473 19.5459C53.7715 19.5234 53.7909 19.4963 53.8042 19.4662C53.8175 19.4362 53.8246 19.4037 53.825 19.3709C53.837 19.231 53.6683 19.1566 53.5749 19.1566Z" fill="black"/>
<path d="M72.2819 19.1685H71.9806C71.6023 19.1821 71.2292 19.078 70.914 18.8709C70.6128 18.6268 70.4772 18.3232 70.3717 17.4391L69.2389 7.52989C69.2027 7.38999 69.2569 7.07447 68.9014 7.01791C68.8148 7.02181 68.7318 7.05273 68.6641 7.10621C68.5964 7.15969 68.5476 7.23299 68.5248 7.31558L63.5114 17.2218L58.3201 7.30963C58.1996 7.06852 58.058 7.01196 57.9435 7.01196C57.895 7.01492 57.8478 7.02879 57.8055 7.05252C57.7632 7.07625 57.7269 7.10921 57.6995 7.14889C57.6422 7.22032 57.6543 7.30962 57.6242 7.44655L56.3798 17.9779C56.2925 18.6476 56.184 18.8709 56.0785 18.975C55.8998 19.1285 55.6672 19.2066 55.4308 19.1923H55.3434H55.2771C55.2078 19.1923 54.9758 19.1923 54.9758 19.4096C54.9758 19.6269 55.241 19.6507 55.3856 19.6507H58.3985C58.5883 19.6507 58.9137 19.6835 58.9137 19.4275C58.9137 19.3144 58.7841 19.1983 58.5943 19.1983H58.516C58.1936 19.1983 57.7778 19.1149 57.6965 18.9006C57.6492 18.7732 57.6307 18.637 57.6422 18.5018C57.6422 18.3619 57.6422 18.1743 57.6724 17.9303L58.3352 10.825C59.7091 13.6915 61.7097 17.326 62.5533 18.8887C62.7913 19.2638 62.9389 19.6626 63.1558 19.6626C63.3728 19.6626 63.4812 19.4335 63.7373 18.9542L67.9554 10.6702L68.7206 18.3321C68.7387 18.5464 68.7719 18.7518 68.7719 18.9453C68.7719 19.0346 68.7719 19.0703 68.7478 19.0703C68.7237 19.0703 68.5459 19.1745 68.5459 19.3828C68.543 19.4157 68.5467 19.4488 68.5569 19.4802C68.567 19.5117 68.5833 19.5408 68.6048 19.566C68.6264 19.5912 68.6528 19.6119 68.6825 19.6269C68.7122 19.642 68.7446 19.6511 68.7779 19.6537H72.074C72.2367 19.6537 72.5681 19.6537 72.5681 19.3977C72.5621 19.1566 72.297 19.1745 72.2819 19.1685Z" fill="black"/>
<path d="M116.861 19.1685H116.56C116.182 19.1833 115.81 19.079 115.496 18.8709C115.195 18.6268 115.059 18.3232 114.951 17.4391L113.818 7.52989C113.782 7.38999 113.836 7.07447 113.483 7.01791C113.396 7.02119 113.313 7.05182 113.244 7.10536C113.176 7.15889 113.127 7.23252 113.104 7.31558L108.09 17.2218L102.899 7.30963C102.782 7.06852 102.637 7.01196 102.522 7.01196C102.474 7.01535 102.427 7.0294 102.385 7.0531C102.343 7.07679 102.306 7.10952 102.278 7.14889C102.221 7.22032 102.236 7.30962 102.206 7.44655L100.956 17.9779C100.871 18.6476 100.763 18.8709 100.676 18.975C100.496 19.1293 100.262 19.2074 100.025 19.1923H99.9374H99.8711C99.8018 19.1923 99.5698 19.1923 99.5698 19.4096C99.5698 19.6269 99.8319 19.6507 99.9766 19.6507H102.989C103.182 19.6507 103.505 19.6835 103.505 19.4275C103.505 19.3144 103.375 19.1983 103.185 19.1983H103.107C102.785 19.1983 102.372 19.1149 102.287 18.9006C102.24 18.7732 102.222 18.637 102.233 18.5018C102.233 18.3619 102.233 18.1743 102.263 17.9303L102.926 10.825C104.297 13.6915 106.301 17.326 107.144 18.8887C107.382 19.2638 107.53 19.6626 107.747 19.6626C107.964 19.6626 108.072 19.4335 108.331 18.9542L112.549 10.6702L113.315 18.3321C113.333 18.5464 113.366 18.7518 113.366 18.9453C113.366 19.0346 113.366 19.0703 113.342 19.0703C113.318 19.0703 113.143 19.1745 113.143 19.3828C113.14 19.4155 113.143 19.4486 113.153 19.48C113.162 19.5114 113.178 19.5406 113.2 19.5658C113.221 19.591 113.247 19.6118 113.277 19.6269C113.306 19.642 113.339 19.6511 113.372 19.6537H116.665C116.825 19.6537 117.156 19.6537 117.156 19.3977C117.141 19.1566 116.879 19.1745 116.861 19.1685Z" fill="black"/>
<path d="M98.6208 19.1863C98.4442 19.1589 98.2661 19.142 98.0875 19.1357C97.3403 19.0315 97.0239 18.5076 96.7799 18.0463C96.5358 17.5849 96.0718 16.6264 94.0984 11.7804C93.767 10.9797 93.4567 10.1612 93.1072 9.35449C92.839 8.75916 92.607 8.23229 92.3599 7.63994C92.2666 7.45241 92.14 7.00295 91.8779 7.00295C91.6158 7.00295 91.4922 7.46135 91.3777 7.73818L87.4399 17.701C86.9127 18.9631 86.536 19.094 86.069 19.1387C85.6365 19.134 85.2095 19.0421 84.8142 18.8686C84.4189 18.6951 84.0636 18.4436 83.7702 18.1296C83.1676 17.5343 82.565 16.8139 81.854 15.9448L80.6488 14.4951L80.0463 13.6974C80.4451 13.5106 80.812 13.2635 81.1339 12.9651C82.1372 12.0335 82.2969 10.6672 82.2969 9.94683C82.2959 9.57 82.2149 9.19757 82.0592 8.85355C81.9035 8.50953 81.6766 8.20157 81.393 7.94951C80.7905 7.39288 79.7932 6.99997 77.8529 7.00295H73.8277C73.6921 7.00295 73.5414 7.0595 73.5264 7.21428C73.5927 7.51195 73.915 7.44349 74.0777 7.47921H74.3067C74.4286 7.48114 74.548 7.51388 74.6535 7.57433C74.759 7.63477 74.847 7.7209 74.9093 7.8245C74.9545 7.91975 75.0268 8.2323 75.0268 9.43188V16.3466C75.0268 18.1117 74.9063 18.582 74.8611 18.7279C74.7225 19.1238 74.5598 19.097 74.2223 19.1417L74.0355 19.1595C73.9729 19.1546 73.9107 19.1743 73.8628 19.2145C73.8148 19.2546 73.7848 19.3119 73.7794 19.3738C73.7794 19.478 73.8879 19.603 74.0627 19.612H77.9071C78.127 19.612 78.4223 19.6328 78.4223 19.3738C78.4223 19.1149 78.1752 19.1565 78.1572 19.1565H78.0999C78.0999 19.1565 77.9433 19.1565 77.8378 19.1565L77.6239 19.1387C77.0786 19.094 77.0213 19.0107 76.9008 18.7428C76.7562 18.3022 76.7321 16.7931 76.7321 16.3615V8.00309C76.7321 7.70543 76.9309 7.75008 77.4251 7.70543H77.6149C78.3953 7.70562 79.1503 7.97993 79.745 8.47935C80.5253 9.13719 80.6488 9.96767 80.6488 10.7684C80.6604 11.2068 80.5566 11.6406 80.3475 12.0275C80.0915 12.485 79.7224 12.871 79.2746 13.1494C78.8268 13.4279 78.3148 13.5898 77.7866 13.62H77.5998C77.5034 13.62 77.2202 13.62 77.1931 13.879C77.1659 14.1379 77.4522 14.126 77.5335 14.126H77.7354C77.9342 14.126 78.124 14.126 78.3138 14.1052C78.814 14.1052 78.9164 14.3136 78.9797 14.4029L81.0706 17.1205C82.3602 18.8053 82.794 19.103 83.1255 19.2726C83.5955 19.5048 83.9088 19.5881 85.0597 19.606H85.5599H85.6322H85.9335H89.1542C89.1994 19.606 89.4555 19.5792 89.4555 19.359C89.4555 19.1387 89.1844 19.1476 89.1542 19.1476H88.9795C88.7746 19.1476 88.4462 19.1178 88.4462 18.7339C88.4684 18.3986 88.5478 18.0695 88.6812 17.7605L89.7267 14.9208C89.7659 14.8672 89.7267 14.8851 89.7779 14.8732H93.532L95.1469 18.8261C95.183 18.9154 95.2011 18.966 95.2011 18.966C95.2112 18.9905 95.2111 19.018 95.201 19.0424C95.1909 19.0669 95.1714 19.0865 95.1469 19.097C95.1469 19.097 95.1469 19.097 95.0776 19.1179C95.0311 19.1315 94.9901 19.1593 94.9603 19.1972C94.9306 19.2351 94.9137 19.2813 94.9119 19.3292C94.93 19.6268 95.2343 19.5881 95.3427 19.5881H98.2863C98.3978 19.5881 98.7804 19.612 98.7804 19.347C98.7733 19.3075 98.7542 19.271 98.7258 19.2423C98.6973 19.2136 98.6607 19.1941 98.6208 19.1863ZM90.0521 14.0784L91.6007 9.7861L93.2337 14.0784H90.0521Z" fill="black"/>
<path d="M62.3785 46.9851H61.9386C60.4955 46.9851 59.8537 46.8005 58.7239 45.854C57.6392 44.961 54.4124 41.4664 53.0596 39.9305V43.044C53.0596 43.5411 53.0867 45.3301 53.2404 45.8153C53.3037 46.0028 53.3489 46.0534 53.4362 46.1129C53.6199 46.1836 53.8147 46.2219 54.0117 46.226L54.2286 46.2469C54.2587 46.2503 54.289 46.2503 54.319 46.2469C54.4451 46.2367 54.5706 46.2727 54.6715 46.3481C54.7072 46.3806 54.7356 46.4203 54.7548 46.4644C54.774 46.5085 54.7836 46.5561 54.783 46.6041C54.7813 46.681 54.7554 46.7556 54.709 46.8174C54.6626 46.8793 54.5979 46.9254 54.5239 46.9494C54.4327 46.9793 54.3367 46.9924 54.2407 46.9881C53.2796 46.9881 53.5568 46.9315 52.1919 46.9315H51.9238C51.6677 46.9315 50.6282 46.9702 50.1401 46.9881H49.9985C49.8952 46.9853 49.7967 46.9442 49.7225 46.8731C49.6483 46.802 49.6038 46.706 49.5978 46.6041C49.5999 46.5404 49.6203 46.4786 49.6566 46.4259C49.6928 46.3732 49.7435 46.3318 49.8027 46.3064C49.8616 46.2815 49.9255 46.2703 49.9895 46.2737H50.1522C50.3252 46.2826 50.4963 46.2333 50.6373 46.1338C50.7192 46.0524 50.7749 45.9488 50.7969 45.8361C50.8421 45.6843 50.9777 45.1396 50.9777 43.0649V35.5935C50.9777 33.8373 50.9114 33.5099 50.8753 33.4295C50.8579 33.3658 50.8271 33.3064 50.7851 33.2552C50.7431 33.2039 50.6907 33.1619 50.6312 33.1318C50.4343 33.046 50.2227 32.9975 50.0076 32.989L49.7665 32.9681C49.6858 32.9636 49.6059 32.9496 49.5285 32.9264C49.4638 32.9007 49.4085 32.8562 49.3698 32.7988C49.3311 32.7415 49.3108 32.6739 49.3116 32.605C49.3102 32.5359 49.3291 32.468 49.366 32.4094C49.4029 32.3507 49.4562 32.3039 49.5195 32.2746C49.5897 32.2483 49.6644 32.2362 49.7394 32.2388H49.8599C50.7638 32.2597 50.9928 32.2954 51.8274 32.2954H52.0744C52.7373 32.2954 53.2796 32.2597 53.8822 32.2388H54.0268C54.1248 32.2368 54.22 32.2711 54.2936 32.3351C54.3672 32.399 54.4139 32.4879 54.4245 32.5841C54.4277 32.6564 54.4088 32.728 54.3702 32.7895C54.3363 32.8392 54.2917 32.881 54.2396 32.9118C54.1876 32.9427 54.1293 32.9619 54.069 32.9681L53.8761 32.986C53.4844 33.0336 53.3127 33.0604 53.1892 33.3164C53.1169 33.4801 53.0717 33.8016 53.0747 34.5904V38.5612C55.4368 36.0876 57.1873 34.4356 57.7688 33.7361C58.0701 33.3849 58.1846 33.1765 58.1725 33.0931V33.0842C58.1161 33.086 58.06 33.0758 58.008 33.0542C57.956 33.0327 57.9094 33.0002 57.8712 32.9592C57.7911 32.8544 57.7535 32.7238 57.7658 32.5931C57.7648 32.5268 57.783 32.4616 57.8182 32.4052C57.8534 32.3488 57.9042 32.3035 57.9646 32.2746C58.0482 32.2391 58.1389 32.2228 58.2298 32.2269C58.4437 32.2269 58.754 32.2835 59.456 32.2835H59.917C60.161 32.2835 60.4442 32.2478 61.5048 32.2269H61.6193C61.729 32.2221 61.8366 32.2582 61.9206 32.3282C61.9566 32.3619 61.9852 32.4025 62.0049 32.4476C62.0246 32.4926 62.0349 32.5411 62.035 32.5901C62.0341 32.6888 61.9954 32.7834 61.9266 32.855C61.8651 32.9123 61.785 32.946 61.7006 32.9503H61.5439C61.3606 32.9583 61.1797 32.9945 61.0077 33.0574C60.4798 33.1951 59.9997 33.4718 59.6187 33.8581C58.3834 34.9506 58.2629 35.1827 57.576 35.8197L56.5094 36.8407C56.175 37.1711 55.1807 38.1356 54.5811 38.7547C57.8953 42.1629 58.2358 42.5291 59.685 43.9221C60.9685 45.1544 61.6404 45.7528 62.3966 46.0266C62.7618 46.1512 63.1414 46.2303 63.5264 46.2618H63.6018C63.6719 46.2577 63.7423 46.2657 63.8096 46.2856C63.8788 46.3071 63.9392 46.3499 63.982 46.4078C64.0248 46.4656 64.0478 46.5354 64.0477 46.607C64.0496 46.6671 64.0349 46.7266 64.0052 46.7791C63.9755 46.8315 63.9318 46.875 63.8789 46.9047C63.8079 46.9445 63.7304 46.9717 63.65 46.9851C63.4754 47.01 63.2991 47.0219 63.1227 47.0208C62.8696 47.0208 62.6045 47.0208 62.4147 47.0208L62.3785 46.9851Z" fill="black"/>
<path d="M69.712 46.9673C68.8322 46.9286 68.552 46.9286 68.3441 46.9286H67.7416C67.5969 46.9286 67.5698 46.9464 67.139 46.9673C66.7654 46.9673 66.684 46.9851 66.4882 46.9851H66.2411C66.1519 46.9902 66.0624 46.9812 65.976 46.9583C65.8967 46.9369 65.8266 46.8903 65.7765 46.8258C65.7265 46.7613 65.6992 46.6824 65.6988 46.6011C65.7006 46.5373 65.7208 46.4754 65.7571 46.4226C65.7934 46.3699 65.8443 46.3285 65.9037 46.3035C65.962 46.2799 66.0245 46.2677 66.0875 46.2677H66.2502C66.666 46.229 66.7322 46.1338 66.7624 46.11C66.8708 46.0385 67.0878 45.5147 67.0637 43.0589V35.022C67.0637 34.778 67.0245 33.8016 67.0094 33.7123V33.6796C67.0115 33.5218 66.9676 33.3668 66.8829 33.2331C66.8052 33.1457 66.7084 33.0769 66.5998 33.0321C66.4912 32.9872 66.3737 32.9674 66.2562 32.9741L65.9549 32.9563C65.8524 32.9584 65.7503 32.9423 65.6536 32.9086C65.582 32.8796 65.5208 32.8301 65.4779 32.7664C65.4349 32.7028 65.4122 32.6279 65.4126 32.5514C65.4129 32.4807 65.4354 32.4119 65.477 32.3543C65.5185 32.2967 65.577 32.2533 65.6446 32.23C65.7082 32.2116 65.7742 32.2025 65.8404 32.2032C66.6057 32.2032 66.907 32.2597 67.8711 32.2597H68.2357C68.4104 32.2597 68.6033 32.2419 68.8021 32.2419C69.3384 32.224 69.8777 32.2032 70.417 32.2032C72.2609 32.2032 73.4811 32.5276 74.3127 33.2867C74.6809 33.6178 74.9748 34.0214 75.1756 34.4715C75.3765 34.9216 75.4797 35.4082 75.4787 35.9001C75.4787 37.6593 74.3609 39.2518 73.2491 40.246L73.6679 40.7878L74.9906 42.4338C75.7739 43.4191 76.4428 44.2436 77.0785 44.8925C77.8197 45.6397 78.5669 46.2201 79.8202 46.241H79.992C80.1021 46.2369 80.2097 46.2741 80.2933 46.3451C80.3286 46.3756 80.3571 46.4131 80.3768 46.4551C80.3965 46.4972 80.4071 46.5429 80.4078 46.5892V46.6041C80.4081 46.6946 80.3736 46.7818 80.3113 46.8482C80.2653 46.8922 80.2103 46.926 80.1501 46.9476C80.0899 46.9691 80.0257 46.9778 79.9619 46.9732H78.3499C77.0845 46.9732 76.6597 46.8512 76.1174 46.5684C75.7046 46.3541 75.1955 45.9731 73.7764 44.0591L71.4715 40.9902C71.4203 40.9336 71.4022 40.9336 71.3842 40.9336H71.3691L69.1576 40.8979V42.7077C69.1576 42.8744 69.1576 43.5144 69.1908 44.196C69.1971 44.7415 69.2525 45.2854 69.3565 45.8212C69.4197 45.9998 69.4589 46.0534 69.5583 46.1189C69.78 46.2095 70.0175 46.256 70.2573 46.2558L70.5586 46.2737H70.6339C70.7121 46.271 70.7897 46.2873 70.8599 46.3213C70.9116 46.3522 70.9541 46.3959 70.9832 46.4482C71.0123 46.5005 71.0269 46.5594 71.0256 46.619C71.0214 46.7027 70.9897 46.7829 70.9353 46.8473C70.881 46.9117 70.8069 46.9569 70.7243 46.9762C70.5964 47.0081 70.4645 47.0222 70.3326 47.0179C70.1037 47.0179 69.8596 46.9911 69.7301 46.9851L69.712 46.9673ZM69.8205 39.7906C70.1039 39.8421 70.391 39.871 70.6791 39.8769H71.0256C71.3692 39.9063 71.7144 39.8455 72.0266 39.7007C72.3387 39.5559 72.6066 39.3323 72.8032 39.0524C73.2228 38.39 73.4327 37.6188 73.4058 36.8378C73.4058 35.7007 73.1286 34.8047 72.5019 34.138C72.1645 33.7748 71.5589 33.2926 70.3236 33.2896C69.9335 33.2599 69.541 33.291 69.1606 33.3819V39.5674C69.3649 39.6833 69.592 39.7543 69.8265 39.7757L69.8205 39.7906Z" fill="black"/>
<path d="M85.6079 46.9672H85.5867C85.3849 46.9494 85.0233 46.9286 84.6829 46.9286H84.3816C83.4145 46.9286 83.1011 46.9851 82.5256 46.9851C82.4469 46.9893 82.3681 46.9782 82.2937 46.9524C82.2237 46.9234 82.1639 46.8746 82.1221 46.8121C82.0802 46.7495 82.0582 46.6761 82.0587 46.6011C82.0576 46.5297 82.0798 46.4597 82.1219 46.4017C82.1604 46.3533 82.21 46.3145 82.2665 46.2887C82.3231 46.2628 82.3851 46.2505 82.4473 46.2528H82.6191C82.7989 46.2509 82.9741 46.196 83.1222 46.0951C83.2307 46.0237 83.4476 45.4998 83.4235 43.044V35.7781C83.4235 33.9117 83.3723 33.4742 83.2939 33.3283C83.1915 33.1318 82.9927 32.9562 82.2033 32.9473H82.1641C82.0885 32.9498 82.0137 32.9323 81.9472 32.8967C81.889 32.8668 81.8404 32.8214 81.8068 32.7656C81.7733 32.7099 81.7562 32.646 81.7574 32.5812C81.7572 32.5316 81.7682 32.4827 81.7896 32.4379C81.8109 32.3931 81.8422 32.3536 81.8809 32.3222C81.9599 32.2615 82.0553 32.2252 82.1551 32.218H82.3057C83.6645 32.2567 84.014 32.2746 84.2701 32.2746H84.7883C85.412 32.2746 85.3487 32.218 86.34 32.218H86.4545C86.5246 32.2179 86.5942 32.231 86.6594 32.2567C86.7266 32.2872 86.7835 32.3364 86.8231 32.3982C86.8627 32.46 86.8832 32.5318 86.8823 32.605C86.8815 32.6545 86.8695 32.7032 86.847 32.7475C86.8246 32.7919 86.7924 32.8306 86.7527 32.861C86.6537 32.9293 86.5361 32.9666 86.4153 32.9681L86.1713 32.986C85.8368 33.0306 85.7254 33.1199 85.638 33.3015C85.5325 33.5188 85.4994 33.9474 85.5024 35.7453V43.047C85.5024 43.5024 85.5325 45.3748 85.6832 45.8153C85.704 45.9244 85.7666 46.0214 85.8579 46.0862C86.0314 46.174 86.2234 46.2199 86.4183 46.2201L86.6352 46.2409C86.7142 46.2446 86.7928 46.2545 86.8702 46.2707C86.9451 46.2898 87.0114 46.3329 87.0589 46.3932C87.1063 46.4535 87.1321 46.5277 87.1324 46.6041C87.1311 46.6812 87.1054 46.7559 87.0589 46.8179C87.0125 46.8798 86.9475 46.9258 86.8733 46.9494C86.782 46.9791 86.6861 46.9922 86.5901 46.9881C86.2345 46.9881 85.888 46.9702 85.5928 46.9702L85.6079 46.9672Z" fill="black"/>
<path d="M96.7255 46.9285H96.2465C96.0898 46.9285 95.9181 46.9494 95.7403 46.9494C95.3667 46.9672 94.984 46.9672 94.6165 46.9851H94.4749C94.3607 46.9779 94.2533 46.9291 94.1736 46.8481C94.1127 46.78 94.0795 46.692 94.0802 46.6011C94.0797 46.5297 94.1027 46.4601 94.1456 46.4027C94.1885 46.3453 94.249 46.3032 94.3182 46.2826C94.3755 46.269 94.4341 46.2611 94.493 46.2588L94.8304 46.2201C95.1618 46.1576 95.204 46.0593 95.3095 45.8004C95.3486 45.7051 95.448 45.3033 95.448 43.9519V41.8682C95.4697 41.219 95.3279 40.5747 95.0353 39.993C94.8455 39.6536 94.6556 39.3173 94.3905 38.8856L92.2634 35.4625C91.2782 33.867 90.7238 33.4086 90.4557 33.23C90.269 33.1159 90.0658 33.0305 89.8531 32.977C89.7567 32.9383 89.6392 32.9949 89.4373 32.8341C89.4064 32.8027 89.3822 32.7653 89.3662 32.7244C89.3501 32.6835 89.3425 32.6399 89.3439 32.596C89.3454 32.5179 89.3726 32.4425 89.4216 32.3812C89.4706 32.3199 89.5386 32.2762 89.6151 32.2567C89.6848 32.2381 89.7568 32.2291 89.829 32.2299C90.2388 32.2299 90.6455 32.2507 91.0342 32.2686C91.2089 32.2686 91.3626 32.2894 91.4951 32.2864H91.935C92.402 32.2864 92.4743 32.2299 93.333 32.2299H93.4475C93.5114 32.228 93.575 32.2391 93.6343 32.2626C93.6907 32.2895 93.738 32.3319 93.7706 32.3847C93.8032 32.4375 93.8197 32.4985 93.8181 32.5603C93.8172 32.6209 93.8004 32.6802 93.7692 32.7325C93.738 32.7847 93.6936 32.8279 93.6403 32.858C93.562 32.8996 93.5168 32.9056 93.5168 32.9115L93.3933 32.9711C93.2697 33.0366 93.2938 33.0514 93.2818 33.1169C93.305 33.3361 93.3815 33.5465 93.5047 33.7301C93.7307 34.1587 96.0416 38.0522 96.8189 39.3321C97.301 38.4153 97.8915 37.3765 99.8077 34.1379C99.9889 33.9033 100.094 33.62 100.109 33.3253C100.114 33.2501 100.106 33.1745 100.085 33.102C100.055 33.0306 100.04 33.0068 99.9674 32.98L99.7926 32.9235C99.734 32.9058 99.6796 32.8764 99.633 32.8371C99.5955 32.8033 99.5658 32.7618 99.546 32.7155C99.5263 32.6693 99.5169 32.6194 99.5185 32.5692C99.5182 32.5073 99.5356 32.4466 99.5687 32.3939C99.6017 32.3413 99.649 32.2989 99.7053 32.2716C99.7739 32.2392 99.8491 32.2229 99.9252 32.2239C100.078 32.2232 100.231 32.2301 100.383 32.2448C100.986 32.2805 101.1 32.2805 101.151 32.2805H101.344C101.519 32.2805 101.715 32.2626 102.037 32.2626C102.378 32.2448 102.531 32.2239 102.742 32.2239H103.209C103.287 32.2295 103.363 32.2425 103.438 32.2626C103.503 32.2832 103.559 32.3228 103.6 32.376C103.641 32.4292 103.664 32.4935 103.667 32.5603C103.667 32.6332 103.645 32.7043 103.603 32.7647C103.562 32.8251 103.503 32.872 103.435 32.8996C103.359 32.9301 103.277 32.9453 103.194 32.9443L102.995 32.9622C102.393 33.0068 101.742 33.7123 101.489 34.0843C100.788 35.037 100.147 36.031 99.5697 37.061L98.3073 39.219C97.7891 40.112 97.6023 40.3472 97.5932 41.8653V43.9489C97.5932 44.2972 97.6294 45.077 97.6505 45.3568C97.6485 45.5409 97.6886 45.7231 97.768 45.8897C97.8133 45.9742 97.8797 46.0458 97.9609 46.0979C98.0421 46.15 98.1354 46.1808 98.2319 46.1873L98.5122 46.226C98.5122 46.226 98.9249 46.2588 98.9701 46.2558H99.0485C99.1115 46.256 99.1739 46.2681 99.2323 46.2915C99.2917 46.3166 99.3425 46.3579 99.3788 46.4107C99.4152 46.4634 99.4354 46.5254 99.4371 46.5892C99.4354 46.6661 99.4096 46.7407 99.3631 46.8025C99.3167 46.8644 99.252 46.9105 99.178 46.9345C99.0868 46.9644 98.9908 46.9775 98.8948 46.9732C98.1717 46.9732 97.4848 46.9166 96.7858 46.9166L96.7255 46.9285Z" fill="black"/>
<path d="M116.403 46.9852H114.595C114.294 46.9852 113.486 46.9674 113.236 46.9465C113.089 46.9529 112.944 46.9145 112.82 46.8364C112.781 46.8062 112.75 46.7678 112.728 46.724C112.706 46.6803 112.694 46.6322 112.694 46.5834C112.69 46.5203 112.704 46.4574 112.735 46.402C112.766 46.3467 112.812 46.3012 112.868 46.2708C112.901 46.2545 112.935 46.2425 112.971 46.2351C112.973 46.2173 112.973 46.1994 112.971 46.1815C112.972 46.1253 112.965 46.0691 112.95 46.0148L111.196 41.4189H107.144L105.996 44.7617C105.85 45.1174 105.764 45.4946 105.743 45.8779C105.743 46.0952 105.809 46.1428 105.9 46.1994C106.004 46.2495 106.119 46.2731 106.234 46.2679H106.424C106.49 46.267 106.557 46.2771 106.62 46.2976C106.688 46.3197 106.746 46.3624 106.788 46.4196C106.83 46.4768 106.852 46.5456 106.852 46.6161C106.852 46.6899 106.83 46.7621 106.789 46.8236C106.748 46.8851 106.689 46.9331 106.62 46.9614C106.542 46.9895 106.459 47.0027 106.376 47.0001H106.327C106.002 47.0001 105.725 46.9614 105.448 46.9644H105.372C105.164 46.9644 104.99 46.9436 104.815 46.9436H104.514C103.215 46.9436 103.447 46.9823 102.673 47.0001H102.54C102.308 47.0001 102.097 46.9078 102.073 46.6548V46.5893V46.5655C102.086 46.4965 102.118 46.4324 102.166 46.38C102.213 46.3275 102.274 46.2888 102.341 46.2679C102.439 46.2401 102.541 46.228 102.643 46.2321H102.869C103.137 46.2397 103.399 46.152 103.607 45.9851C103.848 45.7857 104.125 45.3898 104.423 44.589L108.771 32.8403C108.838 32.5806 108.947 32.3333 109.093 32.108C109.132 32.0599 109.181 32.0207 109.237 31.9929C109.292 31.9652 109.353 31.9496 109.416 31.9473C109.699 31.977 109.771 32.1616 109.859 32.2985C109.931 32.4361 109.991 32.5795 110.039 32.7271C110.283 33.3969 110.591 34.0577 110.859 34.7453C111.244 35.6949 111.591 36.6623 111.953 37.6059C114.134 43.318 114.634 44.4313 114.914 44.9819C115.182 45.5296 115.517 46.1012 116.282 46.2143C116.541 46.2559 116.689 46.2143 116.885 46.2768C116.931 46.2879 116.975 46.3088 117.013 46.3381C117.051 46.3674 117.082 46.4043 117.105 46.4465C117.126 46.4944 117.138 46.5459 117.141 46.5983C117.14 46.6484 117.129 46.6978 117.107 46.743C117.085 46.7882 117.053 46.8282 117.014 46.8602C116.957 46.9059 116.89 46.9376 116.818 46.9525C116.713 46.9759 116.604 46.9859 116.496 46.9823H116.406L116.403 46.9852ZM110.771 40.258L109.108 35.5847L107.533 40.258H110.771Z" fill="black"/>
<path d="M20.1894 17.3081C19.8146 17.3081 19.4482 17.4179 19.1366 17.6236C18.8249 17.8294 18.582 18.1218 18.4386 18.4639C18.2951 18.806 18.2576 19.1825 18.3307 19.5457C18.4038 19.9089 18.5843 20.2425 18.8494 20.5043C19.1144 20.7662 19.4521 20.9445 19.8197 21.0167C20.1873 21.089 20.5684 21.0519 20.9146 20.9102C21.2609 20.7685 21.5569 20.5285 21.7651 20.2206C21.9734 19.9127 22.0845 19.5507 22.0845 19.1804C22.0845 18.6838 21.8849 18.2076 21.5295 17.8565C21.1741 17.5054 20.692 17.3081 20.1894 17.3081Z" fill="black"/>
<path d="M0 46.86V7.02075H40.3246V46.86H0ZM0.903868 45.967H39.4087V7.92565H0.918947V45.9521L0.903868 45.967Z" fill="black"/>
<path d="M1.17505 26.9405C1.17308 24.4766 1.66258 22.0365 2.61559 19.7596C3.5686 17.4827 4.96643 15.4136 6.72919 13.6707C8.49196 11.9277 10.5851 10.5451 12.889 9.60175C15.1929 8.6584 17.6624 8.17285 20.1563 8.17285C25.1944 8.17285 30.0262 10.1502 33.5887 13.6698C37.1512 17.1894 39.1526 21.963 39.1526 26.9405C39.1526 29.4044 38.6611 31.8442 37.7063 34.1203C36.7514 36.3965 35.3519 38.4645 33.5878 40.206C31.8236 41.9476 29.7293 43.3286 27.4247 44.2701C25.12 45.2117 22.6502 45.6953 20.1563 45.6933C15.1221 45.6933 10.2942 43.7176 6.73452 40.2007C3.17486 36.6839 1.17505 31.9141 1.17505 26.9405ZM7.38462 14.3107C5.70107 15.9663 4.36558 17.9345 3.45501 20.1021C2.54443 22.2696 2.07676 24.5937 2.07892 26.9405C2.07574 29.286 2.54178 31.609 3.45024 33.7759C4.35871 35.9429 5.69169 37.9111 7.37258 39.5674C9.04915 41.2288 11.0418 42.5462 13.2357 43.4438C15.4297 44.3414 17.7817 44.8014 20.1563 44.7973C22.5309 44.8017 24.883 44.3418 27.077 43.4442C29.271 42.5467 31.2636 41.2291 32.94 39.5674C34.6209 37.9111 35.9538 35.9429 36.8623 33.7759C37.7708 31.609 38.2368 29.286 38.2336 26.9405C38.2374 24.5945 37.7716 22.2709 36.8631 20.1034C35.9546 17.9359 34.6213 15.9673 32.94 14.3107C31.2633 12.6491 29.2708 11.3314 27.0769 10.4334C24.883 9.53531 22.531 9.07461 20.1563 9.07775C17.7816 9.07494 15.4297 9.53579 13.2359 10.4338C11.042 11.3319 9.0494 12.6494 7.37258 14.3107H7.38462Z" fill="black"/>
<path d="M20.1563 35.7632H4.69409L12.4282 22.5291L19.7646 9.97363L20.1623 9.29199L27.8964 22.5291L35.6305 35.7632H20.1563ZM13.2266 22.9815L6.29695 34.8702H34.0577L27.1281 22.9934L20.1984 11.1167L13.2688 22.9934L13.2266 22.9815Z" fill="black"/>
<path d="M21.2017 23.3654C22.9943 23.172 24.9256 22.5915 25.4619 21.767C25.5723 21.4175 25.6361 21.0553 25.6517 20.6895C25.6517 20.6895 24.0729 21.9515 20.1863 21.9515C16.0496 21.9515 14.6727 20.6895 14.6727 20.6895C14.6729 21.0553 14.7309 21.4188 14.8445 21.767C15.1458 22.3087 16.2726 22.66 17.3391 22.9934C20.816 24.0292 21.5331 25.97 21.6325 26.9374C21.6325 27.6845 21.9097 28.4763 19.6078 27.5327C18.2038 26.9374 18.1315 27.6786 18.1014 27.9018C18.0291 28.4287 18.1255 31.5006 19.9091 33.2598C21.4156 34.7481 22.3827 34.7481 22.3827 34.7481C22.3827 34.7481 20.6594 32.8192 20.2737 31.4113C20.0475 30.5993 20.0145 29.7466 20.1773 28.9199L22.5514 29.6342C22.5514 29.6342 24.7388 26.4135 21.2017 23.3654Z" fill="black"/>
<path d="M20.7769 19.3561L21.7259 18.6715H20.5509L20.1894 17.5671L19.8248 18.6715H18.6498L19.5988 19.3561L19.2373 20.4574L20.1894 19.7758L21.1414 20.4574L20.7769 19.3561Z" fill="black"/>
<path d="M20.1894 16.677C19.6913 16.677 19.2043 16.8229 18.7901 17.0964C18.3759 17.3698 18.053 17.7585 17.8624 18.2132C17.6717 18.6679 17.6219 19.1682 17.7191 19.6509C17.8162 20.1337 18.0561 20.5771 18.4084 20.9251C18.7607 21.2731 19.2095 21.5101 19.698 21.6061C20.1866 21.7021 20.6931 21.6529 21.1533 21.4645C21.6136 21.2762 22.007 20.9572 22.2837 20.548C22.5605 20.1388 22.7082 19.6576 22.7082 19.1655C22.7082 18.5055 22.4428 17.8725 21.9705 17.4059C21.4981 16.9392 20.8574 16.677 20.1894 16.677ZM20.1894 20.8175C19.8587 20.8175 19.5354 20.7206 19.2604 20.5391C18.9855 20.3576 18.7711 20.0995 18.6446 19.7977C18.518 19.4958 18.4849 19.1636 18.5494 18.8432C18.6139 18.5227 18.7732 18.2283 19.007 17.9973C19.2409 17.7663 19.5388 17.6089 19.8632 17.5452C20.1876 17.4814 20.5238 17.5141 20.8293 17.6392C21.1349 17.7642 21.396 17.976 21.5798 18.2476C21.7635 18.5193 21.8616 18.8387 21.8616 19.1655C21.8616 19.6036 21.6854 20.0238 21.3718 20.3336C21.0582 20.6434 20.6329 20.8175 20.1894 20.8175Z" fill="black"/>
</g>
</svg>
