<svg width="148" height="53" viewBox="0 0 148 53" fill="none" xmlns="http://www.w3.org/2000/svg"><g opacity=".72" fill="#000"><path d="M67.287 24v-9.1h1.664v6.461l4.888-6.461h1.573V24h-1.664v-6.448L68.86 24h-1.573zm11.99 0v-9.1h1.377l3.992 6.643h-.742l3.927-6.643h1.377l.026 9.1h-1.611l-.014-6.591h.339L84.62 22.96h-.755l-3.38-5.551h.39V24h-1.599zm13.817 0v-9.1h8.047V24h-1.664v-8.086l.39.416h-5.499l.39-.416V24h-1.664zm13.473-5.317h4.524v1.391h-4.524v-1.391zm.13 3.9h5.135V24h-6.825v-9.1h6.643v1.417h-4.953v6.266zM115.016 24v-9.1h3.744c.806 0 1.495.13 2.067.39.581.26 1.027.633 1.339 1.118.312.485.468 1.062.468 1.729s-.156 1.244-.468 1.729c-.312.485-.758.858-1.339 1.118-.572.26-1.261.39-2.067.39h-2.808l.754-.793V24h-1.69zm1.69-3.237l-.754-.819h2.73c.745 0 1.304-.156 1.677-.468.381-.32.572-.767.572-1.339 0-.58-.191-1.027-.572-1.339-.373-.312-.932-.468-1.677-.468h-2.73l.754-.832v5.265zm8.84 3.237v-9.1h1.664v6.461l4.888-6.461h1.573V24h-1.664v-6.448L127.119 24h-1.573zm17.267 0v-2.912l.416.377h-2.665c-.762 0-1.421-.126-1.976-.377a2.914 2.914 0 01-1.261-1.105c-.294-.485-.442-1.066-.442-1.742 0-.702.156-1.3.468-1.794a2.957 2.957 0 011.326-1.144c.572-.269 1.244-.403 2.015-.403h3.783V24h-1.664zm-5.902 0l2.249-3.25h1.703L138.692 24h-1.781zm5.902-3.458v-4.68l.416.468h-2.483c-.693 0-1.226.16-1.599.481-.364.312-.546.78-.546 1.404 0 .598.174 1.062.52 1.391.356.32.876.481 1.56.481h2.548l-.416.455zM73.293 40l-3.081-4.433 1.365-.845L75.204 40h-1.911zm-6.019 0v-9.1h1.664V40h-1.664zm1.157-3.835v-1.456h3.068v1.456h-3.068zm3.302-.52l-1.547-.208 3.107-4.537h1.794l-3.354 4.745zm5.965 4.485c-.147 0-.295-.013-.442-.039a21.358 21.358 0 01-.481-.091l.117-1.469c.121.035.251.052.39.052.364 0 .654-.147.871-.442.217-.303.373-.745.468-1.326.095-.58.16-1.296.195-2.145l.13-3.77h6.695V40h-1.664v-8.086l.39.416h-4.329l.364-.429-.091 2.704a22.082 22.082 0 01-.182 2.379c-.095.685-.243 1.261-.442 1.729-.19.46-.446.81-.767 1.053-.32.243-.728.364-1.222.364zM89.514 40v-9.1h1.664v6.461l4.888-6.461h1.573V40h-1.664v-6.448L91.087 40h-1.573zm11.989 0v-9.1h1.378l3.991 6.643h-.741l3.926-6.643h1.378l.026 9.1h-1.612l-.013-6.591h.338l-3.328 5.551h-.754l-3.38-5.551h.39V40h-1.599zm12.648 0l4.095-9.1h1.664l4.108 9.1h-1.768l-3.523-8.203h.676L115.893 40h-1.742zm1.885-2.106l.455-1.326h4.914l.455 1.326h-5.824zM128.167 40v-8.086l.403.416h-3.406V30.9h7.696v1.43h-3.406l.39-.416V40h-1.677zm5.837 0l4.095-9.1h1.664l4.108 9.1h-1.768l-3.523-8.203h.676L135.746 40h-1.742zm1.885-2.106l.455-1.326h4.914l.455 1.326h-5.824zM47.898.056a1.015 1.015 0 00-.332.327c-.015.03-.07.11-.121.176-.106.14-.342.51-.593.927-.49.822-2.337 3.61-3.027 4.571-.323.45-.802 1.033-1.694 2.062-.297.342-.693.803-.883 1.023-.838.975-1.71 1.887-1.958 2.05a.962.962 0 01-.195.1c-.19.059-.669-.016-1.117-.175-.128-.045-.312-.112-.409-.145-.394-.142-1.52-.428-2.294-.584-.758-.152-2.124-.258-3.066-.238-.857.02-2.345.177-2.945.314-.626.142-1.871.496-2.26.645-.837.316-1.337.54-1.954.879-1.375.75-1.693.964-2.562 1.71-.606.518-1.069.945-1.587 1.461-.51.512-.513.515-.959 1.108-.245.327-.565.745-.708.93-.249.32-.266.34-.375.387-.212.095-.667.238-1.942.606a89.73 89.73 0 00-2.146.641c-1.445.46-2.174.795-2.174 1.003 0 .095.114.114.522.084.6-.04 1.258-.137 1.801-.262a95.79 95.79 0 002.343-.602c.26-.074 1.022-.305 1.1-.336.018-.008-.004.046-.063.145-.251.412-.65 1.358-.937 2.207-.424 1.26-.711 2.954-.764 4.497-.016.5.038 2.16.077 2.335.01.045-.024.058-.418.17-.62.178-1.052.272-2.156.475a45.52 45.52 0 01-2.907.457c-1.641.215-2.375.282-4.395.409-2.259.14-2.51.148-4.6.148-1.918.002-1.817-.005-2.048.14a.463.463 0 00-.152.265c0 .138.212.32.466.402.182.057.305.08.649.111 1.52.147 3.092.14 6.02-.026 1.68-.095 1.947-.115 3.335-.262.99-.104 3.309-.36 3.753-.416a125.37 125.37 0 006.04-.948c1.33-.241 1.608-.306 1.866-.436.32-.162.348-.29.323-1.477-.009-.43-.015-.878-.013-.996.01-.48.248-1.814.443-2.477.118-.407.674-1.802.908-2.291.171-.351.223-.431.686-1.052.704-.95 1.105-1.551 1.375-2.057.253-.477.321-.797.213-1.008-.09-.184-.45-.207-1.157-.077a52.44 52.44 0 00-1.254.277c-1.256.29-1.496.344-1.951.428-.431.08-.623.126-1.069.26-.356.107-.89.254-1.038.288-.104.022-.205 0-.234-.056-.026-.05.022-.195.113-.334a1.66 1.66 0 01.676-.586c.309-.137 1.076-.42 2.295-.841l1.328-.463a91.521 91.521 0 012.23-.758c.25-.069.535-.17.78-.279.576-.256.966-.37 1.264-.368.303 0 .457.076.764.372.252.245.414.546.492.925.052.255.046.422-.02.61-.133.362-.593 1.09-1.279 2.02-.48.648-.992 1.484-1.206 1.96-.197.438-.392 1.304-.453 2.015-.024.276-.013.78.02.957.143.764.78 1.357 1.704 1.583.27.066.513.07.721.008.565-.164 1.687-.721 2.124-1.056.563-.43 1.694-1.536 2.317-2.263.421-.492 1.213-1.62 1.639-2.331.199-.333.282-.485.683-1.245.389-.736.472-.883.768-1.357.42-.672.745-1.143 1.047-1.51.71-.862 1.223-1.423 2.227-2.438 2.655-2.683 4.07-4.166 5.12-5.36a93.826 93.826 0 002.077-2.516c.36-.45 1.292-1.825 1.498-2.211.154-.285.292-.73.334-1.078.025-.203.028-.777.004-.823a.52.52 0 01-.031-.117c-.019-.117-.117-.372-.164-.424-.054-.057-.358-.245-.4-.245a.655.655 0 00-.135.056zm.522 6.906c-.167.028-.416.143-.65.305-.34.232-.613.505-1.124 1.122-.927 1.12-1.093 1.306-1.518 1.696a7.561 7.561 0 01-.892.732c-.37.266-.5.381-.624.549a1.788 1.788 0 00-.381 1.12c0 .271.022.36.098.4.2.103.645-.086 1.31-.558.134-.093.346-.236.472-.316.128-.08.396-.27.595-.42.412-.308 1.826-1.466 2.006-1.639.253-.245.51-.585.64-.843.263-.52.349-.914.354-1.604.002-.312-.001-.349-.035-.407-.061-.104-.152-.154-.25-.137zm-.892 6.46c-.36.103-.866.38-1.479.813-.888.627-1.025.71-1.391.834a3.99 3.99 0 00-.41.163c-.165.091-.285.23-.521.61a7.426 7.426 0 01-.279.417c-.191.257-.267.476-.212.612.036.087.12.149.204.149.175 0 .701-.132 1.171-.292.572-.195 1.63-.721 2.156-1.07.475-.318.92-.699 1.116-.96a.946.946 0 00.149-.8c-.047-.19-.153-.41-.22-.464-.055-.043-.154-.047-.284-.012z"/><path d="M27.107 15.446c-.175.065-.39.271-.428.407a.504.504 0 00.164.473c.06.045.083.053.19.053.14-.002.261-.038.484-.147.28-.136.368-.264.316-.457-.026-.099-.147-.23-.27-.294a.735.735 0 00-.456-.035zm18.684 3.701c-.626.113-1.618.517-1.887.767-.235.216-.512.706-1.402 2.475-.713 1.418-.878 1.726-1.072 1.998-1.012 1.413-2.148 2.86-2.633 3.351-.252.259-.406.35-.87.515-.343.123-.49.2-.614.314-.119.11-.247.32-.204.334l.284.092c1.858.59 3.965 1.568 4.864 2.255.06.045.104.086.1.09a.585.585 0 01-.14-.049c-.378-.154-.627-.213-1.233-.288a25.45 25.45 0 01-.758-.102c-.546-.08-.711-.074-.838.032l-.059.05.011.187c.017.303.099.487.251.565.158.08.576.173 1.228.272.474.07.994.17 1.479.286.303.07.513.113 1.078.213.43.078.418.073.661.322.287.293.557.646.677.877l.031.063-.045-.011c-.193-.049-1.774-.279-2.746-.403-1.377-.175-1.815-.212-1.952-.164-.242.082-.426.376-.426.673.002.202.102.34.333.457.215.108.295.122 1.795.325.854.115 1 .143 1.763.327.791.191 1.048.24 1.304.253.208.009.234.007.31-.03.247-.119.792-1.093 1.648-2.947a10.68 10.68 0 00.65-1.752c.36-1.262.508-2.267.595-4.052.047-.93.015-1.43-.169-2.678-.173-1.178-.384-2.22-.555-2.735-.223-.667-.6-1.427-.868-1.754-.123-.152-.279-.186-.59-.128zM23.794 31.932c-.052.134.061.435.29.773.338.506 1.15 1.33 1.956 1.986.524.43 1.108.816 1.366.907l.095.034-.09.01a68.08 68.08 0 01-1.678.172l-1.198.113c-1.82.175-2.718.238-3.735.26l-.527.013.028.065c.156.376 1.507 1.62 2.84 2.622 1.238.925 2.953 1.79 4.636 2.334.987.317 1.918.462 3.42.531.538.024 2.086.013 2.545-.018 1.302-.092 2.159-.225 2.991-.467.314-.093.502-.162 1.264-.468.24-.097.542-.212.67-.257l.234-.081.333.23c.903.623 1.62 1.182 2.33 1.812a27.504 27.504 0 011.589 1.598c.215.234.732.799 1.152 1.254 1.638 1.778 2.253 2.462 2.86 3.184.168.201.187.216.209.186.052-.07.07-.186.067-.425-.004-.342-.032-.532-.1-.677-.16-.341-.82-1.317-1.611-2.38-1.968-2.64-3.95-4.877-4.924-5.552a2.2 2.2 0 00-.223-.14l-.08-.041.143-.092c.171-.108.5-.345.779-.563a46.245 46.245 0 001.618-1.362c.037-.035.043-.035.26.012l.658.13c1.193.234 1.626.379 2.824.943.515.242.946.42 1.107.46.233.052.365-.07.365-.335.002-.373-.313-.933-.677-1.208-.49-.371-1.683-.854-3.091-1.252a13.592 13.592 0 00-2.191-.464c-1.574-.223-2.505-.315-3.224-.315-.388-.002-.468.004-.724.049l-.586.096c-.525.084-.773.171-.953.335-.136.122-.178.212-.165.34.011.108.102.318.2.462.238.353.872 1.017 1.29 1.351l.585.467c.372.297.732.646.8.773l.044.087-.047.089a.554.554 0 01-.308.25 1.18 1.18 0 01-.613.012c-.12-.04-.444-.228-1.483-.85-2.216-1.324-2.138-1.281-3.567-1.922-.45-.203-1.073-.487-1.385-.632l-.566-.264-.223-.031c-.99-.143-1.975-.472-3.13-1.052-.75-.375-1.463-.88-2.714-1.921-.875-.729-1.232-.996-1.49-1.117-.175-.08-.23-.093-.245-.054zM9.662 48.134c0 .024.108.13.121.118.004-.006-.02-.04-.056-.073-.035-.035-.065-.054-.065-.045z"/></g></svg>