<svg width="93" height="53" viewBox="0 0 93 53" fill="none" xmlns="http://www.w3.org/2000/svg"><g opacity=".65" fill-rule="evenodd" clip-rule="evenodd"><path d="M27.334 19.196l7.417 7.263-7.417 7.264h-9.556l7.445-7.264-7.445-7.263h9.556z" fill="#000"/><path d="M31.75 19.196l7.446 7.263-7.445 7.264h-3.834l7.445-7.264-7.445-7.263h3.834z" fill="#636363"/><path d="M26.779 18.76l-6.862-6.72c-1.416-1.387-3.778-1.387-5.194 0L0 26.46l14.806 14.5c1.417 1.387 3.778 1.387 5.195 0l6.944-6.802h-9.583l-.028-.027-7.806-7.645-.028-.027 7.834-7.672h9.445v-.027zm26.438 16.377c-2.5 0-4.611-.843-6.278-2.503-1.667-1.66-2.5-3.727-2.5-6.175 0-2.422.833-4.49 2.528-6.149 1.667-1.686 3.806-2.503 6.417-2.503 1.472 0 2.722.245 3.75.708 1 .462 1.972 1.142 2.889 2.013l-2.25 2.53c-.723-.653-1.417-1.143-2.056-1.415-.639-.299-1.417-.435-2.333-.435-1.445 0-2.611.517-3.556 1.524-.944 1.006-1.417 2.258-1.417 3.754 0 1.469.473 2.72 1.417 3.727.944 1.034 2.111 1.523 3.556 1.523.916 0 1.694-.163 2.36-.49.668-.326 1.39-.816 2.14-1.496l2.389 2.503a8.968 8.968 0 01-3.028 2.15c-1.111.49-2.445.734-4.028.734zm14.028-.3V21.48h-5.222v-3.4h14.195v3.4h-5.223v13.358h-3.75zm11.862 0V18.08h7c2.028 0 3.611.544 4.806 1.605 1.166 1.061 1.75 2.476 1.75 4.244 0 1.878-.64 3.32-1.945 4.353-1.305 1.034-2.972 1.55-4.972 1.55h-2.861v5.034h-3.778v-.027zm3.75-8.297h2.972c.917 0 1.667-.245 2.195-.707.528-.49.805-1.116.805-1.877 0-.816-.277-1.442-.805-1.878-.528-.435-1.278-.652-2.25-.652h-2.917v5.114z" fill="#000"/></g></svg>