<svg width="134" height="53" viewBox="0 0 134 53" fill="none" xmlns="http://www.w3.org/2000/svg">
<g opacity="0.7" clip-path="url(#clip0_424_173)">
<path d="M59.2146 11.2754C59.3708 11.2754 59.47 11.3685 59.5121 11.5525L63.4741 25.8846C63.4898 25.9196 63.4931 25.9589 63.4833 25.9959C63.4735 26.033 63.4514 26.0657 63.4205 26.0884C63.3567 26.1381 63.2778 26.1644 63.197 26.1631H60.3856C60.2301 26.1631 60.1302 26.0707 60.0881 25.886L59.2153 22.6935H54.7995L53.9273 25.886C53.8852 26.0707 53.7847 26.1631 53.6285 26.1631H50.8178C50.7369 26.1646 50.658 26.1382 50.5943 26.0884C50.5632 26.0659 50.5408 26.0333 50.5309 25.9962C50.521 25.959 50.5242 25.9196 50.5399 25.8846L54.502 11.5525C54.5441 11.3685 54.6433 11.2754 54.7995 11.2754H59.2146ZM55.9352 18.2193L55.5093 19.8162H58.4905L58.0646 18.2193L57.0851 13.9401H56.9357L55.9352 18.2193Z" fill="black"/>
<path d="M77.1228 25.8424C77.1437 25.8779 77.1547 25.9183 77.1547 25.9595C77.1547 26.0007 77.1437 26.0412 77.1228 26.0767C77.1008 26.1126 77.0691 26.1417 77.0314 26.1605C76.9937 26.1794 76.9515 26.1873 76.9096 26.1833H73.8006C73.7264 26.1847 73.6532 26.1656 73.5892 26.1279C73.5251 26.0903 73.4728 26.0356 73.4379 25.9701L69.988 20.1564H68.6886V25.9069C68.6941 25.9444 68.6907 25.9827 68.6788 26.0186C68.6669 26.0546 68.6467 26.0873 68.6199 26.1141C68.5932 26.141 68.5605 26.1612 68.5246 26.1732C68.4886 26.1852 68.4504 26.1887 68.4129 26.1833H65.6436C65.606 26.1886 65.5678 26.1852 65.5318 26.1732C65.4958 26.1612 65.4631 26.1409 65.4363 26.1141C65.4095 26.0873 65.3893 26.0546 65.3773 26.0186C65.3653 25.9827 65.3618 25.9444 65.3671 25.9069V11.5524C65.3618 11.5148 65.3653 11.4765 65.3773 11.4405C65.3893 11.4045 65.4095 11.3718 65.4363 11.345C65.4631 11.3181 65.4958 11.2978 65.5317 11.2857C65.5677 11.2736 65.606 11.27 65.6436 11.2752H68.4129C68.4504 11.27 68.4887 11.2736 68.5246 11.2857C68.5606 11.2978 68.5932 11.3181 68.6199 11.345C68.6467 11.3719 68.6668 11.4046 68.6788 11.4406C68.6907 11.4766 68.694 11.5149 68.6886 11.5524V17.2581H69.9452L73.2674 11.4845C73.3028 11.4193 73.3552 11.365 73.4191 11.3274C73.4831 11.2898 73.556 11.2704 73.6302 11.2712H76.6786C76.7193 11.2664 76.7606 11.274 76.797 11.293C76.8333 11.312 76.8631 11.3416 76.8824 11.3778C76.8996 11.4151 76.9077 11.456 76.9058 11.497C76.9039 11.538 76.8921 11.578 76.8715 11.6135L72.8884 18.5982L77.1228 25.8424Z" fill="black"/>
<path d="M84.7352 11.2753C85.432 11.2686 86.1266 11.3547 86.8007 11.5314C87.3865 11.682 87.9343 11.9539 88.4085 12.3295C88.8608 12.6979 89.2187 13.169 89.4525 13.7036C89.7154 14.3298 89.8425 15.0046 89.8254 15.6836V15.8744C89.8545 16.8063 89.6058 17.7259 89.1108 18.516C88.6286 19.2464 87.934 19.8114 87.1206 20.1347L88.5905 22.2403L90.6772 25.8403C90.7043 25.8723 90.7209 25.912 90.7247 25.9538C90.7285 25.9957 90.7192 26.0376 90.6982 26.074C90.6761 26.1098 90.6444 26.1388 90.6067 26.1576C90.5691 26.1764 90.5269 26.1844 90.4849 26.1806H87.3754C87.2988 26.1809 87.2238 26.1589 87.1594 26.1174C87.0951 26.076 87.0441 26.0168 87.0126 25.947L83.9669 20.6652H82.2627V25.9035C82.2681 25.9411 82.2647 25.9795 82.2528 26.0155C82.2408 26.0516 82.2206 26.0843 82.1938 26.1112C82.167 26.1381 82.1343 26.1584 82.0982 26.1704C82.0622 26.1825 82.0239 26.186 81.9863 26.1806H79.217C79.1793 26.186 79.141 26.1825 79.105 26.1704C79.0689 26.1584 79.0362 26.1381 79.0094 26.1112C78.9825 26.0843 78.9624 26.0516 78.9504 26.0155C78.9385 25.9795 78.9351 25.9411 78.9405 25.9035V11.5524C78.9352 11.5148 78.9387 11.4766 78.9507 11.4406C78.9627 11.4046 78.9829 11.3719 79.0097 11.345C79.0365 11.3181 79.0692 11.2979 79.1051 11.2858C79.1411 11.2737 79.1794 11.2701 79.217 11.2753H84.7352ZM82.2219 18.027H84.1809C84.4893 18.058 84.8009 18.0269 85.0971 17.9354C85.3933 17.8439 85.6682 17.694 85.9055 17.4944C86.0782 17.309 86.2123 17.091 86.3 16.8533C86.3877 16.6155 86.4272 16.3626 86.4163 16.1095V16.0028C86.433 15.7518 86.3971 15.5001 86.3111 15.2637C86.225 15.0273 86.0905 14.8116 85.9163 14.6301C85.4256 14.2607 84.8138 14.0895 84.2026 14.1505H82.243L82.2219 18.027Z" fill="black"/>
<path d="M97.7129 10.9988C98.4827 10.9969 99.2469 11.1302 99.9707 11.3927C100.684 11.6495 101.337 12.052 101.887 12.5746C102.463 13.1333 102.913 13.8082 103.208 14.5546C103.55 15.4367 103.716 16.3772 103.698 17.3232V20.1339C103.717 21.0797 103.55 22.02 103.208 22.9019C102.914 23.6486 102.463 24.3239 101.887 24.8825C101.337 25.4055 100.685 25.8083 99.9707 26.0651C99.2468 26.327 98.4827 26.4601 97.7129 26.4584H97.3936C96.6238 26.4602 95.8596 26.3271 95.1358 26.0651C94.4218 25.8084 93.7692 25.4057 93.2197 24.8825C92.6424 24.3248 92.1921 23.6492 91.8992 22.9019C91.5563 22.0202 91.3899 21.0797 91.4094 20.1339V17.3225C91.39 16.3765 91.5564 15.4359 91.8992 14.5539C92.1924 13.807 92.6428 13.1317 93.2197 12.5739C93.7693 12.0511 94.4219 11.6486 95.1358 11.392C95.8595 11.1295 96.6238 10.9961 97.3936 10.9981L97.7129 10.9988ZM97.4785 13.8733C97.1137 13.8528 96.7489 13.9149 96.4115 14.0551C96.0741 14.1953 95.7726 14.41 95.5298 14.683C95.0259 15.3558 94.7805 16.1872 94.8383 17.0257V20.4124C94.7803 21.251 95.0257 22.0825 95.5298 22.7551C95.7725 23.0283 96.0739 23.243 96.4114 23.3832C96.7488 23.5234 97.1137 23.5855 97.4785 23.5648H97.649C98.0139 23.5854 98.3786 23.5233 98.7161 23.3831C99.0536 23.2429 99.355 23.0282 99.5978 22.7551C100.102 22.0824 100.347 21.2511 100.29 20.4124V17.0257C100.347 16.1871 100.102 15.3558 99.5978 14.683C99.3549 14.4101 99.0534 14.1954 98.716 14.0553C98.3785 13.9151 98.0138 13.8529 97.649 13.8733H97.4785Z" fill="black"/>
<path d="M117.132 11.2754C117.17 11.2702 117.208 11.2738 117.244 11.2859C117.28 11.2979 117.313 11.3182 117.34 11.3451C117.367 11.372 117.387 11.4047 117.399 11.4407C117.411 11.4766 117.414 11.5149 117.409 11.5525V25.9063C117.414 25.9439 117.411 25.9822 117.399 26.0183C117.387 26.0543 117.367 26.0871 117.34 26.1139C117.313 26.1408 117.28 26.1609 117.244 26.1729C117.208 26.1849 117.17 26.1882 117.132 26.1828H114.024C113.947 26.1832 113.871 26.1638 113.804 26.1264C113.737 26.0891 113.68 26.035 113.64 25.9695L110.252 19.7299L108.656 16.3874H108.399L108.719 19.7299V25.9063C108.725 25.9439 108.721 25.9822 108.709 26.0183C108.698 26.0543 108.677 26.0871 108.65 26.1139C108.624 26.1408 108.591 26.1609 108.555 26.1729C108.519 26.1849 108.48 26.1882 108.443 26.1828H105.674C105.637 26.1882 105.598 26.1848 105.562 26.1729C105.526 26.1609 105.493 26.1407 105.467 26.1139C105.44 26.087 105.419 26.0543 105.407 26.0183C105.395 25.9823 105.392 25.9439 105.397 25.9063V11.5525C105.392 11.5149 105.395 11.4765 105.407 11.4404C105.419 11.4044 105.44 11.3716 105.467 11.3448C105.493 11.3179 105.526 11.2976 105.562 11.2856C105.598 11.2736 105.637 11.27 105.674 11.2754H108.783C108.86 11.2753 108.936 11.2949 109.003 11.3322C109.07 11.3696 109.126 11.4234 109.167 11.4887L112.383 17.4728L114.149 21.0728H114.405L114.085 17.4728V11.5525C114.08 11.515 114.084 11.4768 114.096 11.4409C114.108 11.4049 114.128 11.3722 114.154 11.3454C114.181 11.3185 114.214 11.2982 114.25 11.2861C114.285 11.274 114.324 11.2703 114.361 11.2754H117.132Z" fill="black"/>
<path d="M62.6705 28.725C62.7082 28.7198 62.7466 28.7233 62.7826 28.7353C62.8187 28.7474 62.8515 28.7676 62.8784 28.7945C62.9054 28.8213 62.9257 28.8541 62.9378 28.8901C62.9499 28.9262 62.9535 28.9645 62.9483 29.0022V43.3553C62.9538 43.393 62.9504 43.4315 62.9384 43.4677C62.9264 43.5039 62.9061 43.5368 62.8791 43.5637C62.8521 43.5906 62.8192 43.6109 62.783 43.6228C62.7468 43.6347 62.7083 43.638 62.6705 43.6325H59.9026C59.8649 43.6379 59.8265 43.6345 59.7904 43.6225C59.7543 43.6106 59.7215 43.5903 59.6946 43.5634C59.6677 43.5365 59.6474 43.5037 59.6354 43.4675C59.6234 43.4314 59.62 43.393 59.6255 43.3553V37.5002H54.3865V43.356C54.3919 43.3936 54.3885 43.4319 54.3766 43.468C54.3646 43.5041 54.3444 43.5369 54.3176 43.5638C54.2907 43.5907 54.258 43.6109 54.222 43.623C54.186 43.635 54.1476 43.6385 54.11 43.6331H51.3407C51.3031 43.6385 51.2648 43.635 51.2288 43.623C51.1927 43.6109 51.16 43.5907 51.1332 43.5638C51.1063 43.5369 51.0862 43.5041 51.0742 43.468C51.0622 43.4319 51.0588 43.3936 51.0643 43.356V29.0029C51.059 28.9653 51.0625 28.927 51.0745 28.891C51.0865 28.855 51.1067 28.8223 51.1335 28.7954C51.1603 28.7686 51.193 28.7483 51.2289 28.7362C51.2649 28.7241 51.3031 28.7205 51.3407 28.7258H54.11C54.1476 28.7205 54.1859 28.7241 54.2218 28.7362C54.2578 28.7483 54.2905 28.7686 54.3173 28.7954C54.3441 28.8223 54.3643 28.855 54.3763 28.891C54.3883 28.927 54.3918 28.9653 54.3865 29.0029V34.6039H59.6255V29.0029C59.6202 28.9652 59.6237 28.9269 59.6357 28.8908C59.6477 28.8548 59.668 28.822 59.6949 28.7952C59.7218 28.7683 59.7545 28.748 59.7906 28.736C59.8266 28.7239 59.865 28.7204 59.9026 28.7258L62.6705 28.725Z" fill="black"/>
<path d="M71.1292 28.4487C71.899 28.4469 72.6631 28.58 73.387 28.842C74.1011 29.0989 74.7539 29.5017 75.3038 30.0246C75.88 30.5831 76.3304 31.2581 76.6249 32.0046C76.9667 32.8866 77.1331 33.8268 77.1147 34.7725V37.5832C77.1332 38.5292 76.9668 39.4696 76.6249 40.3518C76.3306 41.0986 75.8802 41.7739 75.3038 42.3325C74.754 42.8555 74.1012 43.258 73.387 43.5144C72.6633 43.7769 71.899 43.9103 71.1292 43.9084H70.8099C70.0403 43.9102 69.2763 43.7769 68.5528 43.5144C67.8388 43.2581 67.1861 42.8555 66.6366 42.3325C66.0594 41.7747 65.6091 41.0992 65.3162 40.3518C64.9728 39.47 64.806 38.5294 64.8251 37.5832V34.7725C64.8062 33.8266 64.973 32.8862 65.3162 32.0046C65.6093 31.2575 66.0596 30.5823 66.6366 30.0246C67.1863 29.5016 67.8389 29.0989 68.5528 28.842C69.2764 28.5801 70.0404 28.447 70.8099 28.4487H71.1292ZM70.8948 31.3199C70.5299 31.2994 70.1651 31.3616 69.8275 31.5018C69.49 31.642 69.1884 31.8566 68.9454 32.1296C68.4416 32.8024 68.1962 33.6337 68.2539 34.4723V37.859C68.1964 38.6975 68.4417 39.5289 68.9454 40.2017C69.1884 40.4748 69.4899 40.6893 69.8275 40.8294C70.165 40.9695 70.5299 41.0315 70.8948 41.0107H71.0653C71.4301 41.0314 71.7948 40.9693 72.1323 40.8292C72.4697 40.6891 72.7712 40.4746 73.0141 40.2017C73.5177 39.5288 73.7631 38.6975 73.7056 37.859V34.4723C73.7633 33.6337 73.5179 32.8024 73.0141 32.1296C72.7711 31.8567 72.4696 31.6422 72.1322 31.502C71.7948 31.3618 71.4301 31.2996 71.0653 31.3199H70.8948Z" fill="black"/>
<path d="M87.6505 40.7579C87.6882 40.7524 87.7267 40.7558 87.7629 40.7679C87.7991 40.7799 87.832 40.8002 87.859 40.8272C87.8859 40.8541 87.9063 40.887 87.9183 40.9232C87.9303 40.9594 87.9338 40.9979 87.9283 41.0357V43.3567C87.9337 43.3943 87.9302 43.4328 87.9181 43.4689C87.906 43.5049 87.8857 43.5377 87.8587 43.5645C87.8317 43.5914 87.7989 43.6116 87.7627 43.6235C87.7266 43.6354 87.6881 43.6387 87.6505 43.6331H79.217C79.1794 43.6385 79.1412 43.635 79.1052 43.623C79.0693 43.611 79.0367 43.5908 79.0099 43.564C78.9831 43.5371 78.963 43.5044 78.9511 43.4684C78.9391 43.4325 78.9357 43.3942 78.9412 43.3567V29.0028C78.9358 28.9653 78.9392 28.927 78.9511 28.891C78.963 28.855 78.9831 28.8223 79.0099 28.7954C79.0366 28.7685 79.0693 28.7482 79.1052 28.7361C79.1411 28.724 79.1794 28.7205 79.217 28.7257H81.9863C82.0238 28.7205 82.0621 28.7241 82.0981 28.7362C82.134 28.7483 82.1667 28.7686 82.1935 28.7954C82.2203 28.8223 82.2405 28.855 82.2525 28.891C82.2645 28.927 82.268 28.9653 82.2627 29.0028V40.7585L87.6505 40.7579Z" fill="black"/>
<path d="M95.1704 28.704C95.9651 28.699 96.7546 28.8323 97.5036 29.098C98.2211 29.3524 98.8748 29.7593 99.4198 30.2907C99.9912 30.8613 100.434 31.5475 100.718 32.3033C101.057 33.223 101.22 34.1985 101.198 35.1785V37.1586C101.219 38.1419 101.056 39.1205 100.718 40.044C100.435 40.8039 99.9928 41.494 99.4198 42.0675C98.876 42.5978 98.2217 43.0014 97.5036 43.2494C96.7532 43.5081 95.9643 43.6379 95.1704 43.6331H90.0177C89.98 43.6385 89.9417 43.6349 89.9057 43.6229C89.8696 43.6108 89.8369 43.5906 89.81 43.5637C89.7831 43.5368 89.7628 43.5041 89.7508 43.468C89.7387 43.432 89.7353 43.3936 89.7406 43.356V29.0035C89.7353 28.9659 89.7387 28.9276 89.7508 28.8915C89.7628 28.8555 89.7831 28.8227 89.81 28.7958C89.8369 28.7689 89.8696 28.7487 89.9057 28.7366C89.9417 28.7246 89.98 28.7211 90.0177 28.7264L95.1704 28.704ZM97.8324 35.1568C97.9121 34.1913 97.6474 33.2288 97.0853 32.4398C96.7855 32.1339 96.422 31.8979 96.0205 31.7487C95.6191 31.5994 95.1897 31.5407 94.7629 31.5765H93.06V40.7137H94.769C95.1958 40.7497 95.6254 40.6909 96.0268 40.5415C96.4283 40.3921 96.7918 40.1559 97.0913 39.8497C97.6539 39.0609 97.9187 38.0983 97.8385 37.1327L97.8324 35.1568Z" fill="black"/>
<path d="M103.463 28.7258H106.216C106.292 28.7258 106.364 28.7558 106.418 28.8092C106.471 28.8626 106.501 28.935 106.501 29.0104V43.35C106.501 43.4253 106.471 43.4975 106.418 43.5507C106.364 43.604 106.292 43.6339 106.217 43.6339H103.463C103.387 43.6339 103.315 43.604 103.262 43.5507C103.209 43.4975 103.179 43.4253 103.179 43.35V29.0104C103.179 28.935 103.209 28.8626 103.262 28.8092C103.315 28.7558 103.388 28.7258 103.463 28.7258Z" fill="black"/>
<path d="M120.447 28.725C120.485 28.7198 120.523 28.7234 120.559 28.7355C120.595 28.7476 120.628 28.7678 120.654 28.7947C120.681 28.8216 120.701 28.8543 120.713 28.8903C120.725 28.9263 120.729 28.9645 120.724 29.0021V43.3552C120.729 43.3929 120.726 43.4313 120.714 43.4674C120.702 43.5035 120.682 43.5364 120.655 43.5633C120.628 43.5902 120.595 43.6105 120.559 43.6225C120.523 43.6345 120.485 43.6379 120.447 43.6324H117.338C117.261 43.6328 117.185 43.6135 117.118 43.5761C117.051 43.5388 116.994 43.4847 116.954 43.4191L113.567 37.1796L111.97 33.8363H111.713L112.033 37.1796V43.3552C112.039 43.3929 112.036 43.4313 112.024 43.4674C112.012 43.5035 111.992 43.5364 111.965 43.5633C111.938 43.5902 111.905 43.6105 111.869 43.6225C111.833 43.6345 111.795 43.6379 111.757 43.6324H108.988C108.951 43.6379 108.912 43.6345 108.876 43.6225C108.84 43.6105 108.807 43.5902 108.78 43.5633C108.754 43.5364 108.733 43.5035 108.721 43.4674C108.71 43.4313 108.706 43.3929 108.712 43.3552V29.0028C108.707 28.9652 108.71 28.9269 108.722 28.8909C108.734 28.8549 108.754 28.8222 108.781 28.7954C108.808 28.7685 108.841 28.7482 108.877 28.7361C108.912 28.724 108.951 28.7205 108.988 28.7257H112.098C112.175 28.7255 112.25 28.745 112.318 28.7824C112.385 28.8197 112.441 28.8736 112.482 28.9389L115.697 34.9231L117.463 38.5231H117.72L117.401 34.9231V29.0028C117.396 28.9653 117.399 28.9271 117.411 28.8911C117.423 28.8552 117.443 28.8225 117.47 28.7957C117.496 28.7689 117.529 28.7486 117.565 28.7364C117.601 28.7243 117.639 28.7206 117.677 28.7257L120.447 28.725Z" fill="black"/>
<path d="M129.762 28.4269C130.433 28.4225 131.102 28.5015 131.753 28.662C132.215 28.7615 132.662 28.9188 133.084 29.13C133.154 29.1717 133.215 29.226 133.265 29.2903C133.321 29.3753 133.348 29.4766 133.341 29.5783V31.8137C133.341 31.8484 133.333 31.8827 133.318 31.914C133.304 31.9454 133.282 31.9731 133.255 31.995C133.222 32.0206 133.183 32.0371 133.142 32.0427C133.101 32.0483 133.059 32.0429 133.021 32.0269C132.694 31.8992 132.41 31.7894 132.169 31.6975C131.928 31.6044 131.704 31.5304 131.498 31.4733C131.292 31.4171 131.082 31.3781 130.869 31.3565C130.621 31.3333 130.372 31.3227 130.122 31.3246H130.016C129.496 31.3183 128.98 31.4086 128.493 31.5909C128.045 31.7587 127.638 32.0201 127.299 32.3577C126.956 32.707 126.688 33.1232 126.512 33.5804C126.313 34.1037 126.215 34.6602 126.224 35.2201V37.1165C126.16 38.1421 126.454 39.158 127.054 39.9918C127.363 40.3425 127.748 40.6171 128.18 40.7938C128.613 40.9706 129.08 41.0448 129.546 41.0106H129.653C129.835 41.0099 130.017 40.9919 130.196 40.957C130.367 40.9279 130.535 40.8824 130.698 40.8211V36.2627C130.692 36.2252 130.696 36.1869 130.708 36.1509C130.72 36.115 130.74 36.0823 130.767 36.0555C130.794 36.0287 130.826 36.0084 130.862 35.9964C130.898 35.9844 130.937 35.9809 130.974 35.9863H133.657C133.695 35.981 133.733 35.9845 133.769 35.9965C133.805 36.0085 133.838 36.0287 133.865 36.0555C133.891 36.0823 133.912 36.1149 133.924 36.1509C133.936 36.1869 133.939 36.2251 133.934 36.2627V42.162C133.942 42.2714 133.922 42.381 133.878 42.4812C133.833 42.5814 133.765 42.6691 133.678 42.7366C133.469 42.8825 133.248 43.011 133.018 43.121C132.699 43.2764 132.368 43.4048 132.028 43.5048C131.636 43.6219 131.238 43.7178 130.836 43.7922C130.424 43.8694 130.007 43.9085 129.588 43.909H129.29C128.451 43.9108 127.618 43.7627 126.831 43.4715C126.057 43.1895 125.35 42.7501 124.754 42.181C124.135 41.5799 123.646 40.8584 123.317 40.061C122.938 39.1321 122.754 38.1357 122.774 37.1328V35.216C122.754 34.2123 122.942 33.2155 123.327 32.2884C123.667 31.4862 124.171 30.7642 124.807 30.1692C125.424 29.6014 126.149 29.1627 126.938 28.8787C127.733 28.5892 128.573 28.4416 129.419 28.4426L129.762 28.4269Z" fill="black"/>
<path d="M46.7844 38.8697C47.2494 39.3349 47.5387 39.9471 47.6029 40.6017C47.6672 41.2564 47.5025 41.9131 47.1369 42.4599C46.7712 43.0067 46.2274 43.4099 45.5978 43.6007C44.9683 43.7914 44.2921 43.758 43.6844 43.5061C43.0767 43.2542 42.5752 42.7994 42.2653 42.2192C41.9553 41.639 41.8562 40.9693 41.9846 40.3242C42.1131 39.679 42.4613 39.0984 42.9699 38.6812C43.4785 38.264 44.116 38.0361 44.7738 38.0362C45.1481 38.0304 45.5196 38.1013 45.8654 38.2446C46.2112 38.388 46.524 38.6007 46.7844 38.8697ZM46.3843 42.5274C46.8074 42.0839 47.0435 41.4945 47.0435 40.8816C47.0435 40.2686 46.8074 39.6792 46.3843 39.2358C46.1729 39.0226 45.9214 38.8535 45.6443 38.738C45.3671 38.6226 45.0699 38.5632 44.7697 38.5632C44.4695 38.5632 44.1723 38.6226 43.8952 38.738C43.6181 38.8535 43.3666 39.0226 43.1552 39.2358C42.7319 39.6792 42.4957 40.2686 42.4957 40.8816C42.4957 41.4946 42.7319 42.084 43.1552 42.5274C43.3668 42.74 43.6184 42.9088 43.8955 43.0239C44.1726 43.139 44.4697 43.1983 44.7697 43.1983C45.0698 43.1983 45.3668 43.139 45.6439 43.0239C45.921 42.9088 46.1726 42.74 46.3843 42.5274ZM46.0066 42.4133H45.3709L44.7425 41.1954H44.3499V42.4133H43.7848V39.3411H44.9396C45.0705 39.3367 45.201 39.3587 45.3232 39.406C45.4454 39.4533 45.5568 39.5247 45.6507 39.6161C45.7406 39.7021 45.8117 39.8058 45.8596 39.9206C45.9075 40.0353 45.9312 40.1588 45.9292 40.2832C45.9346 40.4714 45.8751 40.6558 45.7607 40.8055C45.6486 40.9497 45.4968 41.058 45.324 41.1173L46.0066 42.4133ZM45.2296 40.6133C45.2743 40.5708 45.3099 40.5196 45.3342 40.4629C45.3585 40.4062 45.371 40.3452 45.371 40.2835C45.371 40.2218 45.3585 40.1608 45.3342 40.1041C45.3099 40.0474 45.2743 39.9962 45.2296 39.9537C45.1319 39.8624 45.0019 39.8136 44.8682 39.8179H44.3493V40.7457H44.8682C45.0019 40.7501 45.1319 40.7012 45.2296 40.6099" fill="black"/>
<path d="M12.4119 38.2678L9.32263 43.6135H31.8532L28.7606 38.2678H12.4119Z" fill="black"/>
<path d="M19.8098 22.7831L24.4708 14.7191L20.5855 8L0.000976562 43.6135H7.76885L16.2655 28.9153H23.3541L19.8098 22.7831Z" fill="black"/>
<path d="M25.2476 16.064L21.3684 22.7837L25.683 30.2514H17.0498L13.1876 36.9324H29.5452L33.4101 43.6135H41.1759L25.2476 16.064Z" fill="black"/>
</g>
<defs>
<clipPath id="clip0_424_173">
<rect width="134" height="53" fill="white"/>
</clipPath>
</defs>
</svg>
