<svg id="Layer_1" version="1.1" viewBox="0 0 64 64" xml:space="preserve" xmlns="http://www.w3.org/2000/svg" xmlns:xlink="http://www.w3.org/1999/xlink"><g fill="currentColor"><path d="M-264.2-339.9c-4.4 0-7.9-3.5-7.9-7.9s3.5-7.9 7.9-7.9 7.9 3.5 7.9 7.9c0 4.3-3.5 7.9-7.9 7.9zm0-12.9c-2.7 0-4.9 2.2-4.9 4.9s2.2 4.9 4.9 4.9 4.9-2.2 4.9-4.9c0-2.6-2.2-4.9-4.9-4.9zm32.1-3.2c-4.4 0-7.9-3.5-7.9-7.9s3.5-7.9 7.9-7.9 7.9 3.5 7.9 7.9-3.6 7.9-7.9 7.9zm0-12.8c-2.7 0-4.9 2.2-4.9 4.9s2.2 4.9 4.9 4.9 4.9-2.2 4.9-4.9-2.2-4.9-4.9-4.9zm0 44.9c-4.4 0-7.9-3.5-7.9-7.9s3.5-7.9 7.9-7.9 7.9 3.5 7.9 7.9-3.6 7.9-7.9 7.9zm0-12.8c-2.7 0-4.9 2.2-4.9 4.9s2.2 4.9 4.9 4.9 4.9-2.2 4.9-4.9-2.2-4.9-4.9-4.9z" transform="translate(280 380)"/><path d="M-238.6-333.2l-20.6-10.3 1.4-2.9 20.7 10.3-1.5 2.9m-19.2-16.1l-1.4-2.8 20.6-10.3 1.5 2.8-20.7 10.3" transform="translate(280 380)"/></g></svg>