<svg width="30" height="28" viewBox="0 0 30 28" fill="none" xmlns="http://www.w3.org/2000/svg"><path d="M24.01 12.914c2.21 0 3.872-.92 5.097-2.522l-1.638-1.25a4.323 4.323 0 01-3.458 1.71c-2.397 0-4.134-1.952-4.134-4.348s1.709-4.458 4.202-4.458c1.108 0 1.892.261 2.575.685v2.106h2.062V1.766l-.395-.311C27.187.563 25.457.09 24.01.09a6.42 6.42 0 00-6.413 6.413 6.42 6.42 0 006.414 6.411zm4.278 12.65l-.073-2.953v-7.205h-4.3v2.063h2.128v4.888c0 2.106-1.608 3.597-3.23 3.597-1.623 0-2.47-1.125-2.47-3.23v-7.318h-4.016v2.062h1.845v5.613c0 2.857 1.601 4.826 4.458 4.826 1.642 0 2.892-.911 3.637-2.316h.034l.294 1.964h3.304v-1.988h-1.608v-.005l-.003.002zM17.122.392h-3.584l-3.116 9.05h-.049l-3.1-9.05H3.455v2.064h2.147L9.298 12.77h1.964v-.003l3.854-10.311h2.004V.393h.002zM.102 27.582h2.123v-2.123H.102v2.122zm8.2-9.784h-.024l-.133-2.391h-3.79v1.88h2.017v8.278H4.355v1.989h9.367v-1.95H8.507v-4.996c.235-1.808 1.591-3.352 3.441-3.352h.034l-.038 1.848h2.062v-3.732h-1.63c-1.867-.005-3.252 1.005-4.075 2.427z" fill="currentColor"/></svg>