<svg width="187" height="49" viewBox="0 0 187 49" fill="none" xmlns="http://www.w3.org/2000/svg">
<path d="M173.271 18.7216V1.39929H180.696C182.668 1.39929 184.165 1.84083 185.185 2.72393C186.222 3.60702 186.741 5.00809 186.741 6.92711C186.741 8.77822 186.222 10.1793 185.185 11.1303C184.148 12.0813 182.643 12.5568 180.669 12.5568H176.384V18.7216H173.271ZM176.384 9.83113H180.415C181.537 9.83113 182.354 9.59338 182.864 9.11787C183.373 8.62538 183.629 7.91211 183.629 6.97806C183.629 6.01006 183.373 5.29679 182.864 4.83826C182.354 4.36275 181.537 4.12499 180.415 4.12499H176.384V9.83113Z" fill="white"/>
<path d="M162.698 18.9764C161.439 18.9764 160.282 18.7895 159.228 18.4159C158.191 18.0253 157.298 17.4565 156.55 16.7091C155.801 15.962 155.215 15.0364 154.789 13.9326C154.382 12.8117 154.178 11.521 154.178 10.0605C154.178 8.63396 154.382 7.36028 154.789 6.23942C155.215 5.11857 155.801 4.18453 156.55 3.4373C157.298 2.69006 158.191 2.12115 159.228 1.73055C160.282 1.33995 161.439 1.14465 162.698 1.14465C163.973 1.14465 165.139 1.33995 166.193 1.73055C167.248 2.12115 168.14 2.69006 168.871 3.4373C169.62 4.18453 170.199 5.11857 170.606 6.23942C171.032 7.36028 171.244 8.63396 171.244 10.0605C171.244 11.521 171.032 12.8117 170.606 13.9326C170.199 15.0364 169.62 15.962 168.871 16.7091C168.14 17.4565 167.248 18.0253 166.193 18.4159C165.139 18.7895 163.973 18.9764 162.698 18.9764ZM162.698 16.1997C164.416 16.1997 165.743 15.6477 166.678 14.5439C167.613 13.4231 168.081 11.9286 168.081 10.0605C168.081 8.17544 167.613 6.68097 166.678 5.5771C165.743 4.47324 164.416 3.9213 162.698 3.9213C160.997 3.9213 159.671 4.47324 158.719 5.5771C157.782 6.68097 157.316 8.17544 157.316 10.0605C157.316 11.9286 157.782 13.4231 158.719 14.5439C159.671 15.6477 160.997 16.1997 162.698 16.1997Z" fill="white"/>
<path d="M139.451 18.7215V1.39929H151.85V4.20142H142.564V8.3027H146.926C148.917 8.3027 150.413 8.7018 151.417 9.49997C152.436 10.2982 152.947 11.6313 152.947 13.4993C152.947 15.2995 152.436 16.6242 151.417 17.4732C150.413 18.3054 148.925 18.7215 146.951 18.7215H139.451ZM146.748 11.0029H142.564V15.9958H146.748C147.836 15.9958 148.618 15.8005 149.094 15.4099C149.588 15.0193 149.834 14.391 149.834 13.5249C149.834 12.6417 149.588 12.0049 149.094 11.6143C148.618 11.2067 147.836 11.0029 146.748 11.0029Z" fill="white"/>
<path d="M133.558 18.7215V5.577L124.834 18.7215H121.543V1.39929H124.63V14.4418L133.227 1.39929H136.646V18.7215H133.558Z" fill="white"/>
<path d="M106.328 18.7215V1.39929H113.752C115.725 1.39929 117.221 1.84083 118.242 2.72393C119.279 3.60702 119.798 5.00809 119.798 6.92711C119.798 8.77821 119.279 10.1793 118.242 11.1303C117.204 12.0813 115.699 12.5568 113.726 12.5568H109.44V18.7215H106.328ZM109.44 9.83113H113.471C114.594 9.83113 115.41 9.59338 115.92 9.11786C116.43 8.62537 116.686 7.91211 116.686 6.97806C116.686 6.01006 116.43 5.29679 115.92 4.83826C115.41 4.36275 114.594 4.12499 113.471 4.12499H109.44V9.83113Z" fill="white"/>
<path d="M88.916 18.7215V1.39929H103.508V18.7215H100.396V4.30331H92.0283V18.7215H88.916Z" fill="white"/>
<path d="M75.4502 6.26479C75.4502 7.43659 75.7649 8.28573 76.3941 8.81218C77.0234 9.33864 78.0013 9.60186 79.3278 9.60186C80.0081 9.61886 80.6289 9.59338 81.1901 9.52545C81.7684 9.45751 82.3466 9.36411 82.9249 9.24524V1.42477H86.0372V18.747H82.9249V11.9709C82.3806 12.0898 81.7428 12.2002 81.0115 12.3021C80.2972 12.387 79.5404 12.4295 78.7411 12.4295C76.5812 12.4295 74.9741 11.9709 73.9196 11.0539C72.8651 10.1198 72.3379 8.64235 72.3379 6.62143V1.39929H75.4502V6.26479Z" fill="#D70408"/>
<path d="M62.4249 18.9764C61.1664 18.9764 60.0099 18.7895 58.9554 18.4159C57.918 18.0253 57.0251 17.4565 56.2768 16.7091C55.5285 15.962 54.9418 15.0364 54.5166 13.9326C54.1084 12.8117 53.9043 11.521 53.9043 10.0605C53.9043 8.63396 54.1084 7.36028 54.5166 6.23942C54.9418 5.11857 55.5285 4.18453 56.2768 3.4373C57.0251 2.69006 57.918 2.12115 58.9554 1.73055C60.0099 1.33995 61.1664 1.14465 62.4249 1.14465C63.7004 1.14465 64.8654 1.33995 65.9199 1.73055C66.9743 2.12115 67.8672 2.69006 68.5985 3.4373C69.3468 4.18453 69.925 5.11857 70.3332 6.23942C70.7584 7.36028 70.971 8.63396 70.971 10.0605C70.971 11.521 70.7584 12.8117 70.3332 13.9326C69.925 15.0364 69.3468 15.962 68.5985 16.7091C67.8672 17.4565 66.9743 18.0253 65.9199 18.4159C64.8654 18.7895 63.7004 18.9764 62.4249 18.9764ZM62.4249 16.1997C64.1426 16.1997 65.4691 15.6477 66.4045 14.5439C67.3399 13.4231 67.8077 11.9286 67.8077 10.0605C67.8077 8.17544 67.3399 6.68097 66.4045 5.5771C65.4691 4.47324 64.1426 3.9213 62.4249 3.9213C60.7242 3.9213 59.3976 4.47324 58.4452 5.5771C57.5098 6.68097 57.0422 8.17544 57.0422 10.0605C57.0422 11.9286 57.5098 13.4231 58.4452 14.5439C59.3976 15.6477 60.7242 16.1997 62.4249 16.1997Z" fill="#D70408"/>
<path d="M38.5957 4.30331V1.39929H53.9786V4.30331H47.8561V18.7216H44.7438V4.30331H38.5957Z" fill="#D70408"/>
<path d="M117.797 44.0988C117.797 44.565 117.739 45.01 117.624 45.4338C117.509 45.8575 117.351 46.248 117.151 46.6051C116.957 46.9684 116.724 47.3013 116.451 47.6041C116.184 47.9068 115.899 48.1731 115.596 48.4032L115.068 47.7312C115.299 47.5315 115.517 47.3013 115.723 47.0411C115.935 46.7868 116.117 46.5083 116.269 46.2056C116.42 45.8969 116.539 45.5669 116.624 45.2158C116.714 44.8586 116.76 44.4862 116.76 44.0988C116.76 43.3238 116.614 42.6216 116.323 41.992C116.032 41.3624 115.623 40.8327 115.096 40.4028L115.614 39.7217C115.929 39.9517 116.22 40.2212 116.487 40.5299C116.754 40.8327 116.984 41.1686 117.178 41.5379C117.372 41.9072 117.524 42.3068 117.633 42.7366C117.742 43.1665 117.797 43.6205 117.797 44.0988Z" fill="white"/>
<path d="M109.006 46.5053V40.3302H114.208V46.5053H113.098V41.3654H110.115V46.5053H109.006Z" fill="white"/>
<path d="M106.635 46.5053V41.8194L103.525 46.5053H102.352V40.3302H103.452V44.9796L106.517 40.3302H107.735V46.5053H106.635Z" fill="white"/>
<path d="M98.8951 41.2292C98.4524 41.2292 98.1069 41.3321 97.8583 41.5379C97.6097 41.7377 97.44 42.0101 97.349 42.3553L96.2578 42.1645C96.379 41.5652 96.6609 41.096 97.1035 40.7569C97.5522 40.4119 98.1494 40.2394 98.8951 40.2394C99.6105 40.2394 100.177 40.3908 100.596 40.6934C101.02 40.99 101.232 41.429 101.232 42.0101C101.232 42.3553 101.147 42.6428 100.978 42.8728C100.814 43.103 100.568 43.2664 100.241 43.3632C100.593 43.454 100.866 43.6144 101.06 43.8446C101.253 44.0685 101.351 44.3713 101.351 44.7527C101.351 45.3217 101.141 45.7728 100.723 46.1057C100.305 46.4326 99.6893 46.5961 98.8768 46.5961C98.0947 46.5961 97.4763 46.4326 97.0217 46.1057C96.5669 45.7728 96.2941 45.2855 96.2031 44.6437L97.2945 44.4711C97.3551 44.8283 97.5158 45.1068 97.7764 45.3066C98.0372 45.5064 98.404 45.6062 98.8768 45.6062C99.3316 45.6062 99.6711 45.5245 99.8954 45.3611C100.12 45.1977 100.232 44.9676 100.232 44.671C100.232 44.4045 100.135 44.2018 99.9409 44.0624C99.7529 43.9233 99.4559 43.8536 99.0496 43.8536H98.1221V42.9092H99.0588C99.4407 42.9092 99.7135 42.8396 99.8772 42.7004C100.041 42.5611 100.123 42.3643 100.123 42.11C100.123 41.8376 100.017 41.6226 99.8045 41.4653C99.5983 41.3078 99.2952 41.2292 98.8951 41.2292Z" fill="white"/>
<path d="M92.9238 44.0261C92.9238 43.5478 92.9814 43.0969 93.0966 42.6731C93.2118 42.2493 93.3664 41.8587 93.5604 41.5016C93.7544 41.1444 93.9848 40.8174 94.2515 40.5208C94.5243 40.2182 94.8154 39.9517 95.1246 39.7217L95.652 40.3936C95.4156 40.5874 95.1913 40.8144 94.9791 41.0747C94.773 41.329 94.5941 41.6075 94.4425 41.9103C94.2909 42.2129 94.1697 42.5429 94.0787 42.9001C93.9938 43.2572 93.9514 43.6325 93.9514 44.0261C93.9514 44.7829 94.0999 45.4821 94.397 46.1239C94.7002 46.7595 95.1095 47.2954 95.6248 47.7312L95.1064 48.4032C94.7912 48.1731 94.5002 47.9038 94.2334 47.5949C93.9666 47.2862 93.7363 46.9472 93.5423 46.5778C93.3482 46.2086 93.1966 45.8091 93.0875 45.3792C92.9783 44.9493 92.9238 44.4984 92.9238 44.0261Z" fill="white"/>
<path d="M85.5918 46.5053V40.3302H88.311C88.9537 40.3302 89.4417 40.4724 89.7752 40.757C90.1087 41.0415 90.2754 41.4502 90.2754 41.983C90.2754 42.2917 90.2056 42.5732 90.0663 42.8275C89.9267 43.0757 89.6994 43.2543 89.3842 43.3633C89.7358 43.4481 89.9996 43.6176 90.1753 43.8718C90.3511 44.12 90.4391 44.4228 90.4391 44.7799C90.4391 45.3429 90.2542 45.7728 89.8843 46.0694C89.5205 46.36 88.9992 46.5053 88.3201 46.5053H85.5918ZM88.1565 41.2746H86.6923V42.9273H88.1565C88.5323 42.9273 88.796 42.8548 88.9476 42.7094C89.1053 42.5581 89.184 42.3522 89.184 42.092C89.184 41.8194 89.1083 41.6166 88.9567 41.4834C88.8112 41.3442 88.5444 41.2746 88.1565 41.2746ZM88.1837 43.8446H86.6923V45.5609H88.1837C88.5838 45.5609 88.8749 45.4912 89.0567 45.352C89.2447 45.2068 89.3387 44.9949 89.3387 44.7164C89.3387 44.4197 89.2477 44.2017 89.0659 44.0625C88.89 43.9171 88.596 43.8446 88.1837 43.8446Z" fill="white"/>
<path d="M81.5492 46.5961C81.1005 46.5961 80.6882 46.5295 80.3124 46.3963C79.9426 46.2571 79.6243 46.0542 79.3575 45.7879C79.0908 45.5214 78.8816 45.1916 78.73 44.7981C78.5845 44.3984 78.5117 43.9384 78.5117 43.4178C78.5117 42.9092 78.5845 42.4551 78.73 42.0556C78.8816 41.656 79.0908 41.3231 79.3575 41.0566C79.6243 40.7903 79.9426 40.5874 80.3124 40.4482C80.6882 40.3089 81.1005 40.2394 81.5492 40.2394C82.0038 40.2394 82.4192 40.3089 82.7951 40.4482C83.1709 40.5874 83.4892 40.7903 83.75 41.0566C84.0168 41.3231 84.2229 41.656 84.3684 42.0556C84.52 42.4551 84.5957 42.9092 84.5957 43.4178C84.5957 43.9384 84.52 44.3984 84.3684 44.7981C84.2229 45.1916 84.0168 45.5214 83.75 45.7879C83.4892 46.0542 83.1709 46.2571 82.7951 46.3963C82.4192 46.5295 82.0038 46.5961 81.5492 46.5961ZM81.5492 45.6062C82.1615 45.6062 82.6345 45.4095 82.9679 45.016C83.3013 44.6164 83.468 44.0836 83.468 43.4178C83.468 42.7457 83.3013 42.213 82.9679 41.8194C82.6345 41.426 82.1615 41.2292 81.5492 41.2292C80.9428 41.2292 80.47 41.426 80.1305 41.8194C79.797 42.213 79.6303 42.7457 79.6303 43.4178C79.6303 44.0836 79.797 44.6164 80.1305 45.016C80.47 45.4095 80.9428 45.6062 81.5492 45.6062Z" fill="white"/>
<path d="M73.0781 46.5053V40.3302H75.7245C76.4278 40.3302 76.9614 40.4875 77.3251 40.8023C77.6949 41.1172 77.8799 41.6166 77.8799 42.3008C77.8799 42.9607 77.6949 43.4601 77.3251 43.7991C76.9553 44.1382 76.4188 44.3077 75.7155 44.3077H74.1877V46.5053H73.0781ZM74.1877 43.336H75.6245C76.0246 43.336 76.3156 43.2513 76.4976 43.0818C76.6794 42.9061 76.7704 42.6519 76.7704 42.3189C76.7704 41.9738 76.6794 41.7196 76.4976 41.5561C76.3156 41.3866 76.0246 41.3019 75.6245 41.3019H74.1877V43.336Z" fill="white"/>
<path d="M69.0354 46.5961C68.5869 46.5961 68.1745 46.5295 67.7987 46.3963C67.4288 46.2571 67.1105 46.0542 66.8438 45.7879C66.5769 45.5214 66.3678 45.1916 66.2162 44.7981C66.0707 44.3984 65.998 43.9384 65.998 43.4178C65.998 42.9092 66.0707 42.4551 66.2162 42.0556C66.3678 41.656 66.5769 41.3231 66.8438 41.0566C67.1105 40.7903 67.4288 40.5874 67.7987 40.4482C68.1745 40.3089 68.5869 40.2394 69.0354 40.2394C69.4902 40.2394 69.9054 40.3089 70.2814 40.4482C70.6573 40.5874 70.9756 40.7903 71.2363 41.0566C71.503 41.3231 71.7091 41.656 71.8547 42.0556C72.0062 42.4551 72.082 42.9092 72.082 43.4178C72.082 43.9384 72.0062 44.3984 71.8547 44.7981C71.7091 45.1916 71.503 45.5214 71.2363 45.7879C70.9756 46.0542 70.6573 46.2571 70.2814 46.3963C69.9054 46.5295 69.4902 46.5961 69.0354 46.5961ZM69.0354 45.6062C69.6479 45.6062 70.1207 45.4095 70.4542 45.016C70.7876 44.6164 70.9543 44.0836 70.9543 43.4178C70.9543 42.7457 70.7876 42.213 70.4542 41.8194C70.1207 41.426 69.6479 41.2292 69.0354 41.2292C68.4292 41.2292 67.9562 41.426 67.6167 41.8194C67.2833 42.213 67.1166 42.7457 67.1166 43.4178C67.1166 44.0836 67.2833 44.6164 67.6167 45.016C67.9562 45.4095 68.4292 45.6062 69.0354 45.6062Z" fill="white"/>
<path d="M60.4746 46.5053V40.3302H64.8944V41.3291H61.5841V42.7912H63.1392C63.8486 42.7912 64.3821 42.9334 64.7398 43.2179C65.1036 43.5025 65.2854 43.9778 65.2854 44.6437C65.2854 45.2854 65.1036 45.7577 64.7398 46.0603C64.3821 46.3569 63.8516 46.5053 63.1483 46.5053H60.4746ZM63.0755 43.7537H61.5841V45.5336H63.0755C63.4636 45.5336 63.7425 45.4639 63.9122 45.3248C64.0881 45.1856 64.1759 44.9615 64.1759 44.6528C64.1759 44.338 64.0881 44.1109 63.9122 43.9717C63.7425 43.8264 63.4636 43.7537 63.0755 43.7537Z" fill="white"/>
<path d="M58.1037 46.5053V41.8194L54.9935 46.5053H53.8203V40.3302H54.9207V44.9796L57.9855 40.3302H59.2041V46.5053H58.1037Z" fill="white"/>
<path d="M48.1211 46.5053V40.3301H50.7675C51.4708 40.3301 52.0043 40.4875 52.3681 40.8023C52.7379 41.1171 52.9229 41.6167 52.9229 42.3007C52.9229 42.9606 52.7379 43.4601 52.3681 43.7991C51.9982 44.1382 51.4616 44.3077 50.7585 44.3077H49.2306V46.5053H48.1211ZM49.2306 43.336H50.6675C51.0676 43.336 51.3586 43.2513 51.5405 43.0818C51.7224 42.9062 51.8133 42.6519 51.8133 42.3189C51.8133 41.9738 51.7224 41.7196 51.5405 41.5561C51.3586 41.3866 51.0676 41.3019 50.6675 41.3019H49.2306V43.336Z" fill="white"/>
<path d="M41.6426 46.5053V40.3302H46.8445V46.5053H45.735V41.3654H42.752V46.5053H41.6426Z" fill="white"/>
<path d="M154.137 37.235L152.536 34.874L150.972 37.235H149.645L151.863 34.0385L149.735 31.0599H151.099L152.618 33.2757L154.082 31.0599H155.41L153.29 34.1293L155.501 37.235H154.137Z" fill="white"/>
<path d="M147.864 37.235V31.0599H148.974V37.235H147.864ZM144.836 37.235H142.271V31.0599H143.382V33.2757H144.872C145.57 33.2757 146.103 33.4362 146.473 33.7569C146.843 34.0718 147.027 34.5713 147.027 35.2554C147.027 35.9031 146.84 36.3966 146.464 36.7356C146.094 37.0685 145.551 37.235 144.836 37.235ZM144.763 36.2543C145.169 36.2543 145.464 36.1725 145.645 36.0091C145.827 35.8396 145.919 35.5853 145.919 35.2463C145.919 34.9194 145.827 34.6741 145.645 34.5107C145.47 34.3412 145.181 34.2565 144.782 34.2565H143.382V36.2543H144.763Z" fill="white"/>
<path d="M135.768 37.235V31.0598H136.876V33.6117H139.887V31.0598H140.997V37.235H139.887V34.6379H136.876V37.235H135.768Z" fill="white"/>
<path d="M130.006 31.0599H131.115V33.2757H132.661C133.358 33.2757 133.892 33.4362 134.262 33.7569C134.632 34.0718 134.817 34.5713 134.817 35.2554C134.817 35.9031 134.629 36.3966 134.252 36.7356C133.884 37.0685 133.34 37.235 132.625 37.235H130.006V31.0599ZM132.552 36.2543C132.958 36.2543 133.252 36.1725 133.434 36.0091C133.616 35.8396 133.707 35.5853 133.707 35.2463C133.707 34.9194 133.616 34.6741 133.434 34.5107C133.259 34.3412 132.967 34.2565 132.561 34.2565H131.115V36.2543H132.552Z" fill="white"/>
<path d="M124.236 35.1191C124.242 34.877 124.248 34.5955 124.254 34.2746C124.26 33.9476 124.263 33.6057 124.263 33.2484C124.27 32.8912 124.273 32.525 124.273 32.1496C124.279 31.7682 124.282 31.4049 124.282 31.0599H128.738V37.235H127.628V32.0952H125.364C125.364 32.3433 125.361 32.6098 125.355 32.8943C125.355 33.1728 125.352 33.4543 125.346 33.7388C125.346 34.0173 125.343 34.2897 125.337 34.5562C125.331 34.8164 125.324 35.0525 125.318 35.2644C125.294 35.9789 125.137 36.4874 124.846 36.79C124.555 37.0867 124.103 37.235 123.491 37.235H123.018V36.1816H123.327C123.594 36.1816 123.809 36.112 123.972 35.9728C124.136 35.8335 124.224 35.549 124.236 35.1191Z" fill="white"/>
<path d="M118.125 37.235V31.0598H122.536V32.0406H119.235V33.6479H122.408V34.6015H119.235V36.2542H122.508V37.235H118.125Z" fill="white"/>
<path d="M111.916 32.0952V31.0599H117.4V32.0952H115.217V37.235H114.108V32.0952H111.916Z" fill="white"/>
<path d="M110.109 31.0599L112.447 37.235H111.264L110.692 35.6731H108.072L107.518 37.235H106.354L108.673 31.0599H110.109ZM108.436 34.6742H110.328L109.373 32.0497L108.436 34.6742Z" fill="white"/>
<path d="M101.4 32.0952V31.0598H106.884V32.0952H104.702V37.235H103.592V32.0952H101.4Z" fill="white"/>
<path d="M99.5499 37.235V31.0599H100.659V37.235H99.5499ZM96.5216 37.235H93.957V31.0599H95.0666V33.2757H96.5579C97.2551 33.2757 97.7887 33.4362 98.1586 33.7569C98.5283 34.0718 98.7133 34.5713 98.7133 35.2554C98.7133 35.9031 98.5254 36.3966 98.1494 36.7356C97.7797 37.0685 97.237 37.235 96.5216 37.235ZM96.4488 36.2543C96.855 36.2543 97.149 36.1725 97.331 36.0091C97.5128 35.8396 97.6038 35.5853 97.6038 35.2463C97.6038 34.9194 97.5128 34.6741 97.331 34.5107C97.1551 34.3412 96.8672 34.2565 96.4671 34.2565H95.0666V36.2543H96.4488Z" fill="white"/>
<path d="M87.4785 37.235V31.0599H92.6804V37.235H91.5709V32.0952H88.5881V37.235H87.4785Z" fill="white"/>
<path d="M83.7818 36.3359C84.2729 36.3359 84.6488 36.224 84.9094 36C85.1762 35.7699 85.3491 35.4672 85.4278 35.0919L86.5192 35.2736C86.3919 35.9394 86.1008 36.448 85.6461 36.7992C85.1914 37.1503 84.57 37.3259 83.7818 37.3259C83.3332 37.3259 82.9269 37.2562 82.5631 37.117C82.1994 36.9777 81.8872 36.775 81.6264 36.5085C81.3718 36.2361 81.1747 35.9032 81.0353 35.5096C80.8959 35.1161 80.8262 34.665 80.8262 34.1565C80.8262 33.6359 80.8989 33.1758 81.0445 32.7762C81.19 32.3766 81.393 32.0437 81.6537 31.7774C81.9145 31.5109 82.2267 31.3112 82.5905 31.178C82.9543 31.0386 83.3544 30.9691 83.7909 30.9691C84.5729 30.9691 85.1914 31.1476 85.6461 31.5048C86.1069 31.8621 86.3948 32.3646 86.51 33.0123L85.4187 33.194C85.3278 32.8368 85.155 32.5431 84.9004 32.313C84.6457 32.0769 84.2759 31.9589 83.7909 31.9589C83.2089 31.9589 82.7541 32.1557 82.4267 32.5492C82.1055 32.9367 81.9447 33.4725 81.9447 34.1565C81.9447 34.8286 82.1084 35.3612 82.4358 35.7548C82.7633 36.1423 83.2119 36.3359 83.7818 36.3359Z" fill="white"/>
<path d="M78.717 37.235V32.5491L75.6068 37.235H74.4336V31.0599H75.534V35.7094L78.5988 31.0599H79.8173V37.235H78.717Z" fill="white"/>
<path d="M65.4121 38.5336V36.1998H66.0305C66.2246 36.0303 66.3853 35.773 66.5126 35.4278C66.6459 35.0828 66.7187 34.7014 66.7308 34.2836C66.749 33.8478 66.7612 33.3574 66.7673 32.8126C66.7732 32.2676 66.7763 31.6834 66.7763 31.0598H71.1506V36.1998H72.0055V38.5336H70.9323V37.235H66.4853V38.5336H65.4121ZM67.7948 34.3563C67.7767 34.7196 67.7251 35.0556 67.6402 35.3643C67.5614 35.6731 67.4341 35.9516 67.2582 36.1998H70.0411V32.0952H67.8495C67.8434 32.4342 67.8342 32.8126 67.8222 33.2302C67.8161 33.6479 67.807 34.0234 67.7948 34.3563Z" fill="white"/>
<path d="M62.2992 37.3259C61.8505 37.3259 61.4383 37.2593 61.0624 37.126C60.6926 36.9868 60.3743 36.784 60.1075 36.5176C59.8408 36.2512 59.6316 35.9213 59.48 35.5278C59.3345 35.1282 59.2617 34.6681 59.2617 34.1475C59.2617 33.639 59.3345 33.1848 59.48 32.7853C59.6316 32.3857 59.8408 32.0528 60.1075 31.7864C60.3743 31.52 60.6926 31.3171 61.0624 31.178C61.4383 31.0386 61.8505 30.9691 62.2992 30.9691C62.754 30.9691 63.1692 31.0386 63.5451 31.178C63.9211 31.3171 64.2394 31.52 64.5 31.7864C64.7668 32.0528 64.9729 32.3857 65.1184 32.7853C65.27 33.1848 65.3459 33.639 65.3459 34.1475C65.3459 34.6681 65.27 35.1282 65.1184 35.5278C64.9729 35.9213 64.7668 36.2512 64.5 36.5176C64.2394 36.784 63.9211 36.9868 63.5451 37.126C63.1692 37.2593 62.754 37.3259 62.2992 37.3259ZM62.2992 36.3359C62.9115 36.3359 63.3845 36.1393 63.7179 35.7457C64.0514 35.3461 64.2181 34.8134 64.2181 34.1475C64.2181 33.4754 64.0514 32.9428 63.7179 32.5492C63.3845 32.1557 62.9115 31.9589 62.2992 31.9589C61.693 31.9589 61.22 32.1557 60.8805 32.5492C60.5471 32.9428 60.3804 33.4754 60.3804 34.1475C60.3804 34.8134 60.5471 35.3461 60.8805 35.7457C61.22 36.1393 61.693 36.3359 62.2992 36.3359Z" fill="white"/>
<path d="M53.6953 37.235V31.0599H56.4144C57.0571 31.0599 57.5451 31.2022 57.8785 31.4868C58.2121 31.7712 58.3788 32.1799 58.3788 32.7127C58.3788 33.0214 58.309 33.3029 58.1697 33.5572C58.0301 33.8054 57.8028 33.984 57.4876 34.093C57.8392 34.1778 58.1029 34.3473 58.2788 34.6016C58.4545 34.8498 58.5425 35.1525 58.5425 35.5097C58.5425 36.0726 58.3576 36.5025 57.9877 36.7992C57.6239 37.0897 57.1026 37.235 56.4235 37.235H53.6953ZM56.2599 32.0043H54.7957V33.6571H56.2599C56.6357 33.6571 56.8995 33.5845 57.051 33.4391C57.2087 33.2878 57.2874 33.0819 57.2874 32.8217C57.2874 32.5491 57.2117 32.3464 57.0601 32.2132C56.9146 32.074 56.6478 32.0043 56.2599 32.0043ZM56.2871 34.5743H54.7957V36.2906H56.2871C56.6873 36.2906 56.9783 36.221 57.1601 36.0818C57.348 35.9365 57.4421 35.7246 57.4421 35.4461C57.4421 35.1495 57.3511 34.9315 57.1693 34.7923C56.9934 34.6469 56.6994 34.5743 56.2871 34.5743Z" fill="white"/>
<path d="M50.6133 31.0599L52.9506 37.235H51.7684L51.1954 35.6731H48.5762L48.0215 37.235H46.8574L49.1765 31.0599H50.6133ZM48.94 34.6742H50.8316L49.8767 32.0497L48.94 34.6742Z" fill="white"/>
<path d="M44.0337 31.9589C43.5911 31.9589 43.2455 32.0618 42.9969 32.2676C42.7484 32.4675 42.5786 32.7399 42.4877 33.085L41.3964 32.8943C41.5177 32.2949 41.7996 31.8257 42.2422 31.4867C42.6908 31.1417 43.2879 30.9691 44.0337 30.9691C44.7492 30.9691 45.316 31.1205 45.7343 31.4231C46.1587 31.7197 46.3709 32.1588 46.3709 32.7399C46.3709 33.085 46.286 33.3725 46.1163 33.6025C45.9526 33.8327 45.707 33.9961 45.3797 34.0929C45.7313 34.1838 46.0041 34.3442 46.1981 34.5743C46.3921 34.7983 46.4892 35.101 46.4892 35.4824C46.4892 36.0515 46.2799 36.5025 45.8616 36.8355C45.4433 37.1623 44.828 37.3259 44.0155 37.3259C43.2334 37.3259 42.615 37.1623 42.1604 36.8355C41.7056 36.5025 41.4328 36.0152 41.3418 35.3734L42.4332 35.2009C42.4938 35.558 42.6544 35.8365 42.9151 36.0364C43.1759 36.2361 43.5426 36.3359 44.0155 36.3359C44.4703 36.3359 44.8098 36.2542 45.0341 36.0908C45.2585 35.9274 45.3705 35.6974 45.3705 35.4007C45.3705 35.1342 45.2736 34.9315 45.0795 34.7922C44.8916 34.653 44.5945 34.5833 44.1883 34.5833H43.2607V33.639H44.1975C44.5794 33.639 44.8522 33.5693 45.0159 33.4301C45.1795 33.2908 45.2614 33.094 45.2614 32.8397C45.2614 32.5673 45.1553 32.3524 44.9431 32.195C44.737 32.0376 44.4338 31.9589 44.0337 31.9589Z" fill="white"/>
<path d="M0.900391 33.6299L0.961692 22.8348L19.7014 3.84703L16.9754 1.14453H28.2443L28.1519 11.735L25.4885 9.07553L6.78605 27.7522L18.9291 39.8778L28.2871 30.5332V41.7996L23.5749 46.5051L13.7566 46.4675L0.900391 33.6299Z" fill="white"/>
<path d="M10.3965 27.9239L18.7799 19.5527L27.1632 27.9239L18.7799 36.2952L10.3965 27.9239Z" fill="white"/>
<path d="M0.963645 22.8348L0.902344 33.6299L6.78802 27.7522L25.4906 9.07553L28.1538 11.735L28.2464 1.14453H16.9774L19.7032 3.84703L0.963645 22.8348Z" fill="#D70408"/>
</svg>
