<svg width="174" height="53" viewBox="0 0 174 53" fill="none" xmlns="http://www.w3.org/2000/svg">
<g opacity="0.75">
<g clip-path="url(#clip0_471_16)">
<path d="M17.9155 0C22.8369 0 27.3217 2.00953 30.5673 5.24124C33.8128 8.47295 35.831 12.9386 35.831 17.839V35.1727C35.831 40.0849 33.8128 44.5388 30.5673 47.7705C27.3217 51.0022 22.8369 53 17.9155 53C12.9822 53 8.50927 51.0022 5.26371 47.7705C2.01815 44.5271 0 40.0732 0 35.161V17.839C0 12.9268 2.01815 8.47295 5.26371 5.24124C8.50927 2.00953 12.9822 0 17.9155 0ZM13.2537 2.33858C13.5369 2.78514 13.7848 3.26696 13.9736 3.77228C14.3041 4.63016 14.4811 5.55854 14.4811 6.52217C14.4811 8.66098 13.6077 10.6 12.2033 12.0102C10.7989 13.4086 8.85153 14.2783 6.69176 14.2783C5.71219 14.2783 4.75622 14.0902 3.88287 13.7612C3.36358 13.5614 2.86789 13.3029 2.40762 13.0091C1.92373 14.5368 1.66409 16.1703 1.66409 17.8508V35.1845C1.66409 39.6384 3.4934 43.6809 6.44391 46.6188C6.49112 46.6659 6.53833 46.7129 6.58554 46.7599L8.78072 44.5741V35.2667C8.0844 35.8073 7.11663 36.1834 5.73579 36.1834V34.5264C8.34404 34.5264 8.73351 32.4463 8.78072 31.612V31.4945C8.78072 31.4592 8.78072 31.4357 8.78072 31.4004C8.0844 31.941 7.11663 32.3171 5.73579 32.3171V30.6601C8.34404 30.6601 8.73351 28.58 8.78072 27.7457V27.6282C8.78072 27.5929 8.78072 27.5694 8.78072 27.5341C8.0844 28.0747 7.11663 28.4508 5.73579 28.4508V26.7938C8.34404 26.7938 8.73351 24.7137 8.78072 23.8794V23.7619C8.78072 23.6561 8.78072 23.5738 8.78072 23.5151V23.4916C8.78072 23.4563 8.78072 23.4446 8.78072 23.4446L9.60686 23.4916L10.433 23.4446C10.433 23.4446 10.433 23.4681 10.433 23.4916V23.5151C10.433 23.5738 10.433 23.6561 10.433 23.7619V23.8794C10.4802 24.7137 10.8697 26.7938 13.4779 26.7938V28.4508C12.0971 28.4508 11.1293 28.0747 10.433 27.5341C10.433 27.5576 10.433 27.5929 10.433 27.6282V27.7457C10.4802 28.58 10.8697 30.6601 13.4779 30.6601V32.3171C12.0971 32.3171 11.1293 31.941 10.433 31.4004C10.433 31.4239 10.433 31.4592 10.433 31.4945V31.612C10.4802 32.4463 10.8697 34.5264 13.4779 34.5264V36.1834C12.0971 36.1834 11.1293 35.8073 10.433 35.2667V42.8936L17.0775 36.2774V27.0523C16.3812 27.5929 15.4135 27.969 14.0326 27.969V26.312C16.6409 26.312 17.0303 24.2319 17.0775 23.3976V23.28C17.0775 23.2448 17.0775 23.2213 17.0775 23.186C16.3812 23.7266 15.4135 24.1027 14.0326 24.1027V22.4457C16.6409 22.4457 17.0303 20.3656 17.0775 19.5313V19.4137C17.0775 19.3785 17.0775 19.355 17.0775 19.3197C16.3812 19.8603 15.4135 20.2364 14.0326 20.2364V18.5794C16.6409 18.5794 17.0303 16.4993 17.0775 15.665V15.5475C17.0775 15.4417 17.0775 15.3594 17.0775 15.3007V15.2772C17.0775 15.2419 17.0775 15.2302 17.0775 15.2302L17.9037 15.2772L18.7298 15.2302C18.7298 15.2302 18.7298 15.2537 18.7298 15.2772V15.3007C18.7298 15.3594 18.7298 15.4417 18.7298 15.5475V15.665C18.777 16.4993 19.1665 18.5794 21.7748 18.5794V20.2364C20.3939 20.2364 19.4262 19.8603 18.7298 19.3197C18.7298 19.3432 18.7298 19.3785 18.7298 19.4137V19.5313C18.777 20.3656 19.1665 22.4457 21.7748 22.4457V24.1027C20.3939 24.1027 19.4262 23.7266 18.7298 23.186C18.7298 23.2095 18.7298 23.2448 18.7298 23.28V23.3976C18.777 24.2319 19.1665 26.312 21.7748 26.312V27.969C20.3939 27.969 19.4262 27.5929 18.7298 27.0523V34.6204L25.3744 28.0042V18.8614C24.6781 19.402 23.7103 19.778 22.3295 19.778V18.1211C24.9377 18.1211 25.3272 16.041 25.3744 15.2067V15.0891C25.3744 15.0539 25.3744 15.0304 25.3744 14.9951C24.6781 15.5357 23.7103 15.9118 22.3295 15.9118V14.2548C24.9377 14.2548 25.3272 12.1747 25.3744 11.3404V11.2228C25.3744 11.1876 25.3744 11.1641 25.3744 11.1288C24.6781 11.6694 23.7103 12.0455 22.3295 12.0455V10.4002C24.9377 10.4002 25.3272 8.32018 25.3744 7.48581V7.36829C25.3744 7.26253 25.3744 7.18027 25.3744 7.12151V7.098C25.3744 7.06275 25.3744 7.051 25.3744 7.051L26.2005 7.098L27.0267 7.051C27.0267 7.051 27.0267 7.0745 27.0267 7.098V7.12151C27.0267 7.18027 27.0267 7.26253 27.0267 7.36829V7.48581C27.0739 8.32018 27.4633 10.4002 30.0716 10.4002V12.0572C28.6908 12.0572 27.723 11.6812 27.0267 11.1406C27.0267 11.1641 27.0267 11.1993 27.0267 11.2346V11.3521C27.0739 12.1865 27.4633 14.2665 30.0716 14.2665V15.9235C28.6908 15.9235 27.723 15.5475 27.0267 15.0069C27.0267 15.0304 27.0267 15.0656 27.0267 15.1009V15.2184C27.0739 16.0528 27.4633 18.1328 30.0716 18.1328V19.7898C28.6908 19.7898 27.723 19.4137 27.0267 18.8732V26.3707L34.1433 19.2845V17.8508C34.1433 13.3969 32.314 9.35432 29.3635 6.41641C26.413 3.47849 22.3531 1.65698 17.8801 1.65698C16.2986 1.65698 14.7289 1.89202 13.2537 2.33858ZM3.00952 11.3991C3.458 11.7282 3.95368 12.0102 4.47297 12.21C5.15749 12.4685 5.90102 12.6095 6.67995 12.6095C8.36764 12.6095 9.90191 11.9279 11.0113 10.8233C12.1207 9.71863 12.8052 8.19091 12.8052 6.51042C12.8052 5.74656 12.6636 5.01796 12.4157 4.34812C12.2151 3.83104 11.9555 3.34922 11.6368 2.91441C9.67767 3.73703 7.91917 4.9357 6.43211 6.40466C5.00406 7.83836 3.83566 9.5306 3.00952 11.3991ZM34.1669 21.6113L7.82475 47.8293C8.46206 48.3346 9.14658 48.7929 9.8547 49.2042L34.1551 25.0075V21.6113H34.1669ZM11.4244 49.9916C12.2387 50.3441 13.0885 50.6379 13.9736 50.8612L34.1669 30.7541V27.3461L11.4244 49.9916ZM15.9446 51.2255C16.5937 51.3078 17.2428 51.343 17.9037 51.343C18.3758 51.343 18.8361 51.3195 19.2963 51.2843L34.1079 36.5477C34.1433 36.0894 34.1669 35.631 34.1669 35.161V33.0809L15.9446 51.2255ZM22.1642 50.7789C24.9377 50.0268 27.4161 48.5579 29.3871 46.5953C31.3698 44.6211 32.8333 42.1532 33.5886 39.4033L22.1642 50.7789Z" fill="black"/>
</g>
<path d="M51.665 12.32C52.705 12.32 53.635 12.555 54.455 13.025C55.285 13.485 55.935 14.13 56.405 14.96C56.875 15.78 57.11 16.71 57.11 17.75C57.11 18.79 56.875 19.725 56.405 20.555C55.935 21.375 55.285 22.02 54.455 22.49C53.635 22.95 52.705 23.18 51.665 23.18C50.735 23.18 49.895 23.02 49.145 22.7C48.405 22.38 47.785 21.915 47.285 21.305L48.83 19.865C49.57 20.695 50.475 21.11 51.545 21.11C52.315 21.11 52.965 20.885 53.495 20.435C54.035 19.985 54.385 19.38 54.545 18.62H50.285V16.76H54.515C54.345 16.04 53.995 15.465 53.465 15.035C52.935 14.605 52.295 14.39 51.545 14.39C50.475 14.39 49.57 14.805 48.83 15.635L47.285 14.195C47.785 13.585 48.405 13.12 49.145 12.8C49.895 12.48 50.735 12.32 51.665 12.32ZM64.878 18.77H63.198V23H60.783V12.5H63.198V16.745H64.938L67.698 12.5H70.263L66.828 17.57L70.368 23H67.608L64.878 18.77ZM78.2724 23.18C77.1824 23.18 76.1974 22.945 75.3174 22.475C74.4474 22.005 73.7624 21.36 73.2624 20.54C72.7724 19.71 72.5274 18.78 72.5274 17.75C72.5274 16.72 72.7724 15.795 73.2624 14.975C73.7624 14.145 74.4474 13.495 75.3174 13.025C76.1974 12.555 77.1824 12.32 78.2724 12.32C79.3624 12.32 80.3424 12.555 81.2124 13.025C82.0824 13.495 82.7674 14.145 83.2674 14.975C83.7674 15.795 84.0174 16.72 84.0174 17.75C84.0174 18.78 83.7674 19.71 83.2674 20.54C82.7674 21.36 82.0824 22.005 81.2124 22.475C80.3424 22.945 79.3624 23.18 78.2724 23.18ZM78.2724 21.11C78.8924 21.11 79.4524 20.97 79.9524 20.69C80.4524 20.4 80.8424 20 81.1224 19.49C81.4124 18.98 81.5574 18.4 81.5574 17.75C81.5574 17.1 81.4124 16.52 81.1224 16.01C80.8424 15.5 80.4524 15.105 79.9524 14.825C79.4524 14.535 78.8924 14.39 78.2724 14.39C77.6524 14.39 77.0924 14.535 76.5924 14.825C76.0924 15.105 75.6974 15.5 75.4074 16.01C75.1274 16.52 74.9874 17.1 74.9874 17.75C74.9874 18.4 75.1274 18.98 75.4074 19.49C75.6974 20 76.0924 20.4 76.5924 20.69C77.0924 20.97 77.6524 21.11 78.2724 21.11ZM87.223 17.84H91.468V19.715H87.223V17.84ZM99.3991 18.77H97.7191V23H95.3041V12.5H97.7191V16.745H99.4591L102.219 12.5H104.784L101.349 17.57L104.889 23H102.129L99.3991 18.77ZM117.498 12.5L113.028 20.81C112.598 21.61 112.078 22.215 111.468 22.625C110.868 23.035 110.213 23.24 109.503 23.24C108.953 23.24 108.383 23.12 107.793 22.88L108.378 21.035C108.798 21.165 109.148 21.23 109.428 21.23C109.728 21.23 109.998 21.16 110.238 21.02C110.478 20.87 110.698 20.64 110.898 20.33L110.988 20.21L106.848 12.5H109.443L112.233 18.14L115.113 12.5H117.498ZM124.998 12.5C125.928 12.5 126.733 12.655 127.413 12.965C128.103 13.275 128.633 13.715 129.003 14.285C129.373 14.855 129.558 15.53 129.558 16.31C129.558 17.08 129.373 17.755 129.003 18.335C128.633 18.905 128.103 19.345 127.413 19.655C126.733 19.955 125.928 20.105 124.998 20.105H122.883V23H120.453V12.5H124.998ZM124.863 18.125C125.593 18.125 126.148 17.97 126.528 17.66C126.908 17.34 127.098 16.89 127.098 16.31C127.098 15.72 126.908 15.27 126.528 14.96C126.148 14.64 125.593 14.48 124.863 14.48H122.883V18.125H124.863ZM138.117 23.18C137.027 23.18 136.042 22.945 135.162 22.475C134.292 22.005 133.607 21.36 133.107 20.54C132.617 19.71 132.372 18.78 132.372 17.75C132.372 16.72 132.617 15.795 133.107 14.975C133.607 14.145 134.292 13.495 135.162 13.025C136.042 12.555 137.027 12.32 138.117 12.32C139.207 12.32 140.187 12.555 141.057 13.025C141.927 13.495 142.612 14.145 143.112 14.975C143.612 15.795 143.862 16.72 143.862 17.75C143.862 18.78 143.612 19.71 143.112 20.54C142.612 21.36 141.927 22.005 141.057 22.475C140.187 22.945 139.207 23.18 138.117 23.18ZM138.117 21.11C138.737 21.11 139.297 20.97 139.797 20.69C140.297 20.4 140.687 20 140.967 19.49C141.257 18.98 141.402 18.4 141.402 17.75C141.402 17.1 141.257 16.52 140.967 16.01C140.687 15.5 140.297 15.105 139.797 14.825C139.297 14.535 138.737 14.39 138.117 14.39C137.497 14.39 136.937 14.535 136.437 14.825C135.937 15.105 135.542 15.5 135.252 16.01C134.972 16.52 134.832 17.1 134.832 17.75C134.832 18.4 134.972 18.98 135.252 19.49C135.542 20 135.937 20.4 136.437 20.69C136.937 20.97 137.497 21.11 138.117 21.11ZM152.079 12.5C153.009 12.5 153.814 12.655 154.494 12.965C155.184 13.275 155.714 13.715 156.084 14.285C156.454 14.855 156.639 15.53 156.639 16.31C156.639 17.08 156.454 17.755 156.084 18.335C155.714 18.905 155.184 19.345 154.494 19.655C153.814 19.955 153.009 20.105 152.079 20.105H149.964V23H147.534V12.5H152.079ZM151.944 18.125C152.674 18.125 153.229 17.97 153.609 17.66C153.989 17.34 154.179 16.89 154.179 16.31C154.179 15.72 153.989 15.27 153.609 14.96C153.229 14.64 152.674 14.48 151.944 14.48H149.964V18.125H151.944ZM167.774 14.48H164.414V23H162.014V14.48H158.669V12.5H167.774V14.48Z" fill="black"/>
<path d="M53.38 43L50.586 39.205L51.477 38.655L54.634 43H53.38ZM48.199 43V35.3H49.277V43H48.199ZM48.947 39.612V38.644H51.444V39.612H48.947ZM51.576 39.271L50.564 39.117L53.325 35.3H54.502L51.576 39.271ZM60.305 43.088C59.7183 43.088 59.172 42.989 58.666 42.791C58.1673 42.593 57.7347 42.318 57.368 41.966C57.0013 41.6067 56.7153 41.1887 56.51 40.712C56.3047 40.2353 56.202 39.7147 56.202 39.15C56.202 38.5853 56.3047 38.0647 56.51 37.588C56.7153 37.1113 57.0013 36.697 57.368 36.345C57.7347 35.9857 58.1673 35.707 58.666 35.509C59.1647 35.311 59.711 35.212 60.305 35.212C60.8917 35.212 61.4307 35.311 61.922 35.509C62.4207 35.6997 62.8533 35.9747 63.22 36.334C63.594 36.686 63.88 37.1003 64.078 37.577C64.2833 38.0537 64.386 38.578 64.386 39.15C64.386 39.722 64.2833 40.2463 64.078 40.723C63.88 41.1997 63.594 41.6177 63.22 41.977C62.8533 42.329 62.4207 42.604 61.922 42.802C61.4307 42.9927 60.8917 43.088 60.305 43.088ZM60.305 42.109C60.7303 42.109 61.1227 42.0357 61.482 41.889C61.8487 41.7423 62.164 41.537 62.428 41.273C62.6993 41.0017 62.9083 40.6863 63.055 40.327C63.209 39.9677 63.286 39.5753 63.286 39.15C63.286 38.7247 63.209 38.3323 63.055 37.973C62.9083 37.6137 62.6993 37.302 62.428 37.038C62.164 36.7667 61.8487 36.5577 61.482 36.411C61.1227 36.2643 60.7303 36.191 60.305 36.191C59.8723 36.191 59.4727 36.2643 59.106 36.411C58.7467 36.5577 58.4313 36.7667 58.16 37.038C57.8887 37.302 57.676 37.6137 57.522 37.973C57.3753 38.3323 57.302 38.7247 57.302 39.15C57.302 39.5753 57.3753 39.9677 57.522 40.327C57.676 40.6863 57.8887 41.0017 58.16 41.273C58.4313 41.537 58.7467 41.7423 59.106 41.889C59.4727 42.0357 59.8723 42.109 60.305 42.109ZM66.6864 43.088C66.5764 43.088 66.4664 43.0807 66.3564 43.066C66.2464 43.0513 66.1254 43.0293 65.9934 43L66.0704 42.021C66.1877 42.0503 66.3051 42.065 66.4224 42.065C66.7451 42.065 67.0017 41.9367 67.1924 41.68C67.3831 41.4233 67.5224 41.0347 67.6104 40.514C67.7057 39.9933 67.7681 39.337 67.7974 38.545L67.9184 35.3H73.3414V43H72.2634V35.971L72.5274 36.257H68.6224L68.8644 35.96L68.7764 38.512C68.7544 39.2747 68.7031 39.942 68.6224 40.514C68.5417 41.086 68.4207 41.5627 68.2594 41.944C68.0981 42.3253 67.8891 42.6113 67.6324 42.802C67.3831 42.9927 67.0677 43.088 66.6864 43.088ZM82.0208 43L79.2268 39.205L80.1178 38.655L83.2748 43H82.0208ZM76.8398 43V35.3H77.9178V43H76.8398ZM77.5878 39.612V38.644H80.0848V39.612H77.5878ZM80.2168 39.271L79.2048 39.117L81.9658 35.3H83.1428L80.2168 39.271ZM85.5233 42.032C85.9046 42.1713 86.2566 42.208 86.5793 42.142C86.902 42.0687 87.1916 41.823 87.4483 41.405L87.8223 40.811L87.9323 40.69L90.7593 35.3H91.8483L88.4273 41.636C88.1706 42.12 87.87 42.4867 87.5253 42.736C87.188 42.978 86.8213 43.11 86.4253 43.132C86.0366 43.1613 85.6406 43.088 85.2373 42.912L85.5233 42.032ZM87.8993 41.669L84.5223 35.3H85.6993L88.5043 40.789L87.8993 41.669ZM99.6116 35.3H100.712V43H99.6116V35.3ZM95.1896 43H94.0896V35.3H95.1896V43ZM99.7106 39.568H95.0796V38.611H99.7106V39.568ZM107.678 43.088C107.091 43.088 106.545 42.989 106.039 42.791C105.54 42.593 105.108 42.318 104.741 41.966C104.374 41.6067 104.088 41.1887 103.883 40.712C103.678 40.2353 103.575 39.7147 103.575 39.15C103.575 38.5853 103.678 38.0647 103.883 37.588C104.088 37.1113 104.374 36.697 104.741 36.345C105.108 35.9857 105.54 35.707 106.039 35.509C106.538 35.311 107.084 35.212 107.678 35.212C108.265 35.212 108.804 35.311 109.295 35.509C109.794 35.6997 110.226 35.9747 110.593 36.334C110.967 36.686 111.253 37.1003 111.451 37.577C111.656 38.0537 111.759 38.578 111.759 39.15C111.759 39.722 111.656 40.2463 111.451 40.723C111.253 41.1997 110.967 41.6177 110.593 41.977C110.226 42.329 109.794 42.604 109.295 42.802C108.804 42.9927 108.265 43.088 107.678 43.088ZM107.678 42.109C108.103 42.109 108.496 42.0357 108.855 41.889C109.222 41.7423 109.537 41.537 109.801 41.273C110.072 41.0017 110.281 40.6863 110.428 40.327C110.582 39.9677 110.659 39.5753 110.659 39.15C110.659 38.7247 110.582 38.3323 110.428 37.973C110.281 37.6137 110.072 37.302 109.801 37.038C109.537 36.7667 109.222 36.5577 108.855 36.411C108.496 36.2643 108.103 36.191 107.678 36.191C107.245 36.191 106.846 36.2643 106.479 36.411C106.12 36.5577 105.804 36.7667 105.533 37.038C105.262 37.302 105.049 37.6137 104.895 37.973C104.748 38.3323 104.675 38.7247 104.675 39.15C104.675 39.5753 104.748 39.9677 104.895 40.327C105.049 40.6863 105.262 41.0017 105.533 41.273C105.804 41.537 106.12 41.7423 106.479 41.889C106.846 42.0357 107.245 42.109 107.678 42.109ZM114.637 43V35.3H117.948C118.784 35.3 119.441 35.4687 119.917 35.806C120.394 36.1433 120.632 36.6347 120.632 37.28C120.632 37.9107 120.405 38.3947 119.95 38.732C119.496 39.062 118.898 39.227 118.157 39.227L118.355 38.897C119.213 38.897 119.87 39.0693 120.324 39.414C120.786 39.7513 121.017 40.2463 121.017 40.899C121.017 41.559 120.775 42.076 120.291 42.45C119.815 42.8167 119.103 43 118.157 43H114.637ZM115.726 42.131H118.135C118.722 42.131 119.162 42.0247 119.455 41.812C119.756 41.592 119.906 41.2583 119.906 40.811C119.906 40.3637 119.756 40.0373 119.455 39.832C119.162 39.6267 118.722 39.524 118.135 39.524H115.726V42.131ZM115.726 38.688H117.871C118.407 38.688 118.814 38.5817 119.092 38.369C119.378 38.1563 119.521 37.8447 119.521 37.434C119.521 37.016 119.378 36.7007 119.092 36.488C118.814 36.2753 118.407 36.169 117.871 36.169H115.726V38.688ZM127.42 43.088C126.833 43.088 126.287 42.989 125.781 42.791C125.282 42.593 124.85 42.318 124.483 41.966C124.116 41.6067 123.83 41.1887 123.625 40.712C123.42 40.2353 123.317 39.7147 123.317 39.15C123.317 38.5853 123.42 38.0647 123.625 37.588C123.83 37.1113 124.116 36.697 124.483 36.345C124.85 35.9857 125.282 35.707 125.781 35.509C126.28 35.311 126.826 35.212 127.42 35.212C128.007 35.212 128.546 35.311 129.037 35.509C129.536 35.6997 129.968 35.9747 130.335 36.334C130.709 36.686 130.995 37.1003 131.193 37.577C131.398 38.0537 131.501 38.578 131.501 39.15C131.501 39.722 131.398 40.2463 131.193 40.723C130.995 41.1997 130.709 41.6177 130.335 41.977C129.968 42.329 129.536 42.604 129.037 42.802C128.546 42.9927 128.007 43.088 127.42 43.088ZM127.42 42.109C127.845 42.109 128.238 42.0357 128.597 41.889C128.964 41.7423 129.279 41.537 129.543 41.273C129.814 41.0017 130.023 40.6863 130.17 40.327C130.324 39.9677 130.401 39.5753 130.401 39.15C130.401 38.7247 130.324 38.3323 130.17 37.973C130.023 37.6137 129.814 37.302 129.543 37.038C129.279 36.7667 128.964 36.5577 128.597 36.411C128.238 36.2643 127.845 36.191 127.42 36.191C126.987 36.191 126.588 36.2643 126.221 36.411C125.862 36.5577 125.546 36.7667 125.275 37.038C125.004 37.302 124.791 37.6137 124.637 37.973C124.49 38.3323 124.417 38.7247 124.417 39.15C124.417 39.5753 124.49 39.9677 124.637 40.327C124.791 40.6863 125.004 41.0017 125.275 41.273C125.546 41.537 125.862 41.7423 126.221 41.889C126.588 42.0357 126.987 42.109 127.42 42.109ZM133.882 40.437V39.524H136.841V40.437H133.882ZM140.973 43V35.971L141.248 36.257H138.344V35.3H144.691V36.257H141.787L142.051 35.971V43H140.973ZM147.128 43V35.3H148.217V41.24L152.771 35.3H153.783V43H152.705V37.071L148.14 43H147.128ZM157.284 43V35.3H160.287C160.961 35.3 161.537 35.4063 162.014 35.619C162.49 35.8317 162.857 36.1397 163.114 36.543C163.37 36.9463 163.499 37.4267 163.499 37.984C163.499 38.5413 163.37 39.0217 163.114 39.425C162.857 39.821 162.49 40.129 162.014 40.349C161.537 40.5617 160.961 40.668 160.287 40.668H157.889L158.384 40.151V43H157.284ZM158.384 40.261L157.889 39.711H160.254C160.958 39.711 161.489 39.5607 161.849 39.26C162.215 38.9593 162.399 38.534 162.399 37.984C162.399 37.434 162.215 37.0087 161.849 36.708C161.489 36.4073 160.958 36.257 160.254 36.257H157.889L158.384 35.707V40.261ZM169.679 43.088C169.093 43.088 168.55 42.9927 168.051 42.802C167.56 42.604 167.131 42.329 166.764 41.977C166.405 41.6177 166.123 41.1997 165.917 40.723C165.712 40.2463 165.609 39.722 165.609 39.15C165.609 38.578 165.712 38.0537 165.917 37.577C166.123 37.1003 166.409 36.686 166.775 36.334C167.142 35.9747 167.571 35.6997 168.062 35.509C168.561 35.311 169.104 35.212 169.69 35.212C170.284 35.212 170.831 35.3147 171.329 35.52C171.835 35.718 172.264 36.015 172.616 36.411L171.901 37.104C171.608 36.796 171.278 36.5687 170.911 36.422C170.545 36.268 170.152 36.191 169.734 36.191C169.302 36.191 168.898 36.2643 168.524 36.411C168.158 36.5577 167.839 36.763 167.567 37.027C167.296 37.291 167.083 37.6063 166.929 37.973C166.783 38.3323 166.709 38.7247 166.709 39.15C166.709 39.5753 166.783 39.9713 166.929 40.338C167.083 40.6973 167.296 41.009 167.567 41.273C167.839 41.537 168.158 41.7423 168.524 41.889C168.898 42.0357 169.302 42.109 169.734 42.109C170.152 42.109 170.545 42.0357 170.911 41.889C171.278 41.735 171.608 41.5003 171.901 41.185L172.616 41.878C172.264 42.274 171.835 42.5747 171.329 42.78C170.831 42.9853 170.281 43.088 169.679 43.088Z" fill="black"/>
</g>
<defs>
<clipPath id="clip0_471_16">
<rect width="35.831" height="53" fill="white"/>
</clipPath>
</defs>
</svg>
