<?xml version="1.0" encoding="utf-8"?><svg viewBox="0 0 24 25" fill="none" xmlns="http://www.w3.org/2000/svg" width="24" height="25"><path d="M16 13.4v4.2c0 3.5-1.4 4.9-4.9 4.9H6.9c-3.5 0-4.9-1.4-4.9-4.9v-4.2c0-3.5 1.4-4.9 4.9-4.9h4.2c3.5 0 4.9 1.4 4.9 4.9z" stroke="currentColor" stroke-width="1.5" stroke-linecap="round" stroke-linejoin="round"/><path d="M22 7.4v4.2c0 3.5-1.4 4.9-4.9 4.9H16v-3.1c0-3.5-1.4-4.9-4.9-4.9H8V7.4c0-3.5 1.4-4.9 4.9-4.9h4.2c3.5 0 4.9 1.4 4.9 4.9z" stroke="currentColor" stroke-width="1.5" stroke-linecap="round" stroke-linejoin="round"/></svg>