<?xml version="1.0" encoding="utf-8"?><svg width="158" height="33" fill="none" xmlns="http://www.w3.org/2000/svg" viewBox="0 0 158 33"><path d="M4.5 21.179V6.2h2.28v14.979H4.5zM19.41 8.093h-5.858V6.2H28.5V8.24h-6.314V21.17H19.91V8.093h-.5z" fill="#2A2A2A" stroke="#2A2A2A"/><mask id="afa" fill="#fff"><path d="M48.128 5.7v3.38H37.367c-1.075 0-1.269.877-1.269 1.65 0 .774.432 1.295 1.313 1.295h8.806c2.59 0 2.74 2.99 2.74 4.831 0 1.842 0 5.066-2.643 5.066H33.738V18.16h10.515c1.612 0 1.374-.582 1.374-1.304 0-.72-.07-1.277-.933-1.277h-6.896c-2.642 0-4.993-1.764-4.993-5.482 0-1.686 1.567-4.319 4.377-4.319"/></mask><path d="M48.128 5.7v3.38H37.367c-1.075 0-1.269.877-1.269 1.65 0 .774.432 1.295 1.313 1.295h8.806c2.59 0 2.74 2.99 2.74 4.831 0 1.842 0 5.066-2.643 5.066H33.738V18.16h10.515c1.612 0 1.374-.582 1.374-1.304 0-.72-.07-1.277-.933-1.277h-6.896c-2.642 0-4.993-1.764-4.993-5.482 0-1.686 1.567-4.319 4.377-4.319" fill="#2A2A2A"/><path d="M48.128 9.08v1h1v-1h-1zm-14.39 12.842h-1v1h1v-1zm0-3.762v-1h-1v1h1zM47.128 5.7v3.38h2V5.7h-2zm1 2.38H37.367v2h10.761v-2zm-10.761 0c-.872 0-1.53.39-1.903 1.035-.318.55-.366 1.182-.366 1.616h2c0-.155.01-.291.031-.404a.683.683 0 01.066-.211c.008-.014.013-.018.012-.017l-.003.002-.002.001.007-.002a.592.592 0 01.158-.02v-2zm-2.269 2.65c0 .567.16 1.168.605 1.63.452.471 1.068.665 1.708.665v-2a.671.671 0 01-.23-.03.157.157 0 01-.03-.015l-.005-.005-.006-.007a.183.183 0 01-.015-.034.64.64 0 01-.027-.203h-2zm2.313 2.295h8.806v-2h-8.806v2zm8.806 0c.44 0 .705.121.888.27.198.163.374.421.515.802.292.79.336 1.832.336 2.76h2c0-.915-.03-2.289-.46-3.453-.22-.597-.568-1.201-1.126-1.657-.573-.469-1.298-.722-2.153-.722v2zm1.74 3.831c0 .956-.01 2.06-.284 2.92-.133.416-.304.695-.497.867-.172.153-.424.279-.862.279v2c.883 0 1.622-.277 2.193-.786.55-.49.874-1.132 1.072-1.752.386-1.212.377-2.64.377-3.528h-2zm-1.643 4.066H33.738v2h12.576v-2zm-11.576 1V18.16h-2v3.762h2zm-1-2.762h10.515v-2H33.738v2zm10.515 0c.448 0 .854-.039 1.202-.15.37-.12.72-.34.946-.716a1.8 1.8 0 00.238-.911c.002-.111-.002-.221-.006-.303-.003-.09-.006-.157-.006-.224h-2c0 .114.005.223.008.303.004.088.005.142.004.187-.002.1-.017.026.05-.084a.463.463 0 01.122-.135c.037-.027.055-.03.03-.021-.061.02-.23.054-.588.054v2zm2.374-2.304c0-.324.001-.902-.266-1.389a1.63 1.63 0 00-.713-.686 2.13 2.13 0 00-.954-.202v2c.114 0 .116.02.066-.006a.36.36 0 01-.153-.145c-.02-.035-.007-.033.004.054.012.086.016.203.016.374h2zm-1.933-2.277h-6.896v2h6.896v-2zm-6.896 0c-1.1 0-2.082-.365-2.785-1.059-.695-.685-1.208-1.783-1.208-3.423h-2c0 2.077.663 3.722 1.803 4.847 1.134 1.118 2.649 1.635 4.19 1.635v-2zm-3.993-4.482c0-.575.286-1.43.895-2.142.588-.687 1.419-1.177 2.482-1.177v-2c-1.747 0-3.104.827-4.002 1.877-.877 1.026-1.375 2.33-1.375 3.442h2z" fill="#2A2A2A" mask="url(#afa)"/><path d="M74.198 6.191v2.32H62.562c-.771 0-1.315.224-1.578.726a1.55 1.55 0 00-.162.634c-.007.123-.005.265-.003.37l.002.099v6.403c0 .596.066 1.144.297 1.556.122.217.292.4.518.526.225.123.474.173.733.173h9.297V14.827h-3.31v-2.223h5.833v8.826H62.457a4.097 4.097 0 01-2.926-1.224c-.708-.707-1.04-1.517-1.04-1.994V8.88c0-.52.347-1.186 1.063-1.744.702-.547 1.71-.945 2.903-.945h11.741zM81.19 17.186v4.227h-2.62V6.2h12.174c.759 0 1.437.471 1.952 1.144.522.682.78 1.446.78 1.831v4.31c0 .497-.178 1.13-.739 1.641-.562.513-1.569.961-3.332.961h-1.088l.709.826 3.862 4.5h-3.66l-3.733-4.569-.171-.209-.268.028c-.141.015-.367.023-.697.023H81.19v.5zm.492-9.05h-.5v6.162h8.478c.601 0 1.03-.262 1.284-.655.233-.36.29-.782.29-1.096V9.992v-.02c.001-.172.002-.584-.145-.965a1.372 1.372 0 00-.435-.602 1.35 1.35 0 00-.844-.268h-8.128zM101.479 6.2h6.772c2.4 0 4.335 1.912 4.335 4.261v6.69c0 2.35-1.935 4.262-4.335 4.262h-6.772c-2.4 0-4.335-1.912-4.335-4.261v-6.69c0-2.35 1.935-4.262 4.335-4.262zm6.552 12.885c1.318 0 2.394-1.051 2.394-2.368v-5.821c0-1.317-1.076-2.368-2.394-2.368h-6.297c-1.307 0-2.393 1.05-2.393 2.368v5.821c0 1.318 1.086 2.368 2.393 2.368h6.297zM129.922 16.196V6.2h2.285v11.073c0 2.281-1.874 4.14-4.202 4.14h-7.328c-2.328 0-4.202-1.859-4.202-4.14V6.2h2.505v9.996c0 1.603 1.313 2.89 2.922 2.89h5.099c1.608 0 2.921-1.287 2.921-2.89z" fill="#2A2A2A" stroke="#2A2A2A"/><path d="M139.4 13.52c0 .156.009.304.036.452h-.036v-.452zM139.436 8.62a2.486 2.486 0 00-.036.451V8.62h.036z" fill="#2A2A2A"/><path d="M139.4 13.52c0 .156.009.304.036.452h-.036v-.452zM139.436 8.62a2.486 2.486 0 00-.036.451V8.62h.036z" fill="#2A2A2A"/><path d="M139.4 16.426h-.5v4.987h-2.232V6.165h11.609c.793 0 1.658.412 2.337 1.072.679.66 1.1 1.499 1.1 2.268v3.745c0 .765-.416 1.56-1.089 2.177-.673.616-1.541.999-2.348.999H139.4zm-.5-2.454v.5h8.585a2.28 2.28 0 002.296-2.273v-1.807a2.28 2.28 0 00-2.296-2.273H138.9v5.853z" fill="#2A2A2A" stroke="#2A2A2A"/></svg>