<?xml version="1.0" encoding="utf-8"?><svg width="148" height="53" fill="none" xmlns="http://www.w3.org/2000/svg" viewBox="0 0 148 53"><g opacity=".73" fill-rule="evenodd" clip-rule="evenodd"><path d="M41.317 41.12a25.015 25.015 0 01-8.979 7.988 25.065 25.065 0 01-23.35 0 25.015 25.015 0 01-8.98-7.988l1.666-.97a23.106 23.106 0 008.274 7.284 23.154 23.154 0 0021.429 0 23.106 23.106 0 008.274-7.284l1.666.97zM20.663 2c4.07-.005 8.08.984 11.68 2.88a24.944 24.944 0 018.974 8l-1.666.97a23.106 23.106 0 00-8.274-7.284 23.154 23.154 0 00-21.429 0 23.106 23.106 0 00-8.274 7.284l-1.666-.97a24.944 24.944 0 018.974-8A24.996 24.996 0 0120.662 2z" fill="#000"/><path d="M36.319 38.244a19.292 19.292 0 01-6.859 5.865 19.33 19.33 0 01-17.56 0 19.292 19.292 0 01-6.859-5.865l2.5-1.455A16.413 16.413 0 0013.33 41.6a16.444 16.444 0 0020.454-4.812l2.535 1.455zM20.663 7.752c3.057.003 6.07.73 8.792 2.122a19.325 19.325 0 016.864 5.882l-2.535 1.455a16.412 16.412 0 00-5.789-4.812 16.445 16.445 0 00-14.665 0 16.412 16.412 0 00-5.79 4.812l-2.499-1.455a19.326 19.326 0 016.848-5.874 19.365 19.365 0 018.774-2.13z" fill="#404040"/><path d="M30.417 34.848a12.563 12.563 0 01-9.754 4.636 12.586 12.586 0 01-9.755-4.636l3.402-1.975a8.713 8.713 0 006.353 2.772 8.588 8.588 0 006.352-2.772l3.402 1.975zM20.663 14.509a12.481 12.481 0 019.754 4.643l-3.402 1.975a8.573 8.573 0 00-6.352-2.772 8.727 8.727 0 00-6.353 2.772l-3.402-1.975a12.516 12.516 0 019.755-4.643z" fill="#5A5A5A"/><path d="M3.097 34.918a19.27 19.27 0 010-15.835l1.667.97a17.678 17.678 0 000 13.894l-1.667.97zM38.228 19.082a19.27 19.27 0 010 15.836l-1.666-.97a17.297 17.297 0 000-13.895l1.666-.97zM8.999 31.522a12.21 12.21 0 010-9.044l1.666.97a11 11 0 000 7.104l-1.666.97zM32.361 22.478a12.695 12.695 0 010 9.044l-1.7-.97a11 11 0 000-7.104l1.7-.97z" fill="#000"/><path d="M20.663 22.201a4.832 4.832 0 014.46 2.981 4.808 4.808 0 01-1.06 5.253 4.828 4.828 0 01-8.226-3.452 4.773 4.773 0 011.416-3.394 4.792 4.792 0 013.41-1.388z" fill="#797979"/><path d="M61.886 15.671v10.612h2.26v-9.608l2.43 9.608h2.488l2.402-9.608v9.608h2.288V14.381H70.15l-2.316 9.063-2.373-9.063h-2.374a1.256 1.256 0 00-1.2 1.29zm22.42 7.773h-1.688a1.027 1.027 0 00-.8.344c-.39.407-.924.644-1.487.66-1.144 0-1.745-.717-1.83-2.123h5.948c.171-3.642-1.201-5.42-4.118-5.42-2.917 0-4.233 1.577-4.233 4.732 0 3.155 1.402 4.76 4.175 4.847 2.288 0 3.547-1.061 4.033-3.04zm-4.032-4.646c1 0 1.572.63 1.715 1.864h-3.46c.172-1.233.772-1.864 1.745-1.864zm6.376 5.88h-.571v3.326h2.23v-1.72h4.747v1.72h2.202v-3.327h-.63v-6.51c0-.775-.4-1.148-1.2-1.148h-5.462c0 3.299-.2 5.364-1.316 7.658zm3.403-5.594h2.317v5.593h-3.432c.18-.436.324-.887.43-1.348.37-1.377.686-2.581.686-4.245zm9.923 0h3.861v7.2h2.23v-7.888c0-.918-.514-1.377-1.487-1.377h-6.834v9.264h.743c.973 0 1.459-.459 1.487-1.348v-5.85zm10.838 9.666c0 .774-.371 1.147-1.143 1.147h-1.173v-8.834c.143-2.782 1.573-4.13 4.347-4.13 2.774 0 4.289 1.55 4.289 4.675 0 3.126-1.229 4.761-3.689 4.847a2.881 2.881 0 01-2.631-1.434v3.729zm1.974-4.36c1.258 0 1.915-.889 1.973-2.696.057-1.806-.687-2.782-2.002-2.782-1.315 0-1.945.918-1.945 2.782 0 1.864.715 2.696 1.974 2.696zm14.355-.946h-1.716a.967.967 0 00-.772.344 2.2 2.2 0 01-1.516.66c-1.115 0-1.744-.717-1.83-2.123h5.977c.171-3.642-1.201-5.42-4.147-5.42-2.945 0-4.203 1.577-4.203 4.732 0 3.155 1.401 4.76 4.175 4.847 2.287 0 3.517-1.061 4.032-3.04zm-4.032-4.646c1.001 0 1.573.63 1.716 1.864h-3.461c.172-1.233.744-1.864 1.745-1.864zm6.377 5.88h-.601v3.326h2.259v-1.72h4.719v1.72h2.23v-3.327h-.657v-6.51c.028-.775-.372-1.148-1.202-1.148h-5.433c0 3.299-.2 5.364-1.315 7.658zm3.403-5.594h2.316v5.593h-3.432c.115-.315.258-.774.429-1.348.372-1.377.687-2.581.687-4.245zM72.038 37.698h-2.374c-.257 1.29-1.115 2.15-2.66 2.15-2.201 0-3.173-1.663-3.173-3.986 0-2.323 1-3.986 3.26-3.986 1.144 0 1.944.43 2.345 1.29a1.146 1.146 0 001.115.717h1.487c-.143-1.29-.6-2.323-1.43-3.068-.83-.746-2.059-1.09-3.517-1.09-3.746 0-5.662 2.294-5.662 6.137 0 3.843 1.801 6.138 5.462 6.138 3.002 0 4.918-1.578 5.147-4.302zm11.496-4.388c0-2.438-1.373-3.385-3.832-3.385h-4.49a1.257 1.257 0 00-1.23 1.262V41.8h2.431v-4.617h2.574c1.43 0 1.687.459 1.801 1.892-.03.671 0 1.343.086 2.008.019.25.087.494.2.717h2.66a.86.86 0 01-.372-.774l-.114-2.323c-.058-.775-.143-1.377-.372-1.779a2.059 2.059 0 00-1.116-.803c1.116-.315 1.773-1.319 1.773-2.81zm-2.46.23c0 1.147-.657 1.577-1.801 1.577h-2.86V31.99h3.003c1.086 0 1.658.458 1.658 1.548zm4.604-2.352v10.611h2.288V32.22l2.43 9.58h2.489l2.402-9.58v9.58h2.287V29.925h-3.603l-2.316 9.063-2.402-9.063h-2.345a1.257 1.257 0 00-1.23 1.262z" fill="#000"/></g></svg>