<?xml version="1.0" encoding="utf-8"?><svg width="201" height="53" fill="none" xmlns="http://www.w3.org/2000/svg" viewBox="0 0 201 53"><g opacity=".7"><path d="M62.956 26.926c0-2.825 1.822-5.229 4.935-5.229 2.797 0 4.924 2.122 4.924 5.23 0 2.825-1.786 5.229-4.924 5.229-2.996 0-4.935-2.38-4.935-5.23zm-3.654 0c0 4.597 3.49 8.407 8.59 8.407 4.712 0 8.59-3.435 8.59-8.407 0-4.56-3.467-8.406-8.59-8.406-4.807 0-8.59 3.634-8.59 8.406zM85.575 25.355v-3.588h4.606c1.081 0 2.115.669 2.115 1.794 0 1.173-1.093 1.794-2.103 1.794h-4.618zm-3.514-6.824v16.802h3.513v-6.812h5.053c2.914 0 5.112-2.11 5.112-4.96 0-3.072-2.267-5.03-5.112-5.03h-8.566zM100.284 18.52v16.813h11.857v-3.236h-8.331v-4.338h6.204v-3.236h-6.204v-2.767h8.331V18.52h-11.857zM128.049 18.52v6.003h-7.555V18.52h-3.514v16.813h3.514v-7.562h7.555v7.562h3.526V18.52h-3.526zM136.778 32.402c.682.61 3.385 2.931 7.11 2.931 2.456 0 6.58-1.219 6.58-5.123 0-1.853-1.398-3.13-2.608-3.729.881-.551 1.738-1.641 1.738-2.955 0-5.088-5.863-5.018-6.074-5.018-1.481 0-3.714.27-6.194 2.005l2.01 2.404c1.656-1.231 3.889-1.22 4.16-1.22.846 0 2.609.13 2.609 1.548 0 1.63-2.221 1.982-3.467 1.982h-2.15v3.107h2.15c1.669 0 4.324.34 4.324 1.887 0 .434-.388 1.912-3.078 1.912-2.88 0-4.936-2.134-4.936-2.134l-2.174 2.403zM172.534 18.531l-7.368 8.407-7.368-8.407h-1.762v16.802h3.513V24.851l5.617 6.39 5.617-6.39v10.482h3.513V18.531h-1.762zM189.735 18.508l-5.229 5.523v-5.523h-3.525v16.825h3.525v-6.882l2.01-2.134 5.264 9.016h3.807l-6.71-11.502 5.042-5.323h-4.184z" fill="#000"/><mask id="ka" style="mask-type:luminance" maskUnits="userSpaceOnUse" x="0" y="6" width="42" height="42"><path d="M42 6H0v41.344h42V6z" fill="#fff"/></mask><g mask="url(#ka)"><path d="M21.048 39.342l.673 3.334 2.883-.381.577-3.62c2.21-.572 2.98-1.524 2.98-1.524l3.075 1.905 2.114-2.096s-2.114-2.858-1.922-3.048c1.057-1.048 1.537-2.953 1.537-2.953l3.749-.572.384-2.858-3.46-.762V26.1h-1.922v.571c0 5.907-4.902 10.766-10.86 10.766h-.385v1.905h.577z" fill="#3F3F3F"/><path d="M20.471 6H0v20.29h20.471V6z" fill="#000"/><path d="M19.702 6.762H.77V25.53h18.933V6.762zM42.096 6H21.625v20.29h20.471V6z" fill="#000"/><path d="M41.327 6.762H22.394V25.53h18.933V6.762zM20.471 27.148H0V47.44h20.471V27.15z" fill="#000"/><path d="M19.702 27.815H.77v18.767h18.933V27.815z" fill="#000"/><path d="M20.856 37.341c5.998 0 10.86-4.82 10.86-10.764 0-5.946-4.862-10.765-10.86-10.765-5.998 0-10.86 4.82-10.86 10.765s4.862 10.764 10.86 10.764z" fill="#fff"/><path d="M20.856 35.722c5.095 0 9.226-4.095 9.226-9.145 0-5.051-4.13-9.146-9.226-9.146-5.096 0-9.227 4.095-9.227 9.146 0 5.05 4.131 9.145 9.227 9.145z" fill="#3F3F3F"/></g></g></svg>