<?xml version="1.0" encoding="utf-8"?><svg width="118" height="53" fill="none" xmlns="http://www.w3.org/2000/svg" viewBox="0 0 118 53"><g opacity=".78" fill="#000"><path d="M116.517 26.181H49.86a.606.606 0 01-.426-.174.592.592 0 010-.842.607.607 0 01.426-.174h66.657c.16 0 .313.063.426.174a.592.592 0 01-.426 1.016zM53.575 19.157h-.301l-.226-.018a1.177 1.177 0 01-.579-.158c-.148-.107-.301-.578-.301-2.483v-6.37c0-1.902.16-2.38.301-2.482.177-.099.376-.153.579-.158l.226-.015h.3c.091 0 .263-.071.257-.22a.245.245 0 00-.161-.228.253.253 0 00-.098-.016h-4.034c-.154.015-.302.098-.302.238a.195.195 0 00.049.142.2.2 0 00.135.066h.096l.341.033c.117.012.23.057.322.128.055.048.157.197.226.682.06.603.088 1.21.085 1.816v6.393c.003.607-.025 1.213-.085 1.816-.069.488-.171.637-.226.685a.665.665 0 01-.322.125l-.343.036a.47.47 0 00-.094 0 .195.195 0 00-.137.065.19.19 0 00-.047.143c0 .14.139.22.302.235h4.028a.249.249 0 00.238-.146.243.243 0 00.021-.095c.012-.14-.157-.214-.25-.214zM72.282 19.169h-.301a1.824 1.824 0 01-1.067-.298c-.301-.244-.437-.548-.542-1.432l-1.133-9.91c-.036-.139.018-.455-.338-.511a.413.413 0 00-.376.298l-5.014 9.906-5.19-9.912c-.121-.241-.263-.298-.377-.298a.322.322 0 00-.245.137c-.057.071-.045.16-.075.298l-1.244 10.53c-.088.67-.196.894-.302.998a.91.91 0 01-.647.217h-.154c-.07 0-.301 0-.301.218 0 .217.265.24.41.24h3.012c.19 0 .516.034.516-.223 0-.113-.13-.229-.32-.229h-.078c-.322 0-.738-.083-.82-.297a.921.921 0 01-.054-.4c0-.14 0-.327.03-.57l.663-7.106c1.374 2.867 3.375 6.501 4.218 8.064.238.375.386.774.603.774.217 0 .325-.23.581-.709l4.218-8.284.766 7.662c.018.214.05.42.05.613 0 .09 0 .125-.023.125-.024 0-.202.104-.202.313a.245.245 0 00.059.183.252.252 0 00.173.088h3.296c.163 0 .494 0 .494-.256-.006-.241-.271-.224-.286-.23zM116.861 19.169h-.301c-.378.014-.75-.09-1.064-.298-.301-.244-.437-.548-.545-1.432l-1.133-9.91c-.036-.139.018-.455-.335-.511a.405.405 0 00-.379.298l-5.014 9.906-5.191-9.912c-.117-.241-.262-.298-.377-.298a.326.326 0 00-.244.137c-.057.071-.042.16-.072.298l-1.25 10.53c-.085.67-.193.894-.28.998a.912.912 0 01-.651.217h-.154c-.07 0-.301 0-.301.218 0 .217.262.24.407.24h3.012c.193 0 .516.034.516-.223 0-.113-.13-.229-.32-.229h-.078c-.322 0-.735-.083-.82-.297a.933.933 0 01-.054-.4c0-.14 0-.327.03-.57l.663-7.106c1.371 2.867 3.375 6.501 4.218 8.064.238.375.386.774.603.774.217 0 .325-.23.584-.709l4.218-8.284.766 7.662c.018.214.051.42.051.613 0 .09 0 .125-.024.125s-.199.104-.199.313a.246.246 0 00.134.244.25.25 0 00.095.027h3.293c.16 0 .491 0 .491-.256-.015-.241-.277-.224-.295-.23zM98.62 19.186a4.517 4.517 0 00-.532-.05c-.748-.104-1.064-.628-1.308-1.09-.244-.461-.708-1.42-2.682-6.266-.331-.8-.641-1.619-.99-2.426a64.24 64.24 0 01-.748-1.714c-.093-.188-.22-.637-.482-.637s-.386.458-.5.735l-3.938 9.963c-.527 1.262-.904 1.393-1.371 1.438a3.21 3.21 0 01-1.255-.27 3.175 3.175 0 01-1.044-.74c-.602-.595-1.205-1.315-1.916-2.184l-1.205-1.45-.603-.798a4.254 4.254 0 001.088-.732c1.003-.931 1.163-2.298 1.163-3.018a2.668 2.668 0 00-.904-1.997c-.603-.557-1.6-.95-3.54-.947h-4.025c-.136 0-.287.056-.302.211.067.298.389.23.552.265h.229a.72.72 0 01.602.345c.045.096.118.408.118 1.608v6.915c0 1.765-.12 2.235-.166 2.38-.139.397-.301.37-.639.415l-.186.018a.24.24 0 00-.173.055.234.234 0 00-.084.159c0 .104.109.229.284.238h3.844c.22 0 .515.02.515-.238 0-.26-.247-.217-.265-.217H78.1h-.262l-.214-.018c-.545-.045-.603-.128-.723-.396-.145-.44-.169-1.95-.169-2.381V8.002c0-.298.199-.253.693-.298h.19c.78 0 1.535.275 2.13.774.78.658.904 1.489.904 2.29.011.438-.092.872-.302 1.258a3.11 3.11 0 01-1.072 1.122 3.16 3.16 0 01-1.488.471H77.6c-.097 0-.38 0-.407.259-.027.259.26.247.34.247h.202c.2 0 .389 0 .579-.02.5 0 .602.208.666.297l2.09 2.717c1.29 1.685 1.724 1.983 2.056 2.153.47.232.783.315 1.934.333h4.094c.045 0 .302-.027.302-.247s-.272-.211-.302-.211h-.174c-.205 0-.534-.03-.534-.414.022-.335.102-.665.235-.974l1.046-2.84c.039-.053 0-.035.05-.047h3.755l1.615 3.953c.036.09.054.14.054.14a.1.1 0 01-.054.131l-.07.02a.232.232 0 00-.165.212c.018.298.322.26.43.26h2.944c.112 0 .494.023.494-.242a.2.2 0 00-.16-.16zm-8.568-5.108l1.549-4.292 1.633 4.292h-3.182zM62.379 46.985h-.44c-1.444 0-2.085-.184-3.215-1.131-1.085-.893-4.312-4.388-5.664-5.923v3.113c0 .497.027 2.286.18 2.771.064.188.109.238.196.298.184.07.379.109.576.113l.217.02c.03.004.06.004.09 0a.52.52 0 01.352.102.342.342 0 01.112.256.369.369 0 01-.26.345.795.795 0 01-.282.04c-.961 0-.684-.057-2.05-.057h-.267c-.256 0-1.296.038-1.784.056h-.142a.415.415 0 01-.276-.115.406.406 0 01-.124-.269.333.333 0 01.205-.298.422.422 0 01.187-.032h.162a.773.773 0 00.485-.14.575.575 0 00.16-.298c.045-.152.18-.696.18-2.771v-7.471c0-1.757-.066-2.084-.102-2.165a.47.47 0 00-.244-.297 1.733 1.733 0 00-.623-.143l-.242-.02a1.028 1.028 0 01-.237-.043.345.345 0 01-.217-.321.353.353 0 01.208-.33.57.57 0 01.22-.036h.12c.904.02 1.133.056 1.967.056h.247c.663 0 1.206-.035 1.808-.056h.145a.394.394 0 01.267.096c.073.064.12.153.13.25a.357.357 0 01-.054.204.412.412 0 01-.301.18l-.193.017c-.392.048-.563.074-.687.33-.072.164-.117.486-.114 1.274v3.971c2.362-2.473 4.112-4.125 4.694-4.825.301-.351.416-.56.404-.643v-.009a.396.396 0 01-.302-.125.522.522 0 01-.105-.366.345.345 0 01.199-.318.609.609 0 01.265-.048c.214 0 .524.056 1.226.056h.461c.244 0 .527-.035 1.588-.056h.114a.44.44 0 01.302.101.362.362 0 01.114.262c0 .099-.04.193-.108.265a.358.358 0 01-.226.095h-.157a1.789 1.789 0 00-.536.107 3.022 3.022 0 00-1.39.801c-1.235 1.093-1.355 1.325-2.042 1.962l-1.067 1.02c-.334.331-1.328 1.296-1.928 1.915 3.314 3.408 3.655 3.774 5.104 5.167 1.283 1.232 1.955 1.83 2.712 2.105.365.124.744.203 1.13.235h.075c.07-.004.14.004.208.024a.34.34 0 01.069.619.705.705 0 01-.229.08c-.175.025-.35.037-.527.036h-.708l-.036-.036zM69.712 46.967c-.88-.038-1.16-.038-1.368-.038h-.602c-.145 0-.172.017-.603.038-.374 0-.455.018-.65.018h-.248a.846.846 0 01-.265-.027.377.377 0 01-.277-.357.331.331 0 01.205-.297.49.49 0 01.184-.036h.162c.416-.039.482-.134.512-.158.109-.072.326-.595.302-3.051v-8.037c0-.244-.04-1.22-.055-1.31v-.032a.814.814 0 00-.126-.447.773.773 0 00-.627-.259l-.301-.018a.862.862 0 01-.301-.047.387.387 0 01-.241-.358.339.339 0 01.232-.321.679.679 0 01.195-.027c.766 0 1.067.057 2.031.057h.365c.174 0 .367-.018.566-.018.536-.018 1.076-.039 1.615-.039 1.844 0 3.064.325 3.896 1.084.368.33.662.734.863 1.184.2.45.304.937.303 1.43 0 1.758-1.118 3.35-2.23 4.345l.419.542 1.323 1.646c.783.985 1.452 1.81 2.088 2.459.74.747 1.488 1.327 2.741 1.348h.172a.44.44 0 01.301.104.332.332 0 01.115.244v.015c0 .09-.034.178-.097.244a.456.456 0 01-.35.125H78.35c-1.265 0-1.69-.122-2.233-.405-.412-.214-.922-.595-2.34-2.509l-2.305-3.069c-.052-.056-.07-.056-.088-.056h-.015l-2.211-.036v1.81c0 .166 0 .806.033 1.488a9.08 9.08 0 00.165 1.625c.064.179.103.232.202.298.222.09.46.137.7.137l.3.018h.076a.48.48 0 01.226.047.341.341 0 01.166.298.384.384 0 01-.302.357c-.128.032-.26.046-.391.042-.23 0-.473-.027-.603-.033l-.018-.018zm.108-7.176c.284.051.571.08.86.086h.346c.343.03.688-.032 1-.176.313-.145.58-.369.777-.649.42-.662.63-1.433.603-2.214 0-1.137-.277-2.033-.904-2.7-.337-.363-.943-.845-2.178-.848-.39-.03-.783.001-1.163.092v6.185c.204.116.431.187.665.209l-.005.015zM85.608 46.967h-.021a11.365 11.365 0 00-.904-.038h-.301c-.968 0-1.28.056-1.856.056a.609.609 0 01-.232-.033.382.382 0 01-.235-.35.33.33 0 01.063-.2.394.394 0 01.325-.15h.172a.91.91 0 00.503-.157c.109-.071.326-.595.302-3.051v-7.266c0-1.866-.052-2.304-.13-2.45-.102-.196-.301-.372-1.09-.38h-.04a.43.43 0 01-.217-.051.351.351 0 01-.157-.46.334.334 0 01.09-.115.51.51 0 01.275-.104h.15c1.36.039 1.709.057 1.965.057h.518c.624 0 .56-.057 1.552-.057h.114c.07 0 .14.013.205.039a.382.382 0 01.223.348.326.326 0 01-.13.256.608.608 0 01-.337.107l-.244.018c-.334.045-.446.134-.533.316-.106.217-.139.645-.136 2.443v7.302c0 .455.03 2.328.181 2.768.021.11.084.206.175.271.173.088.365.134.56.134l.217.02c.08.005.158.014.235.03a.35.35 0 01.262.334.366.366 0 01-.259.345.804.804 0 01-.283.04c-.356 0-.702-.019-.997-.019l.015-.003zM96.725 46.928h-.478c-.157 0-.329.021-.507.021-.373.018-.756.018-1.123.036h-.142a.464.464 0 01-.301-.137.366.366 0 01-.094-.247.328.328 0 01.238-.318.911.911 0 01.175-.024l.337-.039c.332-.062.374-.16.48-.42.039-.095.138-.497.138-1.848v-2.084a3.883 3.883 0 00-.413-1.875c-.19-.34-.38-.676-.644-1.107l-2.128-3.424c-.985-1.595-1.54-2.053-1.807-2.232-.187-.114-.39-.2-.603-.253-.096-.039-.214.018-.416-.143a.326.326 0 01-.093-.238.355.355 0 01.271-.34.796.796 0 01.214-.026c.41 0 .817.02 1.205.039.175 0 .329.02.461.017h.44c.467 0 .54-.056 1.398-.056h.115a.47.47 0 01.186.033.324.324 0 01.184.297.346.346 0 01-.178.298c-.078.042-.123.048-.123.053l-.124.06c-.123.066-.1.08-.111.146.023.22.1.43.223.613.226.429 2.537 4.322 3.314 5.602.482-.917 1.072-1.956 2.989-5.194a1.45 1.45 0 00.301-.813.648.648 0 00-.024-.223c-.03-.071-.045-.095-.118-.122l-.174-.056a.449.449 0 01-.16-.087.348.348 0 01-.114-.268.326.326 0 01.186-.297.5.5 0 01.22-.048c.153 0 .306.006.458.02.603.037.717.037.768.037h.193c.175 0 .371-.018.693-.018.341-.018.494-.04.705-.04h.467c.078.007.154.02.229.04a.33.33 0 01.229.297.372.372 0 01-.232.34.627.627 0 01-.241.044l-.199.018c-.602.045-1.253.75-1.506 1.122a28.697 28.697 0 00-1.92 2.977l-1.262 2.158c-.518.893-.705 1.128-.714 2.646v2.084c0 .348.036 1.128.057 1.408-.002.184.039.366.118.533a.564.564 0 00.464.297l.28.039s.413.033.458.03h.079c.063 0 .125.012.183.035a.336.336 0 01.205.298.368.368 0 01-.259.346.795.795 0 01-.283.038c-.723 0-1.41-.056-2.11-.056l-.06.011zM116.403 46.985h-1.808c-.301 0-1.109-.018-1.359-.038a.721.721 0 01-.416-.11.327.327 0 01-.126-.254.328.328 0 01.174-.312.424.424 0 01.103-.036.24.24 0 000-.053.587.587 0 00-.021-.167l-1.754-4.596h-4.052l-1.148 3.343a3.435 3.435 0 00-.253 1.116c0 .217.066.265.157.321.104.05.219.074.334.069h.19a.61.61 0 01.196.03.337.337 0 01.232.318.374.374 0 01-.232.345.66.66 0 01-.244.04h-.049c-.325 0-.602-.04-.879-.037h-.076c-.208 0-.382-.02-.557-.02h-.301c-1.299 0-1.067.038-1.841.056h-.133c-.232 0-.443-.092-.467-.345v-.089a.392.392 0 01.268-.298c.098-.028.2-.04.302-.036h.226c.268.008.53-.08.738-.247.241-.2.518-.595.816-1.396l4.348-11.749c.067-.26.176-.507.322-.732a.433.433 0 01.323-.16c.283.029.355.214.443.35.072.138.132.282.18.43.244.669.552 1.33.82 2.017.385.95.732 1.917 1.094 2.86 2.181 5.713 2.681 6.826 2.961 7.377.268.548.603 1.12 1.368 1.232.259.042.407 0 .603.063a.342.342 0 01.22.17.44.44 0 01.036.151.346.346 0 01-.127.262.463.463 0 01-.196.093 1.288 1.288 0 01-.322.03h-.09l-.003.002zm-5.632-6.727l-1.663-4.673-1.575 4.673h3.238zM20.19 17.308c-.375 0-.742.11-1.053.316a1.877 1.877 0 00-.698.84 1.851 1.851 0 00.41 2.04 1.916 1.916 0 002.065.406 1.89 1.89 0 00.851-.69 1.856 1.856 0 00-.236-2.363 1.907 1.907 0 00-1.34-.549z"/><path d="M0 46.86V7.02h40.325v39.84H0zm.904-.893h38.505V7.926H.919v38.026l-.015.015z"/><path d="M1.175 26.94a18.557 18.557 0 011.44-7.18 18.739 18.739 0 014.114-6.09 18.997 18.997 0 016.16-4.068 19.182 19.182 0 017.267-1.43c5.038 0 9.87 1.978 13.433 5.498a18.654 18.654 0 015.564 13.27c0 2.464-.492 4.904-1.447 7.18a18.74 18.74 0 01-4.118 6.086 18.998 18.998 0 01-6.163 4.064 19.18 19.18 0 01-7.269 1.423 19.099 19.099 0 01-13.421-5.492 18.639 18.639 0 01-5.56-13.26zm6.21-12.63a17.785 17.785 0 00-3.93 5.792 17.611 17.611 0 00-1.376 6.838 17.614 17.614 0 001.371 6.836 17.787 17.787 0 003.923 5.791 18.025 18.025 0 005.863 3.877 18.197 18.197 0 006.92 1.353 18.192 18.192 0 006.921-1.353 18.016 18.016 0 005.863-3.877 17.787 17.787 0 003.922-5.791 17.613 17.613 0 001.372-6.836 17.61 17.61 0 00-1.37-6.837 17.786 17.786 0 00-3.924-5.792 18.032 18.032 0 00-5.863-3.878 18.207 18.207 0 00-6.92-1.355 18.214 18.214 0 00-6.921 1.356 18.04 18.04 0 00-5.863 3.877h.012z"/><path d="M20.156 35.763H4.694l7.734-13.234 7.337-12.555.397-.682 7.734 13.237 7.734 13.234H20.156zm-6.93-12.781L6.297 34.87h27.762l-6.93-11.877-6.93-11.876-6.93 11.876-.041-.011z"/><path d="M21.202 23.365c1.792-.193 3.724-.773 4.26-1.598.11-.35.174-.712.19-1.078 0 0-1.58 1.262-5.466 1.262-4.136 0-5.513-1.262-5.513-1.262 0 .366.058.73.171 1.078.302.542 1.429.893 2.495 1.226 3.477 1.036 4.194 2.977 4.294 3.944 0 .747.277 1.54-2.025.596-1.404-.596-1.477.146-1.507.369-.072.527.024 3.599 1.808 5.358 1.507 1.488 2.474 1.488 2.474 1.488s-1.724-1.929-2.11-3.337a5.396 5.396 0 01-.096-2.491l2.374.714s2.188-3.22-1.35-6.269zM20.777 19.356l.949-.684H20.55l-.362-1.105-.364 1.105H18.65l.949.684-.362 1.101.952-.681.952.681-.364-1.1z"/><path d="M20.19 16.677a2.54 2.54 0 00-1.4.42 2.495 2.495 0 00-.928 1.116 2.46 2.46 0 00.546 2.712 2.547 2.547 0 002.745.54c.46-.189.854-.508 1.13-.917a2.467 2.467 0 00-.313-3.142 2.535 2.535 0 00-1.78-.729zm0 4.14c-.331 0-.655-.096-.93-.278a1.657 1.657 0 01-.615-.741 1.634 1.634 0 01.362-1.8 1.69 1.69 0 011.822-.358c.306.124.567.336.75.608a1.638 1.638 0 01-.207 2.086c-.314.31-.74.483-1.183.483z"/></g></svg>