<?xml version="1.0" encoding="utf-8"?><svg width="134" height="53" fill="none" xmlns="http://www.w3.org/2000/svg" viewBox="0 0 134 53"><g opacity=".65" clip-path="url(#kclip0_424_52)" fill-rule="evenodd" clip-rule="evenodd" fill="#000"><path d="M38.592 15.471v13.235h3.097V17.975h6.075v10.73h3.096V15.472H38.593zm23.525 13.473c4.228 0 7.384-2.92 7.384-6.856 0-3.934-3.156-6.855-7.385-6.855-4.288 0-7.384 2.92-7.384 6.855 0 3.935 3.096 6.856 7.385 6.856zm0-2.623c-2.442 0-4.229-1.729-4.229-4.233 0-2.503 1.787-4.232 4.229-4.232 2.441 0 4.228 1.729 4.228 4.232 0 2.504-1.846 4.233-4.228 4.233zm12.447-10.85l-.18 5.366c-.118 3.398-.535 5.365-2.143 5.365-.179 0-.357 0-.536-.06l-.179 2.564c.596.119 1.072.179 1.549.179 3.156 0 3.93-2.981 4.109-8.168l.12-2.742h4.644v10.73h3.097V15.472H74.564zM89.69 28.706h2.977L99.1 20.12v8.585h3.097V15.47h-2.918l-6.491 8.644v-8.644H89.69v13.235zm25.966 0h3.573l-4.586-6.856 4.408-6.379h-3.276l-3.573 5.366h-2.263V15.47h-3.097v13.235h3.097V23.4h2.144l3.573 5.306zm12.745.238c2.382 0 4.288-.834 5.598-2.384l-2.025-1.789c-.893 1.014-2.025 1.55-3.395 1.55-2.501 0-4.347-1.729-4.347-4.233 0-2.503 1.787-4.232 4.347-4.232 1.37 0 2.502.536 3.395 1.55L134 17.617c-1.251-1.49-3.216-2.325-5.539-2.325-4.228 0-7.325 2.862-7.325 6.856-.06 3.935 3.037 6.796 7.266 6.796zM43.297 32.521h-5.181v7.154h1.37v-6.021h3.751l.06-1.133zm4.705 0h-3.097v7.154h1.43V37.59h1.726c1.966 0 3.216-.954 3.216-2.564-.06-1.55-1.31-2.504-3.275-2.504zm-.06 3.995h-1.667v-2.862h1.667c1.25 0 1.846.536 1.846 1.43 0 .895-.655 1.431-1.846 1.431zm10.005-3.995l-2.322 4.233-2.263-4.233h-1.49l3.038 5.366-.119.178c-.298.477-.655.656-1.131.656-.239 0-.477-.06-.715-.119l-.358 1.014c.358.178.775.238 1.132.238.893 0 1.727-.477 2.323-1.55l3.275-5.783h-1.37zm2.74 0v7.154h1.37v-6.021h3.93v6.021h1.37v-7.154h-6.67zm9.29 0v7.154h1.37v-6.021h3.931v6.021h1.37v-7.154h-6.67zM12.15 26.083c2.441-2.743 3.334-5.306 7.86-6.14 5.837-1.133 5.897.059 9.47 1.668-.893-10.075-17.33-5.067-17.33 4.472zM5.181 34.25c8.16 7.273 17.45-2.385 14.77-7.988C18.88 38.9-.834 28.885 5.181 34.25z"/><path d="M1.668 20.598l-.715 1.55c-1.906 6.856 3.871 10.314 10.541 9.539 2.68-.299 4.526-1.49 6.492-2.504-1.43-.716-5.658 2.683-11.078-2.146-4.943-4.352-.774-15.023-5.24-6.439zM14.889 23.758c1.072.477 2.74-.537 4.764-.418 2.383.18 4.705 1.431 6.194 2.922 1.846 1.788 3.157 4.947 2.68 7.69l-.417 2.265c8.16-2.086 3.574-22.534-13.221-12.46z"/><path d="M7.683 25.606c1.131 1.43 3.394 3.22 5.538 3.398l-1.37-1.192c-6.491-5.247 6.016-16.633 12.329-12.52.476-7.928-26.562-2.503-16.497 10.314zM24.596 27.692c-1.131-1.43-3.394-3.219-5.538-3.398l1.37 1.192c6.491 5.247-6.016 16.633-12.328 12.58-.477 7.928 26.561 2.444 16.496-10.374z"/></g><defs><clipPath id="kclip0_424_52"><path fill="#fff" d="M0 0h134v53H0z"/></clipPath></defs></svg>