<?xml version="1.0" encoding="utf-8"?><svg width="184" height="53" fill="none" xmlns="http://www.w3.org/2000/svg" viewBox="0 0 184 53"><g opacity=".7"><path d="M31 35.8l-6.2 6.198L1.867 42 0 40.132V17.2L6.2 11h22.932L31 12.867V35.8z" fill="#000"/><path d="M29.132 11l-6.972 6.972V28.15l-5.712-7.848H4.408v2.466h3.55v9.408L0 40.132V42l1.866-.002 8.765-8.764V22.767h3.548v9.932h2.64V24.85l5.712 7.849H24.8V19.066l6.2-6.199L30.998 11h-1.867z" fill="#fff"/><path d="M40.919 23.311h-3.72v-3.01h10.876v3.01h-3.719V32.7H40.92v-9.387zM49.882 20.3h9.972v2.922h-6.57v1.88h5.95v2.71h-5.95v1.965h6.66V32.7H49.881V20.301zM65.601 26.394L61.526 20.3h3.951l2.196 3.489 2.215-3.49h3.86l-4.072 6.058 4.251 6.341h-3.95L67.6 28.962l-2.39 3.737H61.35l4.251-6.305zM75.552 20.3h3.436v4.642H83.4V20.3h3.437v12.398h-3.437v-4.712h-4.41v4.712h-3.437V20.301zM88.9 26.5c0-3.561 2.87-6.448 6.696-6.448 3.825 0 6.659 2.852 6.659 6.448 0 3.56-2.87 6.448-6.694 6.448-3.828 0-6.661-2.853-6.661-6.448zm9.848 0c0-1.79-1.293-3.349-3.188-3.349-1.879 0-3.136 1.524-3.136 3.349 0 1.79 1.294 3.346 3.172 3.346 1.894 0 3.152-1.522 3.152-3.346zM104.335 20.3h3.438v4.642h4.409V20.3h3.438v12.398h-3.438v-4.712h-4.409v4.712h-3.438V20.301zM118.293 20.3h3.402v6.979l4.802-6.978h3.204v12.398H126.3v-6.978l-4.801 6.978h-3.206V20.301zM132.376 20.3h3.436v5.032l4.269-5.031h4.074l-4.693 5.33 4.852 7.068h-4.126l-3.117-4.604-1.259 1.398V32.7h-3.436V20.3zM144.341 26.5c0-3.561 2.868-6.448 6.694-6.448 3.827 0 6.662 2.852 6.662 6.448 0 3.56-2.871 6.448-6.696 6.448-3.827 0-6.66-2.853-6.66-6.448zm9.846 0c0-1.79-1.29-3.349-3.186-3.349-1.879 0-3.135 1.524-3.135 3.349 0 1.79 1.292 3.346 3.169 3.346 1.896 0 3.152-1.522 3.152-3.346zM173.05 20.3h3.436v3.896h1.878c2.976 0 5.156 1.418 5.156 4.215 0 2.677-1.949 4.288-4.978 4.288h-5.492V20.301zm5.226 9.512c1.133 0 1.807-.514 1.807-1.488 0-.867-.674-1.434-1.79-1.434h-1.807v2.922h1.79zM160.739 20.3v5.44c0 1.285-.13 3.145-.979 3.803-.398.308-1.055.544-1.472.544v2.923h.326c1.189 0 2.52-.478 3.031-.802 2.073-1.316 2.329-3.82 2.329-6.646v-2.25h2.966v9.387h3.437V20.3h-9.638z" fill="#000"/></g></svg>