<?xml version="1.0" encoding="utf-8"?><svg width="158" height="53" fill="none" xmlns="http://www.w3.org/2000/svg" viewBox="0 0 158 53"><g opacity=".7"><g clip-path="url(#hclip0_471_43)" fill="#000"><path fill-rule="evenodd" clip-rule="evenodd" d="M81.475 16.576c.908-3.393 4.068-5.708 7.605-5.57 4.674 0 7.92 3.299 7.92 8 0 4.702-3.264 7.988-7.938 7.988-3.537.138-6.697-2.177-7.604-5.57v-.075h-1.85v5.292H74V11.337h5.626v5.314h1.85v-.075zm5.36 2.413c0 2.196 1.129 3.193 2.178 3.193 1.05 0 2.18-1.001 2.18-3.193s-1.13-3.193-2.18-3.193c-1.05 0-2.179.997-2.179 3.193zM150.051 11c4.669 0 7.927 3.287 7.949 7.997h-.027c0 4.71-3.257 7.997-7.922 7.997-3.534.145-6.695-2.173-7.603-5.576v-.08h-1.851v5.324H135v-15.33h5.597v5.323h1.86v-.075c.017-.074 1.292-5.58 7.594-5.58zm-.045 4.798c-1.047 0-2.175.99-2.175 3.199 0 2.2 1.128 3.198 2.175 3.198 1.048 0 2.175-1.002 2.175-3.198 0-2.196-1.127-3.199-2.175-3.199zM105.699 16.453c.155-.014 1.184-.105 2.41-.105 3.527 0 5.891 1.939 5.891 4.828 0 3.021-2.616 4.824-7 4.824-2.139 0-4.534-.068-7-.204V11h12.007v3.878h-6.434v1.576h.106l.02-.001zm-.126 5.993h1.56c.792.05 1.483-.516 1.56-1.278-.077-.763-.768-1.328-1.56-1.279h-1.56v2.557zM62.772 30C67.436 30 70 31.828 70 35.144v-.01c0 3.129-2.387 5.149-6.083 5.149-.899 0-2.053-.107-2.053-.107h-.11V45H56V30.204c.552-.034 3.495-.204 6.772-.204zm-1.018 6.571h1.141c.58.051 1.14-.209 1.448-.67a1.352 1.352 0 000-1.51c-.307-.462-.868-.722-1.448-.67h-1.14v2.85z"/><path d="M93.777 34.638V30H81.45v4.582h5.275L81 40.357V45h13v-4.587h-5.943l5.72-5.775zM109.777 34.638V30H97.446v4.582h5.276L97 40.357V45h13v-4.587h-5.945l5.722-5.775zM56.82 15.562h1.331v.104c-.352 5.716-1.38 6.885-2.812 6.885H55v4.133c.681.194 1.383.3 2.09.316 2.846 0 6.24-1.967 6.24-11.339v-.1h2.177v11.096H71V11H56.82v4.562zM116.824 15.562h1.337v.104c-.353 5.716-1.38 6.885-2.808 6.885H115v4.133a8.36 8.36 0 002.09.316c2.847 0 6.243-1.967 6.243-11.339v-.1h2.177v11.096H131V11h-14.176v4.562zM71 34.366h1.618V45H78V30h-7v4.366z"/><path fill-rule="evenodd" clip-rule="evenodd" d="M113.615 34.366V30h9.999L128 45h-6.079l-.431-2.161h-2.975L118.083 45H112l3.113-10.634h-1.498zM120 34.18l-1.006 5.187h2.012L120 34.18z"/></g><path d="M0 44a3 3 0 003 3h34a3 3 0 003-3V10a3 3 0 00-3-3H3a3 3 0 00-3 3v34z" fill="#000"/><path d="M19.817 39.312S6.396 29.443 6.396 22.442a7.217 7.217 0 0113.607-3.353 7.212 7.212 0 0113.602 3.353c0 7.016-13.788 16.87-13.788 16.87z" fill="#fff"/></g><defs><clipPath id="hclip0_471_43"><path fill="#fff" transform="translate(55 5.3)" d="M0 0h103v45.05H0z"/></clipPath></defs></svg>