<?xml version="1.0" encoding="utf-8"?><svg width="174" height="53" fill="none" xmlns="http://www.w3.org/2000/svg" viewBox="0 0 174 53"><g opacity=".75"><g clip-path="url(#dclip0_471_16)"><path d="M17.916 0c4.92 0 9.406 2.01 12.651 5.241 3.246 3.232 5.264 7.698 5.264 12.598v17.334c0 4.912-2.018 9.366-5.264 12.597A17.9 17.9 0 0117.916 53a17.88 17.88 0 01-12.652-5.23C2.018 44.527 0 40.073 0 35.161V17.839c0-4.912 2.018-9.366 5.264-12.598C8.509 2.01 12.982 0 17.916 0zm-4.662 2.339c.283.446.53.928.72 1.433.33.858.507 1.787.507 2.75a7.76 7.76 0 01-7.79 7.756c-.979 0-1.935-.188-2.808-.517a8.288 8.288 0 01-1.475-.752 16.041 16.041 0 00-.744 4.842v17.334c0 4.453 1.83 8.496 4.78 11.434l.142.14 2.195-2.185v-9.307c-.697.54-1.664.916-3.045.916v-1.657c2.608 0 2.998-2.08 3.045-2.914v-.117-.095c-.697.541-1.664.917-3.045.917V30.66c2.608 0 2.998-2.08 3.045-2.914v-.118-.094c-.697.54-1.664.917-3.045.917v-1.657c2.608 0 2.998-2.08 3.045-2.915v-.117-.27-.047l.826.047.826-.047v.434c.047.835.437 2.915 3.045 2.915v1.657c-1.38 0-2.349-.376-3.045-.917v.212c.047.834.437 2.914 3.045 2.914v1.657c-1.38 0-2.349-.376-3.045-.917V31.612c.047.834.437 2.914 3.045 2.914v1.657c-1.38 0-2.349-.376-3.045-.916v7.627l6.645-6.617v-9.225c-.697.54-1.664.917-3.045.917v-1.657c2.608 0 2.997-2.08 3.045-2.914v-.118-.094c-.697.54-1.664.917-3.045.917v-1.657c2.608 0 2.997-2.08 3.045-2.915v-.117-.094c-.697.54-1.664.916-3.045.916V18.58c2.608 0 2.997-2.08 3.045-2.914v-.117-.271-.047l.826.047.826-.047v.435c.047.834.436 2.914 3.045 2.914v1.657c-1.381 0-2.349-.376-3.045-.916V19.53c.047.835.436 2.915 3.045 2.915v1.657c-1.381 0-2.349-.376-3.045-.917v.212c.047.834.436 2.914 3.045 2.914v1.657c-1.381 0-2.349-.376-3.045-.917v7.568l6.644-6.616v-9.143c-.696.541-1.664.917-3.044.917v-1.657c2.608 0 2.997-2.08 3.044-2.914v-.118-.094c-.696.54-1.664.917-3.044.917v-1.657c2.608 0 2.997-2.08 3.044-2.915v-.117-.094c-.696.54-1.664.917-3.044.917V10.4c2.608 0 2.997-2.08 3.044-2.914v-.118-.27-.047l.827.047.826-.047v.435c.047.834.436 2.914 3.045 2.914v1.657c-1.381 0-2.349-.376-3.045-.916V11.352c.047.835.436 2.915 3.045 2.915v1.657c-1.381 0-2.349-.377-3.045-.917V15.218c.047.835.436 2.915 3.045 2.915v1.657c-1.381 0-2.349-.376-3.045-.917v7.498l7.116-7.086V17.85c0-4.454-1.829-8.497-4.78-11.435-2.95-2.938-7.01-4.759-11.483-4.759-1.581 0-3.151.235-4.626.682zM3.01 11.399c.448.33.944.611 1.463.811.684.258 1.428.4 2.207.4a6.124 6.124 0 004.331-1.787 6.072 6.072 0 001.794-4.313 6.22 6.22 0 00-.39-2.162 6.23 6.23 0 00-.778-1.434 16.518 16.518 0 00-5.205 3.49A16.6 16.6 0 003.01 11.4zm31.157 10.212L7.825 47.83a17.07 17.07 0 002.03 1.375l24.3-24.197v-3.396h.012zm-22.743 28.38c.815.353 1.665.647 2.55.87l20.193-20.107v-3.408L11.424 49.992zm4.52 1.234c.65.083 1.299.118 1.96.118.472 0 .932-.024 1.392-.059l14.812-14.736c.035-.459.059-.917.059-1.387v-2.08L15.945 51.225zm6.22-.446a16.29 16.29 0 007.223-4.184 16.209 16.209 0 004.202-7.192L22.164 50.78z" fill="#000"/></g><path d="M51.665 12.32c1.04 0 1.97.235 2.79.705a4.97 4.97 0 011.95 1.935c.47.82.705 1.75.705 2.79s-.235 1.975-.705 2.805a5.105 5.105 0 01-1.95 1.935c-.82.46-1.75.69-2.79.69-.93 0-1.77-.16-2.52-.48a4.863 4.863 0 01-1.86-1.395l1.545-1.44c.74.83 1.645 1.245 2.715 1.245.77 0 1.42-.225 1.95-.675.54-.45.89-1.055 1.05-1.815h-4.26v-1.86h4.23c-.17-.72-.52-1.295-1.05-1.725-.53-.43-1.17-.645-1.92-.645-1.07 0-1.975.415-2.715 1.245l-1.545-1.44c.5-.61 1.12-1.075 1.86-1.395.75-.32 1.59-.48 2.52-.48zm13.213 6.45h-1.68V23h-2.415V12.5h2.415v4.245h1.74l2.76-4.245h2.565l-3.435 5.07 3.54 5.43h-2.76l-2.73-4.23zm13.394 4.41c-1.09 0-2.075-.235-2.955-.705a5.318 5.318 0 01-2.055-1.935c-.49-.83-.735-1.76-.735-2.79s.245-1.955.735-2.775c.5-.83 1.185-1.48 2.055-1.95.88-.47 1.865-.705 2.955-.705s2.07.235 2.94.705c.87.47 1.555 1.12 2.055 1.95.5.82.75 1.745.75 2.775 0 1.03-.25 1.96-.75 2.79a5.318 5.318 0 01-2.055 1.935c-.87.47-1.85.705-2.94.705zm0-2.07c.62 0 1.18-.14 1.68-.42.5-.29.89-.69 1.17-1.2.29-.51.435-1.09.435-1.74 0-.65-.145-1.23-.435-1.74-.28-.51-.67-.905-1.17-1.185-.5-.29-1.06-.435-1.68-.435-.62 0-1.18.145-1.68.435-.5.28-.895.675-1.185 1.185-.28.51-.42 1.09-.42 1.74 0 .65.14 1.23.42 1.74.29.51.685.91 1.185 1.2.5.28 1.06.42 1.68.42zm8.951-3.27h4.245v1.875h-4.245V17.84zm12.176.93h-1.68V23h-2.415V12.5h2.415v4.245h1.74l2.76-4.245h2.565l-3.435 5.07 3.54 5.43h-2.76l-2.73-4.23zm18.099-6.27l-4.47 8.31c-.43.8-.95 1.405-1.56 1.815-.6.41-1.255.615-1.965.615-.55 0-1.12-.12-1.71-.36l.585-1.845c.42.13.77.195 1.05.195.3 0 .57-.07.81-.21.24-.15.46-.38.66-.69l.09-.12-4.14-7.71h2.595l2.79 5.64 2.88-5.64h2.385zm7.5 0c.93 0 1.735.155 2.415.465.69.31 1.22.75 1.59 1.32.37.57.555 1.245.555 2.025 0 .77-.185 1.445-.555 2.025-.37.57-.9 1.01-1.59 1.32-.68.3-1.485.45-2.415.45h-2.115V23h-2.43V12.5h4.545zm-.135 5.625c.73 0 1.285-.155 1.665-.465.38-.32.57-.77.57-1.35 0-.59-.19-1.04-.57-1.35-.38-.32-.935-.48-1.665-.48h-1.98v3.645h1.98zm13.254 5.055c-1.09 0-2.075-.235-2.955-.705a5.318 5.318 0 01-2.055-1.935c-.49-.83-.735-1.76-.735-2.79s.245-1.955.735-2.775c.5-.83 1.185-1.48 2.055-1.95.88-.47 1.865-.705 2.955-.705s2.07.235 2.94.705c.87.47 1.555 1.12 2.055 1.95.5.82.75 1.745.75 2.775 0 1.03-.25 1.96-.75 2.79a5.318 5.318 0 01-2.055 1.935c-.87.47-1.85.705-2.94.705zm0-2.07c.62 0 1.18-.14 1.68-.42.5-.29.89-.69 1.17-1.2.29-.51.435-1.09.435-1.74 0-.65-.145-1.23-.435-1.74-.28-.51-.67-.905-1.17-1.185-.5-.29-1.06-.435-1.68-.435-.62 0-1.18.145-1.68.435-.5.28-.895.675-1.185 1.185-.28.51-.42 1.09-.42 1.74 0 .65.14 1.23.42 1.74.29.51.685.91 1.185 1.2.5.28 1.06.42 1.68.42zm13.962-8.61c.93 0 1.735.155 2.415.465.69.31 1.22.75 1.59 1.32.37.57.555 1.245.555 2.025 0 .77-.185 1.445-.555 2.025-.37.57-.9 1.01-1.59 1.32-.68.3-1.485.45-2.415.45h-2.115V23h-2.43V12.5h4.545zm-.135 5.625c.73 0 1.285-.155 1.665-.465.38-.32.57-.77.57-1.35 0-.59-.19-1.04-.57-1.35-.38-.32-.935-.48-1.665-.48h-1.98v3.645h1.98zm15.83-3.645h-3.36V23h-2.4v-8.52h-3.345V12.5h9.105v1.98zM53.38 43l-2.794-3.795.891-.55L54.634 43H53.38zm-5.181 0v-7.7h1.078V43h-1.078zm.748-3.388v-.968h2.497v.968h-2.497zm2.629-.341l-1.012-.154 2.761-3.817h1.177l-2.926 3.971zm8.729 3.817a4.458 4.458 0 01-1.639-.297 3.964 3.964 0 01-1.298-.825 3.895 3.895 0 01-.858-1.254 3.907 3.907 0 01-.308-1.562c0-.565.103-1.085.308-1.562.205-.477.491-.891.858-1.243.367-.36.8-.638 1.298-.836a4.403 4.403 0 011.639-.297c.587 0 1.126.099 1.617.297.499.19.931.466 1.298.825.374.352.66.766.858 1.243.205.477.308 1.001.308 1.573 0 .572-.103 1.096-.308 1.573a3.677 3.677 0 01-.858 1.254c-.367.352-.8.627-1.298.825-.491.19-1.03.286-1.617.286zm0-.979c.425 0 .818-.073 1.177-.22a2.78 2.78 0 001.573-1.562c.154-.36.231-.752.231-1.177 0-.425-.077-.818-.231-1.177a2.728 2.728 0 00-.627-.935 2.703 2.703 0 00-.946-.627 3.085 3.085 0 00-1.177-.22c-.433 0-.832.073-1.199.22-.36.147-.675.356-.946.627a2.864 2.864 0 00-.638.935c-.147.36-.22.752-.22 1.177 0 .425.073.818.22 1.177.154.36.367.675.638.946.271.264.587.47.946.616.367.147.766.22 1.199.22zm6.381.979c-.11 0-.22-.007-.33-.022a4.342 4.342 0 01-.363-.066l.077-.979c.118.03.235.044.352.044a.91.91 0 00.77-.385c.191-.257.33-.645.418-1.166.096-.52.158-1.177.187-1.969l.121-3.245h5.423V43h-1.078v-7.029l.264.286h-3.905l.242-.297-.088 2.552c-.022.763-.073 1.43-.154 2.002-.08.572-.201 1.049-.363 1.43-.16.381-.37.667-.627.858-.249.19-.564.286-.946.286zM82.021 43l-2.794-3.795.89-.55L83.276 43H82.02zm-5.181 0v-7.7h1.078V43H76.84zm.748-3.388v-.968h2.497v.968h-2.497zm2.629-.341l-1.012-.154 2.76-3.817h1.178l-2.926 3.971zm5.306 2.761c.382.14.734.176 1.056.11.323-.073.613-.319.87-.737l.373-.594.11-.121 2.827-5.39h1.09l-3.422 6.336c-.256.484-.557.85-.902 1.1a2.05 2.05 0 01-1.1.396 2.477 2.477 0 01-1.188-.22l.286-.88zm2.376-.363L84.522 35.3H85.7l2.805 5.489-.605.88zM99.612 35.3h1.1V43h-1.1v-7.7zM95.19 43h-1.1v-7.7h1.1V43zm4.52-3.432h-4.63v-.957h4.63v.957zm7.968 3.52a4.457 4.457 0 01-1.639-.297 3.964 3.964 0 01-1.298-.825 3.885 3.885 0 01-.858-1.254 3.912 3.912 0 01-.308-1.562c0-.565.103-1.085.308-1.562.205-.477.491-.891.858-1.243.367-.36.799-.638 1.298-.836a4.404 4.404 0 011.639-.297c.587 0 1.126.099 1.617.297.499.19.931.466 1.298.825.374.352.66.766.858 1.243a3.94 3.94 0 01.308 1.573 3.94 3.94 0 01-.308 1.573 3.677 3.677 0 01-.858 1.254 3.964 3.964 0 01-1.298.825 4.43 4.43 0 01-1.617.286zm0-.979c.425 0 .818-.073 1.177-.22a2.778 2.778 0 001.573-1.562c.154-.36.231-.752.231-1.177 0-.425-.077-.818-.231-1.177a2.736 2.736 0 00-.627-.935 2.7 2.7 0 00-.946-.627 3.085 3.085 0 00-1.177-.22c-.433 0-.832.073-1.199.22a2.844 2.844 0 00-.946.627 2.868 2.868 0 00-.638.935c-.147.36-.22.752-.22 1.177 0 .425.073.818.22 1.177.154.36.367.675.638.946.271.264.587.47.946.616.367.147.766.22 1.199.22zm6.959.891v-7.7h3.311c.836 0 1.493.169 1.969.506.477.337.715.829.715 1.474 0 .63-.227 1.115-.682 1.452-.454.33-1.052.495-1.793.495l.198-.33c.858 0 1.515.172 1.969.517.462.337.693.832.693 1.485 0 .66-.242 1.177-.726 1.551-.476.367-1.188.55-2.134.55h-3.52zm1.089-.869h2.409c.587 0 1.027-.106 1.32-.319.301-.22.451-.554.451-1.001 0-.447-.15-.774-.451-.979-.293-.205-.733-.308-1.32-.308h-2.409v2.607zm0-3.443h2.145c.536 0 .943-.106 1.221-.319.286-.213.429-.524.429-.935 0-.418-.143-.733-.429-.946-.278-.213-.685-.319-1.221-.319h-2.145v2.519zm11.694 4.4a4.457 4.457 0 01-1.639-.297 3.964 3.964 0 01-1.298-.825 3.885 3.885 0 01-.858-1.254 3.912 3.912 0 01-.308-1.562c0-.565.103-1.085.308-1.562.205-.477.491-.891.858-1.243.367-.36.799-.638 1.298-.836a4.404 4.404 0 011.639-.297c.587 0 1.126.099 1.617.297.499.19.931.466 1.298.825.374.352.66.766.858 1.243a3.94 3.94 0 01.308 1.573 3.94 3.94 0 01-.308 1.573 3.677 3.677 0 01-.858 1.254 3.964 3.964 0 01-1.298.825 4.43 4.43 0 01-1.617.286zm0-.979c.425 0 .818-.073 1.177-.22a2.778 2.778 0 001.573-1.562c.154-.36.231-.752.231-1.177 0-.425-.077-.818-.231-1.177a2.736 2.736 0 00-.627-.935 2.7 2.7 0 00-.946-.627 3.085 3.085 0 00-1.177-.22c-.433 0-.832.073-1.199.22a2.844 2.844 0 00-.946.627 2.868 2.868 0 00-.638.935c-.147.36-.22.752-.22 1.177 0 .425.073.818.22 1.177.154.36.367.675.638.946.271.264.587.47.946.616.367.147.766.22 1.199.22zm6.462-1.672v-.913h2.959v.913h-2.959zM140.973 43v-7.029l.275.286h-2.904V35.3h6.347v.957h-2.904l.264-.286V43h-1.078zm6.155 0v-7.7h1.089v5.94l4.554-5.94h1.012V43h-1.078v-5.929L148.14 43h-1.012zm10.156 0v-7.7h3.003c.674 0 1.25.106 1.727.319.476.213.843.52 1.1.924.256.403.385.884.385 1.441s-.129 1.038-.385 1.441c-.257.396-.624.704-1.1.924-.477.213-1.053.319-1.727.319h-2.398l.495-.517V43h-1.1zm1.1-2.739l-.495-.55h2.365c.704 0 1.235-.15 1.595-.451.366-.3.55-.726.55-1.276s-.184-.975-.55-1.276c-.36-.3-.891-.451-1.595-.451h-2.365l.495-.55v4.554zm11.295 2.827a4.525 4.525 0 01-1.628-.286 4 4 0 01-1.287-.825 4.001 4.001 0 01-.847-1.254 3.94 3.94 0 01-.308-1.573c0-.572.103-1.096.308-1.573.206-.477.492-.891.858-1.243.367-.36.796-.634 1.287-.825a4.376 4.376 0 011.628-.297c.594 0 1.141.103 1.639.308.506.198.935.495 1.287.891l-.715.693a2.788 2.788 0 00-.99-.682 3.006 3.006 0 00-1.177-.231c-.432 0-.836.073-1.21.22a2.916 2.916 0 00-.957.616c-.271.264-.484.58-.638.946-.146.36-.22.752-.22 1.177 0 .425.074.821.22 1.188.154.36.367.671.638.935.272.264.591.47.957.616.374.147.778.22 1.21.22.418 0 .811-.073 1.177-.22.367-.154.697-.389.99-.704l.715.693a3.412 3.412 0 01-1.287.902 4.29 4.29 0 01-1.65.308z" fill="#000"/></g><defs><clipPath id="dclip0_471_16"><path fill="#fff" d="M0 0h35.831v53H0z"/></clipPath></defs></svg>