<?xml version="1.0" encoding="utf-8"?><svg width="134" height="53" fill="none" xmlns="http://www.w3.org/2000/svg" viewBox="0 0 134 53"><g opacity=".7" clip-path="url(#rclip0_424_173)" fill="#000"><path d="M59.215 11.275c.156 0 .255.093.297.277l3.962 14.333a.167.167 0 01-.053.203.354.354 0 01-.224.075h-2.811c-.156 0-.256-.092-.298-.277l-.873-3.192H54.8l-.872 3.192c-.042.185-.142.277-.298.277h-2.811a.352.352 0 01-.224-.075.167.167 0 01-.054-.203l3.962-14.333c.042-.184.141-.277.297-.277h4.416zm-3.28 6.944l-.426 1.597h2.981l-.425-1.597-.98-4.279h-.15l-1 4.28zM77.123 25.842a.23.23 0 010 .235.225.225 0 01-.213.106H73.8a.402.402 0 01-.362-.213l-3.45-5.814h-1.3v5.75a.243.243 0 01-.275.277h-2.77a.245.245 0 01-.276-.276V11.552a.245.245 0 01.277-.277h2.769a.245.245 0 01.276.277v5.706h1.256l3.322-5.773a.408.408 0 01.363-.214h3.049a.204.204 0 01.203.107.256.256 0 01-.01.236l-3.984 6.984 4.235 7.244zM84.735 11.275a7.848 7.848 0 012.066.256c.585.151 1.133.423 1.608.798.452.369.81.84 1.043 1.375.263.626.39 1.3.373 1.98v.19a4.7 4.7 0 01-.714 2.642 4.278 4.278 0 01-1.99 1.619l1.47 2.105 2.086 3.6a.204.204 0 01.021.234.226.226 0 01-.213.107h-3.11a.396.396 0 01-.362-.234l-3.046-5.282h-1.704v5.239a.246.246 0 01-.165.266.243.243 0 01-.112.01h-2.769a.243.243 0 01-.267-.165.246.246 0 01-.01-.111V11.552a.245.245 0 01.277-.277h5.518zm-2.513 6.752h1.959a2.319 2.319 0 001.725-.533 1.911 1.911 0 00.51-1.384v-.107a1.81 1.81 0 00-.5-1.373 2.446 2.446 0 00-1.713-.48h-1.96l-.021 3.877zM97.713 10.999a6.575 6.575 0 012.258.394c.713.256 1.366.659 1.916 1.182a5.652 5.652 0 011.321 1.98c.342.882.508 1.822.49 2.768v2.81a7.253 7.253 0 01-.49 2.769 5.637 5.637 0 01-1.321 1.98 5.462 5.462 0 01-1.916 1.183 6.594 6.594 0 01-2.258.393h-.32a6.588 6.588 0 01-2.257-.393 5.455 5.455 0 01-1.916-1.183 5.59 5.59 0 01-1.32-1.98 7.226 7.226 0 01-.49-2.768v-2.811a7.233 7.233 0 01.49-2.77 5.602 5.602 0 011.32-1.98 5.46 5.46 0 011.916-1.181 6.572 6.572 0 012.258-.394h.319zm-.234 2.874a2.426 2.426 0 00-1.95.81 3.506 3.506 0 00-.69 2.343v3.386c-.059.839.187 1.67.69 2.343a2.422 2.422 0 001.95.81h.17a2.425 2.425 0 001.949-.81c.504-.673.749-1.504.692-2.343v-3.386a3.509 3.509 0 00-.692-2.343 2.427 2.427 0 00-1.949-.81h-.17zM117.132 11.275a.246.246 0 01.277.277v14.354a.25.25 0 01-.069.208.246.246 0 01-.208.069h-3.108a.447.447 0 01-.384-.213l-3.388-6.24-1.596-3.343h-.257l.32 3.343v6.176a.237.237 0 01-.01.112.231.231 0 01-.059.096.245.245 0 01-.207.069h-2.769a.247.247 0 01-.267-.165.25.25 0 01-.01-.112V11.553a.245.245 0 01.165-.267.245.245 0 01.112-.01h3.109a.452.452 0 01.384.213l3.216 5.984 1.766 3.6h.256l-.32-3.6v-5.92a.249.249 0 01.165-.267.243.243 0 01.111-.01h2.771zM62.67 28.725a.248.248 0 01.268.165.246.246 0 01.01.112v14.353a.245.245 0 01-.278.278h-2.767a.245.245 0 01-.277-.278V37.5h-5.24v5.856a.246.246 0 01-.164.267.245.245 0 01-.112.01h-2.77a.244.244 0 01-.276-.277V29.003a.245.245 0 01.277-.277h2.769a.244.244 0 01.266.165.245.245 0 01.01.112v5.6h5.24v-5.6a.246.246 0 01.165-.267.243.243 0 01.112-.01l2.767-.001zM71.13 28.449a6.589 6.589 0 012.257.393c.714.257 1.367.66 1.917 1.183a5.64 5.64 0 011.32 1.98c.343.882.51 1.822.49 2.767v2.811a7.268 7.268 0 01-.49 2.769 5.635 5.635 0 01-1.32 1.98 5.455 5.455 0 01-1.917 1.182 6.574 6.574 0 01-2.258.394h-.32a6.573 6.573 0 01-2.256-.394 5.45 5.45 0 01-1.916-1.181 5.592 5.592 0 01-1.32-1.981 7.227 7.227 0 01-.492-2.769v-2.81a7.232 7.232 0 01.491-2.768 5.596 5.596 0 011.32-1.98 5.464 5.464 0 011.917-1.183 6.59 6.59 0 012.257-.393h.32zm-.235 2.87a2.428 2.428 0 00-1.95.81 3.507 3.507 0 00-.691 2.343v3.387c-.058.838.188 1.67.691 2.343a2.424 2.424 0 001.95.809h.17a2.425 2.425 0 001.95-.81 3.51 3.51 0 00.69-2.342v-3.387a3.507 3.507 0 00-.69-2.342 2.429 2.429 0 00-1.95-.81h-.17zM87.65 40.758a.244.244 0 01.268.165.245.245 0 01.01.113v2.32a.244.244 0 01-.278.277h-8.433a.244.244 0 01-.276-.276V29.003a.245.245 0 01.276-.277h2.77a.245.245 0 01.276.277v11.755h5.387zM95.17 28.704a6.85 6.85 0 012.334.394 5.265 5.265 0 011.916 1.193 5.656 5.656 0 011.298 2.012c.339.92.502 1.896.48 2.876v1.98a7.904 7.904 0 01-.48 2.885 5.653 5.653 0 01-1.298 2.024 5.155 5.155 0 01-1.916 1.181c-.75.26-1.54.389-2.334.384h-5.152a.244.244 0 01-.277-.277V29.003a.245.245 0 01.277-.277l5.152-.022zm2.662 6.453a4.101 4.101 0 00-.747-2.717 2.91 2.91 0 00-2.322-.863H93.06v9.137h1.709a2.906 2.906 0 002.322-.864 4.095 4.095 0 00.748-2.717l-.007-1.976zM103.463 28.726h2.753a.286.286 0 01.285.284v14.34a.285.285 0 01-.284.284h-2.754a.283.283 0 01-.284-.284V29.01a.286.286 0 01.284-.284zM120.447 28.725a.246.246 0 01.277.277v14.353a.25.25 0 01-.069.208.247.247 0 01-.208.07h-3.109a.447.447 0 01-.384-.214l-3.387-6.24-1.597-3.343h-.257l.32 3.344v6.175a.237.237 0 01-.068.208.247.247 0 01-.208.07h-2.769a.244.244 0 01-.276-.278V29.003a.25.25 0 01.069-.208.248.248 0 01.207-.07h3.11a.452.452 0 01.384.214l3.215 5.984 1.766 3.6h.257l-.319-3.6v-5.92a.249.249 0 01.069-.207.24.24 0 01.207-.07l2.77-.001zM129.762 28.427a8.097 8.097 0 011.991.235c.462.1.909.257 1.331.468.07.042.131.096.181.16a.466.466 0 01.076.288v2.236a.232.232 0 01-.199.229.232.232 0 01-.121-.016c-.327-.128-.611-.238-.852-.33a7.225 7.225 0 00-.671-.224 3.872 3.872 0 00-.629-.116 7.41 7.41 0 00-.747-.032h-.106a4.198 4.198 0 00-1.523.266c-.448.168-.855.43-1.194.767-.343.349-.611.765-.787 1.222a4.414 4.414 0 00-.288 1.64v1.897a4.45 4.45 0 00.83 2.875 3.03 3.03 0 002.492 1.019h.107c.182-.001.364-.02.543-.054.171-.03.339-.075.502-.136v-4.558a.242.242 0 01.164-.266.245.245 0 01.112-.01h2.683a.245.245 0 01.277.276v5.899a.673.673 0 01-.256.575c-.209.145-.43.274-.66.384-.319.155-.65.284-.99.384-.392.117-.79.213-1.192.287a6.814 6.814 0 01-1.248.117h-.298a7.043 7.043 0 01-2.459-.438 5.964 5.964 0 01-2.077-1.29 6.31 6.31 0 01-1.437-2.12 7.361 7.361 0 01-.543-2.928v-1.917c-.02-1.004.168-2 .553-2.928a6.232 6.232 0 011.48-2.119 6.296 6.296 0 012.131-1.29 7.227 7.227 0 012.481-.436l.343-.016zM46.784 38.87a2.843 2.843 0 11-2.01-.834 2.74 2.74 0 012.01.834zm-.4 3.657a2.384 2.384 0 000-3.291 2.274 2.274 0 00-3.229 0 2.383 2.383 0 000 3.291 2.277 2.277 0 003.23 0zm-.377-.114h-.636l-.629-1.218h-.392v1.218h-.565v-3.072h1.155a.972.972 0 01.92.58.903.903 0 01.07.362.821.821 0 01-.17.523.94.94 0 01-.436.311l.683 1.296zm-.777-1.8a.455.455 0 000-.66.506.506 0 00-.362-.135h-.519v.928h.52a.505.505 0 00.36-.136M12.412 38.268l-3.09 5.346h22.531l-3.092-5.346H12.41z"/><path d="M19.81 22.783l4.66-8.064L20.587 8 0 43.614h7.768l8.496-14.699h7.09l-3.545-6.132z"/><path d="M25.248 16.064l-3.88 6.72 4.315 7.467H17.05l-3.862 6.681h16.357l3.865 6.681h7.766L25.248 16.065z"/></g><defs><clipPath id="rclip0_424_173"><path fill="#fff" d="M0 0h134v53H0z"/></clipPath></defs></svg>