<?xml version="1.0" encoding="utf-8"?><svg width="223" height="53" fill="none" xmlns="http://www.w3.org/2000/svg" viewBox="0 0 223 53"><g opacity=".7"><path d="M18.141 22.66l1.453-.838 1.452-.839v-.012l-1.294-.747-1.61-.93-1.745 1.007-1.16.67v.012l1.452.838 1.452.839z" fill="url(#rpaint0_linear_424_163)"/><path d="M18.141 22.66l-1.452-.838-1.452-.839v3.341l.3.173.669.385L18.14 26V22.66z" fill="url(#rpaint1_linear_424_163)"/><path d="M18.141 22.659V26l1.453-.838 1.452-.838v-3.341l-1.452.839-1.453.837z" fill="url(#rpaint2_linear_424_163)"/><path d="M.838 16.013l5.585 3.173 5.859-3.381 5.859-3.382 5.86 3.382 5.858 3.381 5.538-3.146.047-.027-8.651-4.994-8.652-4.994L9.49 11.02.838 16.013z" fill="url(#rpaint3_linear_424_163)"/><path d="M35.445 16.013l-.024.013-2.97 1.715 2.946-1.7-5.538 3.145V32.713L24 36.096 21.045 37.8V30.9l-1.451.838-1.453.838v13.4l8.652-4.994 8.652-4.994V16.013z" fill="url(#rpaint4_linear_424_163)"/><path d="M.838 16.013v19.974l8.652 4.994 8.65 4.994.001-.002V32.575l-1.452-.838-1.453-.838V37.8l-2.954-1.704-5.86-3.383V19.186L.839 16.013z" fill="url(#rpaint5_linear_424_163)"/><path d="M59.773 34.647v-1.385l-5.76-15.918h-4.18l-5.736 15.918v1.385h3.758l1.237-3.733h5.489l1.212 3.733h3.98zm125.912.375c4.278 0 6.774-2.298 6.774-6.254V23.23c0-3.955-2.496-6.254-6.774-6.254-3.536 0-6.626 1.631-6.626 6.056h3.881c0-1.384 1.015-2.15 2.622-2.15 1.755 0 2.645.74 2.645 2.224v1.113h-4.525v3.51h4.525v1.162c0 1.483-.89 2.224-2.645 2.224-1.607 0-2.622-.765-2.622-2.15h-3.881c0 2.1.618 3.634 1.854 4.597 1.236.965 2.819 1.46 4.772 1.46zm29.807-.005c1.904 0 3.457-.5 4.673-1.508 1.232-1.02 1.855-2.57 1.855-4.647v-.247h-4.253v.222c0 1.508-.841 2.275-2.546 2.275-1.558 0-2.349-.692-2.349-2.051v-6.156c0-1.36.79-2.027 2.349-2.027 1.483 0 2.546.668 2.546 2.25v.247h4.253v-.248c0-2.076-.624-3.603-1.855-4.622-1.216-1.007-2.769-1.532-4.673-1.532-4.45 0-6.873 2.274-6.873 6.228v5.586c0 3.956 2.423 6.23 6.873 6.23zm-17.102-.37v-6.799h1.608l3.858 6.8h4.03v-1.386l-4.476-7.514 4.105-6.995v-1.409h-3.758l-3.833 6.797h-1.533v-6.797h-4.252v17.303h4.251zm-33.984 0h12.906V30.94h-1.978V17.344h-11.918v8.008c0 2.942-.494 4.325-1.36 5.586h-1.558v3.709h3.908zm1.978-3.708c.618-1.31.939-3.189.939-5.586v-4.3h3.759v9.887l-4.698-.001zm-7.631 3.708V30.94h-7.368v-3.214h6.182v-3.51h-6.182v-3.163h7.318v-3.708h-11.571v17.303h11.621zm-25.308 0v-9.764l2.596 4.647h2.621l2.596-4.647v9.764h4.129V17.344h-4.08l-3.931 6.995-3.931-6.995h-4.129v17.303h4.129zm-5.874 0v-1.385l-5.76-15.918h-4.179l-5.737 15.918v1.385h3.759l1.235-3.733h5.49l1.211 3.733h3.981zm-6.379-7.292h-3.116l1.584-4.722 1.532 4.722zm-22.607 1.78c-.816 0-1.459-.273-1.978-.791-.495-.545-.742-1.162-.742-1.83V24.76c0-.668.247-1.26.767-1.805.52-.543 1.162-.815 1.953-.815h1.038v6.995h-1.038zm5.291-6.996h1.039c.791 0 1.434.272 1.953.816.52.544.767 1.137.767 1.805v1.755c0 .668-.247 1.285-.767 1.83-.494.519-1.137.79-1.953.79h-1.039V22.14zm.94 10.703c1.929 0 3.585-.544 4.97-1.631 1.409-1.113 2.101-2.62 2.101-4.573v-2.003c0-1.952-.691-3.46-2.101-4.548-1.385-1.112-3.041-1.656-4.97-1.656h-.94v-1.454h-4.253v1.454h-.94c-1.928 0-3.585.544-4.994 1.656-1.385 1.088-2.077 2.596-2.077 4.549v2.002c0 1.952.692 3.46 2.077 4.573 1.409 1.087 3.066 1.631 4.994 1.631h.94v2.18h4.253v-2.18h.94zm-19.592 1.805c3.164 0 5.043-2.15 5.043-5.612 0-3.435-1.879-5.561-5.043-5.561H81.49v-6.13h-4.252v17.303h7.986zm-3.734-7.465h2.918c.791 0 1.558.617 1.558 1.903 0 1.285-.767 1.854-1.558 1.854H81.49v-3.757zm-19.97 7.451c4.114-.208 5.986-2.966 5.986-8.738v-4.844h3.734v13.596h4.253V17.344H63.5v7.786c0 2.274-.148 3.782-.444 4.524-.273.741-.964 1.111-2.052 1.111h-.388l.903 3.868zm-8.127-7.278h-3.115l1.582-4.722 1.534 4.722z" fill="#000"/></g><defs><linearGradient id="rpaint0_linear_424_163" x1="18.141" y1="5.961" x2="18.141" y2="16.208" gradientUnits="userSpaceOnUse"><stop/><stop offset="1" stop-color="#585858"/></linearGradient><linearGradient id="rpaint1_linear_424_163" x1="13.106" y1="29.809" x2="7.409" y2="39.862" gradientUnits="userSpaceOnUse"><stop/><stop offset="1" stop-color="#595959"/></linearGradient><linearGradient id="rpaint2_linear_424_163" x1="23.33" y1="29.842" x2="29.091" y2="39.639" gradientUnits="userSpaceOnUse"><stop/><stop offset="1" stop-color="#4E4E4E"/></linearGradient><linearGradient id="rpaint3_linear_424_163" x1="18.141" y1="5.961" x2="18.141" y2="16.208" gradientUnits="userSpaceOnUse"><stop/><stop offset="1" stop-color="#575757"/></linearGradient><linearGradient id="rpaint4_linear_424_163" x1="25.399" y1="28.624" x2="31.16" y2="38.421" gradientUnits="userSpaceOnUse"><stop/><stop offset="1" stop-color="#5B5B5B"/></linearGradient><linearGradient id="rpaint5_linear_424_163" x1="8.046" y1="33.538" x2="5.172" y2="38.61" gradientUnits="userSpaceOnUse"><stop/><stop offset="1" stop-color="#555"/></linearGradient></defs></svg>