<svg width="110" height="110" viewBox="0 0 110 110" fill="none" xmlns="http://www.w3.org/2000/svg"><path d="M19.731 69.313c-.759 0-1.403-.252-1.934-.758-.532-.519-.797-1.134-.797-1.847 0-.726.265-1.349.797-1.867.53-.519 1.175-.778 1.934-.778.771 0 1.423.26 1.954.778.543.519.815 1.14.815 1.867 0 .713-.272 1.328-.815 1.847-.531.506-1.183.758-1.954.758zm30.328-.427h-4.931L32.136 48.39a9.178 9.178 0 01-.816-1.614h-.114c.102.596.152 1.873.152 3.83v18.28h-4.362V41h5.254l12.555 20.01c.531.83.873 1.4 1.025 1.711h.075c-.126-.738-.19-1.99-.19-3.753V41h4.344v27.886zm21.242 0H56.034V41h14.66v3.928H60.549v7.895h9.35v3.909h-9.35v8.245H71.3v3.909zM93 44.928h-7.814v23.958h-4.514V44.928h-7.795V41H93v3.928z" fill="#B7B7BE"/></svg>