<svg width="110" height="110" viewBox="0 0 110 110" fill="none" xmlns="http://www.w3.org/2000/svg"><path d="M83.689 38.456c-.338-2.707-2.03-4.907-4.228-6.598l-.846-.677-.676.846c-1.353 1.523-1.86 4.23-1.692 6.26.17 1.522.677 3.045 1.522 4.229-.676.338-1.522.677-2.198 1.015-1.522.508-3.044.677-4.567.677H27.2l-.169 1.015a19.038 19.038 0 001.522 9.643l.677 1.184v.17c4.059 6.767 11.331 9.812 19.28 9.812 15.222 0 27.737-6.598 33.657-20.81 3.89.17 7.78-.845 9.64-4.567l.507-.846-.845-.507c-2.199-1.354-5.243-1.523-7.78-.846zM61.87 35.749h-6.596v6.598h6.596v-6.598zm0-8.29h-6.596v6.598h6.596v-6.598zm0-8.459h-6.596v6.598h6.596V19zm8.119 16.749h-6.596v6.598h6.596v-6.598zm-24.524 0H38.87v6.598h6.596v-6.598zm8.287 0h-6.596v6.598h6.596v-6.598zm-16.405 0h-6.596v6.598h6.596v-6.598zm16.405-8.29h-6.596v6.598h6.596v-6.598zm-8.287 0H38.87v6.598h6.596v-6.598zm28.518 60.265c1.775-1.522 3.55-2.942 5.327-4.464.626-.508 1.253-1.015 1.88-1.624-.523-.608-1.254-1.014-1.985-1.319-1.358-.507-2.715-.304-4.073.406-1.672.913-2.403 2.435-2.298 4.262 0 .71.209 1.42.626 2.029.314.304.418.507.523.71zm2.089 1.42c.835.305 1.88.305 2.82.102.418-.203 1.67-.71 2.089-.609h.209a.929.929 0 01.626.609c.314.609.21 1.218-.418 1.522l-.208.102c-2.298 1.318-4.7 1.115-6.998-.102a7.101 7.101 0 01-2.507-2.435l-.105-.203c-1.462-2.435-1.253-5.073.418-7.407.522-.811 1.358-1.42 2.194-1.927l.313-.204c2.193-1.217 4.491-1.116 6.685-.1 1.148.608 2.193 1.42 2.82 2.536l.104.203c.522.811-.104 1.522-.835 2.029l-2.194 1.826c-1.88 1.42-3.447 2.74-5.013 4.059zm17.025-11.16h.209c.73 0 1.253.507 1.253 1.217 0 1.015-.94 1.218-1.776 1.218-1.044 0-2.089.609-2.82 1.319-.94.913-1.358 2.03-1.358 3.247v5.681c0 .61-.417 1.218-1.148 1.218h-.21c-.73 0-1.148-.507-1.148-1.218V84.68c0-2.333 1.148-4.16 3.029-5.479 1.357-.811 2.61-1.217 3.969-1.217zM63.225 81.94l2.82-2.74c.313-.203 1.253-1.319 1.67-1.319h.419c.522.102.94.406.94 1.015v.203c0 .406-.522.812-.731 1.116-.523.609-1.15 1.116-1.672 1.725l-2.924 2.84 3.76 3.653 1.044 1.015.418.406c.105.203.21.304.21.507v.305c-.105.507-.523.913-1.045.913h-.21c-.417 0-.835-.406-1.148-.71-.522-.508-1.149-1.015-1.671-1.624l-1.88-1.725v2.841c0 .609-.418 1.218-1.15 1.218h-.208c-.731 0-1.149-.508-1.149-1.218V74.737c0-.609.418-1.116 1.149-1.116h.209c.73 0 1.149.507 1.149 1.116v7.204zm-7.73-1.522c-.313-.203-1.044-.203-1.462-.203-1.984-.102-3.446 1.015-4.282 2.74-.313.608-.418 1.217-.418 1.927 0 2.03 1.045 3.45 2.925 4.262.627.304 1.566.405 2.298.405.626 0 1.566-.405 2.089-.608h.522c.522.101.94.406.94 1.014v.203c0 1.42-2.716 1.725-3.656 1.826-3.551.203-6.267-1.724-7.311-4.971-.209-.609-.209-1.116-.209-1.725v-.507c0-2.537 1.253-4.566 3.551-5.784a6.732 6.732 0 013.447-.913h.522c1.254 0 2.507.305 3.551 1.015l.105.101.104.102c.105.203.21.406.21.609v.202c0 .61-.419.914-1.045 1.015h-.105c-.73-.203-1.566-.609-1.775-.71zm-21.933 4.363c0 1.725.94 3.044 2.402 3.957a4.963 4.963 0 002.402.608c1.776 0 3.134-.913 4.074-2.333.418-.71.626-1.522.626-2.334 0-1.623-.835-2.942-2.193-3.855-.731-.508-1.671-.71-2.507-.71-1.984 0-3.446 1.014-4.282 2.739-.522.71-.522 1.319-.522 1.928zm4.387-6.9h.313c2.82 0 4.909 1.32 6.267 3.653.522.913.835 1.928.835 3.044v.507c0 2.537-1.253 4.566-3.551 5.784-1.044.608-2.193.912-3.447.912h-.522c-2.611 0-4.7-1.217-5.953-3.45a6.248 6.248 0 01-.94-3.347v-.508c0-2.536 1.253-4.566 3.55-5.783 1.15-.507 2.194-.812 3.448-.812zm-20.263 6.9c0 1.826.94 3.246 2.611 4.058a4.97 4.97 0 002.193.507c1.88 0 3.238-.811 4.178-2.333.418-.71.627-1.522.627-2.334 0-1.623-.731-2.84-2.089-3.754-.836-.507-1.671-.812-2.716-.812-1.984 0-3.446 1.015-4.282 2.74-.313.71-.522 1.319-.522 1.928zm9.609-5.175v-4.971c0-.61.418-1.218 1.149-1.218h.209c.73 0 1.149.507 1.149 1.218v10.45c0 2.537-1.254 4.566-3.552 5.784-1.044.608-2.193.912-3.446.912h-.523c-2.61 0-4.7-1.217-5.953-3.45a6.248 6.248 0 01-.94-3.347v-.508c0-2.536 1.253-4.566 3.551-5.783 1.045-.609 2.194-.913 3.447-.913h.522a7.316 7.316 0 014.387 1.826z" fill="#B7B7BE"/></svg>