<svg width="110" height="110" viewBox="0 0 110 110" fill="none" xmlns="http://www.w3.org/2000/svg"><g clip-path="url(#clip0_7007_360)"><path d="M86.004 54.495c0-3.967-3.005-7.304-7.04-8.257L88 22.058H43.223l9.056 24.257c-3.908 1.029-6.788 4.308-6.788 8.2 0 2.86 1.577 5.395 3.972 6.959-.945 1.22-2.038 2.346-3.277 3.413-2.333 1.984-4.919 3.509-7.712 4.52-2.522-1.545-3.614-4.272-2.627-6.713 3.845-1.068 6.641-4.329 6.641-8.161 0-4.71-4.224-8.525-9.395-8.525-5.19 0-9.411 3.834-9.411 8.544 0 2.327 1.05 4.462 2.731 5.987-.147.268-.294.533-.441.82-1.408 2.632-3.005 5.607-3.616 8.945-1.218 6.672.778 12.032 5.59 15.064 2.71 1.698 5.696 2.556 8.91 2.556 5.525 0 11.136-2.518 16.557-4.96 3.867-1.734 7.859-3.547 11.788-4.423 1.45-.324 2.963-.515 4.56-.725 3.235-.419 6.577-.858 9.582-2.44 3.509-1.85 5.904-4.94 6.598-8.486.524-2.728 0-5.473-1.345-7.876a7.915 7.915 0 001.408-4.52zm-4.097 0c0 2.65-2.375 4.805-5.295 4.805s-5.296-2.155-5.296-4.805c0-.859.252-1.678.693-2.384.168-.268.38-.533.588-.763.221-.236.468-.447.736-.628l.022-.02c.167-.115.356-.23.546-.343 0 0 .02 0 .02-.02.084-.038.169-.095.254-.133.02 0 .04-.02.062-.02.085-.036.19-.074.294-.113.1-.035.197-.073.294-.114.02 0 .042-.021.063-.021.084-.018.169-.056.252-.074.022 0 .064-.02.084-.02.105-.018.19-.039.294-.057h.022l.315-.058c.021 0 .062 0 .084-.018.084 0 .167-.02.252-.02h.105c.104 0 .211-.019.336-.019h.274c.082 0 .147 0 .23.018h.042c.169.021.336.038.505.077 2.395.457 4.224 2.403 4.224 4.73zM49.084 25.87h33.053l-7.586 20.31a8.64 8.64 0 00-.944.247L65.623 31.65l-8.007 14.682a8.36 8.36 0 00-.987-.21l-7.545-20.25zm15.024 26.963c-.399-1.793-1.408-3.394-2.836-4.576l4.35-7.97 4.391 8.141c-1.303 1.183-2.248 2.69-2.626 4.405h-3.28zm-10.526-3.011l.294-.058h.062c.085-.018.17-.018.252-.039h.085c.084 0 .147-.018.231-.018h.82c.083 0 .147.018.21.018.042 0 .062 0 .104.02.085.019.147.019.232.039.02 0 .042 0 .084.018.105.02.21.038.294.058h.02c.085.018.17.036.252.075.023 0 .043.02.085.02.062.018.147.038.21.076.022 0 .042.018.064.018.082.039.167.06.252.097h.02c.105.036.19.075.274.133h.02c.084.038.17.095.254.133.02 0 .02.02.04.02.084.037.147.095.232.133l.022.018c.252.172.483.363.713.554l.022.018c.21.21.419.44.588.687.546.763.862 1.66.862 2.632 0 2.651-2.375 4.804-5.295 4.804s-5.296-2.153-5.296-4.804c-.021-2.231 1.68-4.118 3.993-4.652zm-20.678-.135c2.921 0 5.296 2.155 5.296 4.805 0 2.651-2.375 4.806-5.296 4.806-2.92 0-5.295-2.155-5.295-4.806 0-2.65 2.375-4.805 5.295-4.805zM81.78 66.222c-.461 2.44-2.123 4.577-4.56 5.853-2.29 1.203-5.106 1.583-8.069 1.964-1.617.21-3.319.44-4.959.802-4.37.973-8.572 2.88-12.648 4.709-5.211 2.346-10.13 4.558-14.688 4.558-2.375 0-4.497-.61-6.513-1.887-4.623-2.899-4.393-8.333-3.845-11.308.503-2.785 1.911-5.397 3.256-7.895.083-.153.147-.286.23-.44.463.154.946.269 1.45.345-.797 4.042 1.47 8.218 5.884 10.278l.799.38.86-.285c3.678-1.183 7.082-3.108 10.087-5.682 1.702-1.45 3.153-3.013 4.37-4.711.484.077.968.097 1.45.097 4.372 0 8.048-2.728 9.099-6.39h3.529c1.051 3.68 4.729 6.39 9.1 6.39a10.01 10.01 0 004.747-1.183c.548 1.43.715 2.917.421 4.405z" fill="#B7B7BE"/></g><defs><clipPath id="clip0_7007_360"><path fill="#fff" transform="translate(22 22)" d="M0 0h66v66H0z"/></clipPath></defs></svg>