<svg width="110" height="110" viewBox="0 0 110 110" fill="none" xmlns="http://www.w3.org/2000/svg"><g clip-path="url(#clip0_7007_181)"><path d="M82.758 48.596H62.645a1.82 1.82 0 01-1.82-1.82V25.813a2.804 2.804 0 00-2.812-2.812h-7.185a2.804 2.804 0 00-2.812 2.812v20.822a1.957 1.957 0 01-1.962 1.962l-6.594.024c-1.087 0-1.985-.874-1.962-1.962l.047-20.845a2.804 2.804 0 00-2.812-2.812h-7.185a2.804 2.804 0 00-2.812 2.812v58.682c0 1.37 1.11 2.505 2.505 2.505h55.516c1.37 0 2.505-1.11 2.505-2.505V51.1a2.49 2.49 0 00-2.505-2.505l.001.001zm-9.43 22.027a3.27 3.27 0 01-3.262 3.261h-5.672a3.27 3.27 0 01-3.261-3.261v-5.672a3.27 3.27 0 013.261-3.261h5.672a3.27 3.27 0 013.262 3.261v5.672z" fill="#B7B7BE"/></g><defs><clipPath id="clip0_7007_181"><path fill="#fff" transform="translate(23 23)" d="M0 0h64v64H0z"/></clipPath></defs></svg>