<svg width="110" height="110" viewBox="0 0 110 110" fill="none" xmlns="http://www.w3.org/2000/svg"><g clip-path="url(#clip0_7007_539)"><path fill-rule="evenodd" clip-rule="evenodd" d="M89.685 35.234c.026.096.04.194.04.293V50.93a1.12 1.12 0 01-.567.975l-12.97 7.443V74.1c0 .401-.215.772-.564.974L48.55 90.61c-.062.035-.13.058-.197.081-.025.009-.05.024-.076.031-.19.05-.388.05-.578 0-.03-.008-.059-.025-.088-.036-.062-.023-.127-.042-.186-.076l-27.07-15.535a1.125 1.125 0 01-.566-.974V27.89c0-.1.014-.199.04-.294.008-.032.028-.062.04-.094.02-.059.04-.12.07-.174.022-.037.053-.066.078-.1.033-.045.062-.091.1-.13.033-.033.075-.056.112-.085.04-.033.077-.07.124-.096l13.536-7.768a1.133 1.133 0 011.127 0l13.536 7.768h.002c.046.028.084.063.124.095.037.028.078.053.11.084.04.04.068.087.102.132.024.034.056.063.076.1.032.056.05.115.073.174.011.032.03.062.04.095.025.096.038.195.039.294v28.861l11.279-6.473V35.526c0-.098.014-.198.04-.292.01-.034.027-.063.039-.096.022-.058.042-.119.073-.174.021-.036.052-.066.076-.1.034-.044.062-.09.101-.13.033-.032.074-.056.11-.084.042-.034.08-.07.124-.097l13.538-7.767a1.132 1.132 0 011.127 0l13.536 7.767c.047.028.084.063.126.096.036.028.076.053.109.084.04.04.067.087.101.132.026.033.057.063.076.1.033.054.051.114.073.173.013.033.032.062.04.096zM87.468 50.28V37.472l-4.737 2.718-6.543 3.755v12.808l11.281-6.473h-.001zM73.933 73.45V60.635l-6.437 3.664-18.38 10.456V87.69l24.817-14.24zM22.045 29.837v43.615L46.859 87.69V74.755l-12.964-7.313-.004-.002-.005-.003c-.044-.026-.08-.062-.122-.093-.035-.028-.076-.05-.107-.081l-.002-.005c-.037-.035-.062-.078-.093-.117-.029-.038-.062-.07-.085-.11l-.001-.004c-.026-.042-.041-.093-.06-.14-.018-.043-.042-.082-.053-.127-.014-.053-.017-.11-.023-.166-.005-.042-.016-.084-.016-.126V36.31l-6.543-3.756-4.736-2.717zm12.408-8.414l-11.277 6.47 11.274 6.47 11.277-6.472-11.277-6.468h.003zm5.865 40.38l6.542-3.754V29.836l-4.736 2.718-6.544 3.755v28.212l4.738-2.72zm34.743-32.745l-11.276 6.47 11.276 6.47 11.275-6.471-11.275-6.469zm-1.128 14.888l-6.544-3.755-4.737-2.718V50.28l6.543 3.754 4.738 2.72v-12.81zM47.986 72.809l16.54-9.411 8.267-4.703-11.268-6.466-12.973 7.444-11.824 6.785 11.258 6.351z" fill="#B7B7BE"/></g><defs><clipPath id="clip0_7007_539"><path fill="#fff" transform="translate(19.788 19)" d="M0 0h70.424v73H0z"/></clipPath></defs></svg>