<svg width="110" height="110" viewBox="0 0 110 110" fill="none" xmlns="http://www.w3.org/2000/svg"><path d="M67.967 59.433c-2.843 0-5.392 1.26-7.138 3.242l-4.473-3.166c.475-1.307.748-2.71.748-4.18 0-1.443-.264-2.823-.723-4.11l4.463-3.133c1.746 1.973 4.288 3.226 7.123 3.226 5.248 0 9.519-4.269 9.519-9.517 0-5.247-4.27-9.516-9.519-9.516-5.248 0-9.518 4.269-9.518 9.516 0 .94.142 1.845.397 2.703l-4.466 3.134a12.287 12.287 0 00-7.613-4.423v-5.38c4.312-.906 7.56-4.736 7.56-9.313 0-5.247-4.27-9.516-9.518-9.516-5.248 0-9.518 4.269-9.518 9.516 0 4.515 3.164 8.298 7.39 9.268v5.451c-5.767 1.012-10.166 6.044-10.166 12.095 0 6.08 4.443 11.13 10.25 12.108v5.756c-4.268.938-7.474 4.744-7.474 9.29 0 5.247 4.27 9.516 9.518 9.516 5.248 0 9.519-4.269 9.519-9.516 0-4.546-3.207-8.352-7.476-9.29v-5.756c2.94-.496 5.6-2.042 7.484-4.352l4.503 3.187c-.25.85-.39 1.746-.39 2.676 0 5.248 4.27 9.517 9.518 9.517 5.248 0 9.519-4.27 9.519-9.517s-4.27-9.516-9.519-9.516zm0-22.252a4.62 4.62 0 014.615 4.614 4.62 4.62 0 01-4.615 4.614 4.62 4.62 0 01-4.615-4.614 4.62 4.62 0 014.615-4.614zm-27.773-8.665a4.62 4.62 0 014.615-4.613 4.62 4.62 0 014.615 4.613 4.62 4.62 0 01-4.615 4.614 4.62 4.62 0 01-4.615-4.614zm9.23 53.968a4.62 4.62 0 01-4.615 4.614 4.62 4.62 0 01-4.615-4.614 4.62 4.62 0 014.615-4.614 4.62 4.62 0 014.615 4.614zm-4.615-20.72a6.443 6.443 0 01-6.437-6.434 6.443 6.443 0 016.437-6.436 6.443 6.443 0 016.436 6.436 6.443 6.443 0 01-6.436 6.435zm23.158 11.8a4.62 4.62 0 01-4.615-4.615 4.62 4.62 0 014.615-4.614 4.62 4.62 0 014.615 4.614 4.62 4.62 0 01-4.615 4.614z" fill="#B7B7BE"/></svg>