<svg width="110" height="110" viewBox="0 0 110 110" fill="none" xmlns="http://www.w3.org/2000/svg"><path d="M89.134 88H21l22.682-48.292 13.663 10.026L75.167 22l13.967 66zM64.153 77.57h.145a6.512 6.512 0 004.523-1.815 5.917 5.917 0 001.944-4.463 5.409 5.409 0 00-1.874-4.284 5.705 5.705 0 00-3.888-1.672h-.112a2.033 2.033 0 00-.566.078l3.597-5.337-2.865-1.996-1.357 1.996-3.465 5.284c-.596.875-1.094 1.647-1.402 2.183a12.54 12.54 0 00-.824 1.768 5.493 5.493 0 00-.394 2.038 5.903 5.903 0 001.92 4.415 6.413 6.413 0 004.481 1.814l.136-.01zm-15.234-5.745l3.972 5.606h4.245l-4.67-6.504 4.148-5.748-2.754-1.902-1.215 1.6-3.73 5.25V59.573l-3.719-3.025v20.88h3.718V71.82l.005.005zm15.238 2.244c-.725 0-1.42-.288-1.933-.8a2.726 2.726 0 011.933-4.658h.025a2.678 2.678 0 011.927.822 2.54 2.54 0 01.824 1.892 2.77 2.77 0 01-.824 1.937 2.78 2.78 0 01-1.95.802l-.002.005z" fill="#B7B7BE"/></svg>