<svg width="110" height="110" viewBox="0 0 110 110" fill="none" xmlns="http://www.w3.org/2000/svg"><mask id="mask0_7007_781" style="mask-type:luminance" maskUnits="userSpaceOnUse" x="16" y="22" width="78" height="66"><path d="M93.07 22H16v66h77.07V22z" fill="#fff"/></mask><g mask="url(#mask0_7007_781)"><path d="M90.038 72.883c-4.106 2.146-25.413 10.904-30.003 13.308-4.59 2.403-7.047 2.335-10.637.62-3.59-1.715-26.187-10.898-30.282-12.855C17.053 72.988 16 72.163 16 71.39V63.6s29.519-6.4 34.282-8.126c4.764-1.725 6.411-1.767 10.459-.284 4.047 1.483 28.313 5.86 32.318 7.311v7.68c0 .8-.92 1.578-3.021 2.698v.005z" fill="#B7B7BE"/><path d="M90.038 65.13c-4.106 2.136-25.413 10.893-30.003 13.255-4.59 2.361-7.048 2.34-10.637.631-3.59-1.71-26.187-10.893-30.282-12.834-4.095-1.94-4.174-3.298-.158-4.865 4.016-1.568 26.56-10.388 31.324-12.124 4.763-1.736 6.41-1.773 10.459-.284 4.047 1.489 25.265 9.91 29.25 11.377 3.984 1.467 4.168 2.672.047 4.802v.042z" fill="#F4F4F4"/><path d="M90.038 60.196c-4.106 2.141-25.413 10.893-30.003 13.255s-7.026 2.34-10.616.62c-3.59-1.72-26.208-10.85-30.303-12.802C17.053 60.291 16 59.471 16 58.692V50.93s29.519-6.423 34.282-8.148c4.764-1.725 6.411-1.772 10.459-.268 4.047 1.504 28.313 5.838 32.318 7.3v7.68c0 .8-.92 1.599-3.021 2.703z" fill="#B7B7BE"/><path d="M90.038 52.407c-4.106 2.146-25.413 10.898-30.003 13.26-4.59 2.361-7.048 2.346-10.637.63-3.59-1.714-26.187-10.86-30.282-12.817-4.095-1.957-4.168-3.288-.158-4.855 4.011-1.568 26.56-10.41 31.324-12.098 4.764-1.688 6.411-1.793 10.459-.326 4.047 1.468 25.265 9.962 29.25 11.388 3.984 1.425 4.168 2.677.047 4.802v.016z" fill="#F4F4F4"/><path d="M90.038 47.032c-4.106 2.146-25.413 10.903-30.003 13.26-4.59 2.356-7.026 2.34-10.616.63-3.59-1.709-26.208-10.866-30.303-12.817C17.053 47.137 16 46.31 16 45.533v-7.79s29.518-6.401 34.282-8.121c4.764-1.72 6.411-1.773 10.459-.29 4.047 1.484 28.302 5.86 32.308 7.322v7.68c.01.81-.91 1.598-3.011 2.698z" fill="#B7B7BE"/><path d="M90.037 39.252c-4.105 2.104-25.412 10.914-30.002 13.255-4.59 2.34-7.048 2.335-10.638.63-3.59-1.703-26.186-10.871-30.281-12.817-4.095-1.946-4.174-3.298-.158-4.866 4.016-1.567 26.56-10.404 31.324-12.118 4.763-1.715 6.41-1.767 10.458-.284 4.048 1.483 25.266 9.915 29.25 11.377 3.985 1.462 4.169 2.677.047 4.807v.016z" fill="#B7B7BE"/></g><path d="M55.74 28.19l5.085-1.667-1.379 3.293 5.174 1.936-6.669.694-1.5 3.598-2.41-4.014-7.712-.694 5.758-2.072-1.731-3.188 5.384 2.115zm.322 21.003l-12.465-5.17 17.854-2.74-5.39 7.91zM38.781 33.75c5.264 0 9.543 1.657 9.543 3.682s-4.29 3.682-9.543 3.682c-5.253 0-9.548-1.657-9.548-3.682s4.28-3.681 9.548-3.681zm33.739-1.015l10.565 4.171-10.554 4.171-.01-8.342z" fill="#F4F4F4"/><path d="M72.52 32.735l.011 8.342-1.147.448-10.559-4.172 11.696-4.618z" fill="#F4F4F4"/></svg>