<svg width="110" height="110" viewBox="0 0 110 110" fill="none" xmlns="http://www.w3.org/2000/svg"><path d="M72.087 71.535c.451-3.768.316-4.321 3.118-3.71l.711.062c2.154.098 4.973-.347 6.629-1.118 3.564-1.657 5.677-4.423 2.163-3.696-8.017 1.657-8.568-1.063-8.568-1.063 8.465-12.582 12.004-28.555 8.95-32.465-8.332-10.664-22.753-5.621-22.994-5.49l-.077.014c-1.584-.33-3.357-.526-5.348-.558-3.628-.06-6.381.953-8.47 2.54 0 0-25.726-10.619-24.529 13.352.255 5.1 7.296 38.586 15.695 28.472a155.172 155.172 0 016.036-6.826c1.473.98 3.237 1.48 5.087 1.3l.143-.121c-.045.459-.025.908.057 1.44-2.163 2.422-1.528 2.847-5.853 3.739-4.377.903-1.806 2.512-.128 2.933 2.036.51 6.744 1.231 9.925-3.23l-.126.51c.848.68.791 4.888.911 7.895.12 3.008.322 5.814.934 7.469.612 1.654 1.334 5.916 7.019 4.695 4.75-1.02 8.383-2.488 8.715-16.144z" fill="#B7B7BE"/><path d="M72.087 71.535c.451-3.768.316-4.321 3.118-3.71l.711.062c2.154.098 4.973-.347 6.629-1.118 3.564-1.657 5.677-4.423 2.163-3.696-8.017 1.657-8.568-1.063-8.568-1.063 8.465-12.582 12.004-28.555 8.95-32.465-8.332-10.664-22.753-5.621-22.994-5.49l-.077.014c-1.584-.33-3.357-.526-5.348-.558-3.628-.06-6.381.953-8.47 2.54 0 0-25.726-10.619-24.529 13.352.255 5.1 7.296 38.586 15.695 28.472a155.172 155.172 0 016.036-6.826c1.473.98 3.237 1.48 5.087 1.3l.143-.121c-.045.459-.025.908.057 1.44-2.163 2.422-1.528 2.847-5.853 3.739-4.377.903-1.806 2.512-.128 2.933 2.036.51 6.744 1.231 9.925-3.23l-.126.51c.848.68.791 4.888.911 7.895.12 3.008.322 5.814.934 7.469.612 1.654 1.334 5.916 7.019 4.695 4.75-1.02 8.383-2.488 8.715-16.144z" stroke="#B7B7BE" stroke-width="5.079"/><path d="M84.71 63.073c-8.018 1.657-8.57-1.063-8.57-1.063 8.466-12.583 12.005-28.556 8.95-32.465-8.33-10.664-22.752-5.62-22.993-5.49l-.078.014c-1.584-.33-3.356-.526-5.349-.558-3.627-.06-6.38.952-8.467 2.539 0 0-25.728-10.618-24.531 13.353.255 5.1 7.296 38.587 15.695 28.472a155.866 155.866 0 016.036-6.826c1.473.98 3.237 1.48 5.086 1.301l.143-.122c-.044.46-.024.908.058 1.44-2.164 2.422-1.528 2.847-5.853 3.739-4.377.904-1.806 2.512-.127 2.933 2.035.51 6.743 1.232 9.924-3.23l-.127.51c.848.68 1.444 4.424 1.344 7.819-.1 3.394-.166 5.725.501 7.545.668 1.82 1.334 5.916 7.02 4.695 4.751-1.02 7.213-3.663 7.556-8.072.243-3.135.793-2.671.828-5.474l.441-1.326c.509-4.25.08-5.62 3.008-4.983l.712.063c2.154.098 4.974-.347 6.629-1.118 3.563-1.657 5.677-4.423 2.163-3.696z" fill="#B7B7BE"/><path d="M54.98 65.507c-.221 7.907.055 15.868.827 17.803.773 1.935 2.426 5.699 8.113 4.478 4.75-1.02 6.48-2.995 7.23-7.353.552-3.207 1.617-12.112 1.753-13.936m-24.74-40.626s-25.745-10.541-24.548 13.43c.255 5.1 7.297 38.587 15.696 28.472 3.069-3.7 5.845-6.6 5.845-6.6M62.07 23.948c-.891.28 14.32-5.57 22.966 5.496 3.053 3.91-.485 19.882-8.95 32.466" stroke="#F4F4F4" stroke-width="1.693" stroke-linecap="round" stroke-linejoin="round"/><path d="M76.084 61.91s.552 2.72 8.57 1.063c3.512-.727 1.398 2.04-2.165 3.697-2.924 1.36-9.48 1.708-9.586-.17-.276-4.848 3.45-3.375 3.181-4.59zm0 0c-.243-1.093-1.91-2.167-3.011-4.844-.963-2.337-13.197-20.254 3.393-17.593.607-.126-4.327-15.808-19.853-16.063C41.091 23.155 41.6 42.532 41.6 42.532" stroke="#F4F4F4" stroke-width="1.693" stroke-linecap="round" stroke-linejoin="bevel"/><path d="M50.633 63.568c-2.164 2.422-1.528 2.847-5.854 3.74-4.376.903-1.805 2.511-.127 2.932 2.035.51 6.744 1.232 9.925-3.23.969-1.359-.006-3.527-1.337-4.08-.643-.266-1.502-.6-2.607.638z" stroke="#F4F4F4" stroke-width="1.693" stroke-linecap="round" stroke-linejoin="round"/><path d="M50.493 63.525c-.218-1.423.467-3.118 1.2-5.1 1.104-2.974 3.65-5.949 1.613-15.383-1.517-7.03-11.698-1.463-11.705-.51-.006.953.46 4.832-.17 9.349-.822 5.894 3.744 10.879 9.003 10.369" stroke="#F4F4F4" stroke-width="1.693" stroke-linecap="round" stroke-linejoin="round"/><path d="M48.07 42.39c-.047.325.594 1.194 1.43 1.31.834.116 1.548-.563 1.593-.888.046-.325-.594-.684-1.43-.8-.835-.117-1.55.053-1.594.377z" fill="#F4F4F4" stroke="#F4F4F4" stroke-width=".564"/><path d="M73.48 41.725c.046.325-.594 1.194-1.43 1.31-.835.117-1.55-.562-1.595-.887-.044-.326.596-.685 1.431-.801.835-.117 1.55.053 1.594.378z" fill="#F4F4F4" stroke="#F4F4F4" stroke-width=".282"/><path d="M76.465 39.473c.138 2.554-.549 4.293-.635 7.012-.129 3.951 1.88 8.474-1.147 13.003" stroke="#F4F4F4" stroke-width="1.693" stroke-linecap="round" stroke-linejoin="round"/></svg>