<svg width="110" height="110" viewBox="0 0 110 110" fill="none" xmlns="http://www.w3.org/2000/svg"><path d="M95.505 55.404c0-5.415-6.797-10.546-17.22-13.729 2.406-10.596 1.337-19.026-3.374-21.725-1.085-.633-2.355-.933-3.741-.933v3.715c.768 0 1.386.15 1.904.433 2.272 1.3 3.257 6.248 2.489 12.613-.184 1.566-.484 3.215-.852 4.898-3.274-.8-6.848-1.416-10.606-1.816-2.255-3.082-4.593-5.882-6.949-8.33 5.446-5.049 10.557-7.815 14.03-7.815V19c-4.593 0-10.606 3.265-16.685 8.93-6.08-5.631-12.093-8.863-16.686-8.863v3.715c3.458 0 8.585 2.75 14.03 7.764a78.73 78.73 0 00-6.898 8.314c-3.775.4-7.35 1.016-10.623 1.833a50.134 50.134 0 01-.869-4.832c-.784-6.365.184-11.313 2.44-12.63.5-.299 1.151-.432 1.92-.432v-3.716c-1.403 0-2.672.3-3.775.933-4.693 2.7-5.745 11.113-3.324 21.676-10.389 3.199-17.153 8.314-17.153 13.712 0 5.415 6.798 10.547 17.22 13.729-2.405 10.596-1.336 19.026 3.374 21.725 1.086.633 2.355.933 3.758.933 4.593 0 10.606-3.265 16.686-8.93 6.08 5.632 12.093 8.864 16.686 8.864 1.403 0 2.672-.3 3.775-.933 4.693-2.7 5.745-11.113 3.323-21.676 10.356-3.182 17.12-8.314 17.12-13.712zM73.76 44.29a74.916 74.916 0 01-2.255 6.581 78.696 78.696 0 00-2.188-3.998 90.24 90.24 0 00-2.405-3.899c2.371.35 4.66.783 6.848 1.316zm-7.65 17.744c-1.303 2.25-2.639 4.382-4.025 6.365-2.49.216-5.01.333-7.55.333a93.4 93.4 0 01-7.516-.317 91.723 91.723 0 01-4.042-6.331 86.73 86.73 0 01-3.474-6.63 86.657 86.657 0 013.457-6.649 89.38 89.38 0 014.025-6.364 87.083 87.083 0 017.55-.333c2.522 0 5.044.116 7.516.316a91.76 91.76 0 014.042 6.331 86.663 86.663 0 013.475 6.632 93.149 93.149 0 01-3.458 6.647zm5.395-2.166a71.363 71.363 0 012.305 6.631 75.105 75.105 0 01-6.881 1.333 92.231 92.231 0 002.405-3.949 94.398 94.398 0 002.17-4.015zM54.567 77.647a68.768 68.768 0 01-4.643-5.332c1.504.067 3.04.117 4.593.117 1.57 0 3.124-.034 4.644-.117a65.124 65.124 0 01-4.593 5.332zm-12.426-9.814a75.492 75.492 0 01-6.848-1.316 74.963 74.963 0 012.255-6.581 79.02 79.02 0 002.188 3.998 110.258 110.258 0 002.405 3.899zm12.343-34.671a68.728 68.728 0 014.643 5.331 104.65 104.65 0 00-4.593-.116c-1.57 0-3.123.033-4.643.116a65.136 65.136 0 014.593-5.331zm-12.36 9.813a92.188 92.188 0 00-4.576 7.947 71.226 71.226 0 01-2.305-6.63 81.246 81.246 0 016.881-1.317zm-15.116 20.86c-5.912-2.516-9.737-5.815-9.737-8.431 0-2.616 3.825-5.931 9.737-8.43 1.437-.617 3.007-1.167 4.627-1.683.952 3.265 2.205 6.664 3.758 10.146-1.536 3.466-2.773 6.848-3.708 10.097a50.894 50.894 0 01-4.677-1.7zm8.986 23.808c-2.271-1.3-3.257-6.248-2.488-12.612.184-1.566.484-3.216.851-4.899 3.274.8 6.849 1.417 10.607 1.816 2.254 3.083 4.593 5.881 6.948 8.33-5.445 5.05-10.556 7.814-14.03 7.814-.752-.016-1.386-.166-1.888-.45zm39.619-12.696c.785 6.365-.184 11.313-2.439 12.63-.5.3-1.152.433-1.92.433-3.458 0-8.586-2.75-14.03-7.765a78.726 78.726 0 006.898-8.314c3.774-.4 7.349-1.016 10.622-1.832.385 1.683.685 3.299.869 4.848zm6.43-11.113c-1.436.617-3.006 1.167-4.627 1.683-.951-3.265-2.204-6.664-3.757-10.146 1.536-3.466 2.772-6.848 3.707-10.097a53.048 53.048 0 014.694 1.7c5.913 2.515 9.738 5.814 9.738 8.43-.017 2.616-3.842 5.931-9.755 8.43z" fill="#B7B7BE"/><path d="M54.517 63.018c4.216 0 7.633-3.409 7.633-7.614s-3.417-7.614-7.633-7.614c-4.215 0-7.633 3.409-7.633 7.614s3.418 7.614 7.633 7.614z" fill="#B7B7BE"/></svg>