<svg width="110" height="110" viewBox="0 0 110 110" fill="none" xmlns="http://www.w3.org/2000/svg"><path fill-rule="evenodd" clip-rule="evenodd" d="M60.983 19a4.61 4.61 0 00-1.47.265c.961.643 1.49 1.495 1.753 2.46.019.133.057.228.076.36.018.114.037.227.037.34.076 1.666-.433 1.874-.792 2.859-.546 1.268-.396 2.63.264 3.728.057.133.132.284.227.416-.717-4.788 3.261-5.507 3.996-7.002.057-1.306-1.018-2.177-1.866-2.782-.81-.493-1.546-.644-2.225-.644zm5.995 1.079c-.075.435-.019.322-.037.549-.02.151-.02.34-.038.492a4.111 4.111 0 01-.132.454 4.462 4.462 0 01-.15.454c-.076.152-.133.284-.208.436-.057.075-.094.151-.151.227l-.113.17a6.58 6.58 0 01-.283.379c-.113.113-.207.246-.34.34v.02c-.112.094-.225.207-.358.302-.395.303-.848.53-1.263.814-.132.095-.264.17-.377.284a2.75 2.75 0 00-.358.303c-.132.113-.226.227-.34.36-.093.113-.206.245-.282.378-.094.132-.189.265-.264.397-.075.152-.132.284-.207.436-.057.15-.113.283-.151.435-.057.17-.094.322-.132.473-.019.076-.019.17-.038.246-.019.076-.019.151-.037.227 0 .152-.02.322-.02.473 0 .114 0 .227.02.341 0 .151.018.303.056.473.019.151.057.303.094.454.057.152.095.303.151.455.038.094.094.189.132.265l-4.336-1.685a46.548 46.548 0 00-2.187-.568l-1.187-.284a34.892 34.892 0 00-3.431-.51c-.038 0-.057-.02-.095-.02a33.563 33.563 0 00-3.374-.17c-.83 0-1.66.038-2.47.095-1.15.075-2.3.227-3.45.416-.283.038-.566.095-.848.152-.585.113-1.15.246-1.697.378l-.849.227c-.282.114-.546.246-.81.36l-.622.284c-.038.019-.076.019-.094.038-.189.094-.359.17-.528.265a.915.915 0 00-.132.056 8.295 8.295 0 00-.585.303c-.132.057-.264.133-.377.19a1.696 1.696 0 01-.17.094c-.17.095-.339.19-.49.284-.17.095-.32.19-.452.284-.132.094-.264.17-.377.265-.019.019-.038.019-.057.038-.113.075-.245.17-.358.265l-.038.037-.282.227c-.038.02-.076.057-.114.076-.094.076-.188.17-.282.246-.02.038-.057.057-.076.076-.113.114-.226.208-.339.322-.019 0-.019.019-.038.038-.113.094-.226.208-.339.321-.019.02-.019.038-.038.038-.094.095-.188.19-.282.303-.038.038-.095.076-.133.114a5.27 5.27 0 01-.32.34c-.019.038-.056.057-.075.095-.151.151-.283.303-.434.454l-.057.057a11.07 11.07 0 01-.961.927c-.34.303-.698.587-1.056.833-.377.265-.735.492-1.13.72-.378.207-.774.397-1.189.567-.395.17-.81.322-1.225.454-.792.17-1.602.492-2.3.55-.15 0-.32.037-.471.056-.17.038-.32.076-.472.114l-.452.17c-.15.057-.302.132-.453.208-.132.095-.282.17-.414.265a3.086 3.086 0 00-.377.322 3.221 3.221 0 00-.377.34c-.114.133-.227.246-.32.379-.095.151-.208.284-.284.435a3.332 3.332 0 00-.264.436c-.075.17-.15.321-.207.492-.056.151-.113.321-.17.492-.037.151-.075.303-.094.454 0 .019-.019.038-.019.057-.037.17-.037.397-.056.51-.02.133-.038.247-.038.38 0 .075 0 .17.019.245.019.133.038.247.075.36.038.114.076.227.132.34v.02c.057.113.132.227.208.34.075.114.15.227.245.341.094.095.207.208.32.303.113.113.227.208.358.303.453.397.566.53 1.15.832.095.057.189.095.302.152.019 0 .038.019.057.019 0 .038 0 .057.018.094.02.152.057.303.095.455.037.17.094.321.15.454.057.113.095.227.151.34.02.038.038.076.057.095.075.152.15.284.226.417l.283.397c.094.114.207.246.32.36.114.113.227.208.359.321 0 0 .019.02.037.02.113.094.227.189.34.264.132.095.264.17.414.246.132.076.283.152.434.209.113.056.245.094.377.132.019.02.038.02.076.038.075.019.17.038.245.057-.057 1.022-.076 1.987.075 2.328.17.378 1-.776 1.829-2.101-.113 1.306-.189 2.839 0 3.293.207.473 1.338-1.003 2.319-2.63 13.366-3.105 25.563 6.17 26.845 19.267-.245-2.045-2.752-3.18-3.902-2.896-.566 1.4-1.527 3.198-3.073 4.315.132-1.25.075-2.536-.189-3.785a12.26 12.26 0 01-2.337 4.77c-1.791.132-3.582-.739-4.525-2.045-.075-.057-.094-.17-.15-.246a3.398 3.398 0 01-.152-.397 1.581 1.581 0 01-.113-.398c-.019-.132-.019-.265-.019-.416v-.284a3.19 3.19 0 01.095-.398c.037-.132.075-.265.132-.397.075-.133.132-.265.226-.397.32-.909.32-1.647-.264-2.082a2.147 2.147 0 00-.358-.19c-.076-.019-.17-.056-.245-.075-.057-.02-.095-.038-.151-.057-.132-.038-.264-.076-.396-.095a1.432 1.432 0 00-.396-.057 3.06 3.06 0 00-.415-.037c-.094 0-.188.018-.282.018-.151 0-.283.02-.415.057-.132.02-.264.038-.396.076a3.222 3.222 0 00-.396.132c-.132.057-.245.114-.377.17-.113.058-.226.133-.358.19-4.393 2.877-1.772 9.615 1.225 11.564-1.13.208-2.28.454-2.601.7l-.038.038c.81.492 1.659.909 2.545 1.268a60.88 60.88 0 003.054.909v.019c1.565.322 3.148.435 4.75.34 8.352-.586 15.196-6.964 16.44-15.368.038.17.076.322.113.492.057.34.132.7.17 1.06v.02c.038.17.056.34.075.491v.076c.02.17.038.34.038.492.019.208.038.416.038.625v.302c0 .095.019.209.019.303 0 .114-.02.227-.02.34v.266c0 .132-.018.246-.018.378 0 .076 0 .152-.02.246 0 .133-.018.266-.018.417-.019.057-.019.113-.019.17-.019.152-.038.284-.056.436 0 .056 0 .113-.02.17-.018.19-.056.36-.075.549v.038c-.037.17-.075.36-.113.53v.056l-.113.511c0 .02-.019.057-.019.076-.038.17-.075.34-.132.511v.057c-.056.19-.113.36-.15.53-.02.019-.02.038-.02.038l-.17.567c-.075.19-.131.36-.206.55-.076.189-.133.378-.208.548-.075.19-.15.36-.226.55h-.019c-.075.17-.15.359-.245.53a.924.924 0 01-.057.132c-.019.019-.019.037-.037.056a17.897 17.897 0 01-5.298 6.36c-.15.094-.301.208-.452.321-.038.038-.095.057-.132.095-.132.095-.264.19-.415.284l.056.113h.02l.791-.113h.02c.49-.076.98-.17 1.47-.265a3.28 3.28 0 00.414-.095c.095-.019.17-.037.264-.056.132-.02.264-.057.396-.076.113-.038.226-.057.34-.095a35.632 35.632 0 005.467-1.817A30.217 30.217 0 0152.16 92a30.903 30.903 0 006.429-1.117 30.143 30.143 0 0017.816-14.29 30.275 30.275 0 01-5.072 12.17 29.713 29.713 0 005.034-4.201 30.046 30.046 0 007.937-16.088c.64 2.99.83 6.076.546 9.123 13.612-19.06 1.132-38.819-4.09-44.023-.02-.038-.038-.057-.038-.095-.02.019-.02.019-.02.038 0-.02 0-.02-.018-.038 0 .227-.019.454-.038.681a25.21 25.21 0 01-.188 1.268c-.094.417-.208.833-.32 1.25a15.76 15.76 0 01-.453 1.21c-.17.38-.358.777-.566 1.155-.207.36-.433.739-.678 1.08-.246.359-.51.7-.773 1.021-.283.34-.585.644-.887.947-.188.17-.358.321-.546.473l-.434.378c-.34.265-.678.511-1.055.738a13.16 13.16 0 01-1.113.644c-.396.19-.792.36-1.188.53-.395.151-.81.284-1.225.397-.415.114-.848.209-1.263.284-.434.076-.867.114-1.282.152-.302.019-.603.038-.905.038-.433 0-.867-.038-1.282-.076a9.505 9.505 0 01-1.282-.19 9.511 9.511 0 01-1.263-.321h-.019c.415-.038.83-.076 1.244-.152.434-.075.849-.17 1.263-.284.415-.113.83-.246 1.226-.397.415-.151.81-.34 1.188-.53.395-.19.754-.398 1.13-.625.359-.246.717-.492 1.056-.757.34-.265.66-.549.962-.851.32-.284.603-.606.886-.928.283-.34.547-.681.792-1.022.037-.057.075-.132.113-.189.188-.303.377-.606.547-.908a13.057 13.057 0 001.018-2.366c.132-.398.226-.814.32-1.23.076-.436.151-.852.189-1.269.037-.435.075-.87.075-1.287 0-.303-.019-.605-.038-.908-.037-.435-.094-.852-.15-1.268a13.91 13.91 0 00-.283-1.268c-.132-.398-.264-.814-.415-1.212-.15-.397-.34-.795-.528-1.173a21.455 21.455 0 00-.64-1.117c-.246-.36-.49-.7-.755-1.04-.283-.322-.565-.644-.867-.966a11.13 11.13 0 00-.49-.473 34.704 34.704 0 00-2.62-1.855 3.505 3.505 0 00-.378-.19c-.622-.397-1.206-.605-1.79-.794z" fill="#B7B7BE"/></svg>