<svg width="110" height="110" viewBox="0 0 110 110" fill="none" xmlns="http://www.w3.org/2000/svg"><path d="M40.996 75.007s-2.768 1.61 1.97 2.154c5.738.655 8.671.561 14.995-.636 0 0 1.663 1.043 3.985 1.946-14.177 6.076-32.086-.352-20.95-3.464zm-1.732-7.929s-3.104 2.298 1.636 2.788c6.13.633 10.972.684 19.35-.929 0 0 1.158 1.175 2.98 1.817-17.141 5.013-36.233.396-23.966-3.676zm14.604-13.45c3.493 4.022-.918 7.641-.918 7.641s8.87-4.579 4.797-10.313c-3.805-5.347-6.723-8.004 9.072-17.164 0 0-24.793 6.192-12.951 19.836z" fill="#B7B7BE"/><path d="M72.618 80.872s2.049 1.687-2.255 2.993c-8.183 2.479-34.06 3.227-41.248.099-2.584-1.125 2.262-2.685 3.786-3.012 1.59-.345 2.498-.28 2.498-.28-2.873-2.025-18.574 3.975-7.975 5.693 28.906 4.687 52.692-2.111 45.194-5.493zM42.327 58.863s-13.162 3.126-4.661 4.261c3.59.481 10.745.372 17.41-.186 5.447-.46 10.917-1.437 10.917-1.437s-1.92.823-3.31 1.772c-13.367 3.515-39.188 1.88-31.754-1.716 6.287-3.039 11.398-2.694 11.398-2.694zM65.939 72.06c13.587-7.06 7.305-13.845 2.92-12.93-1.075.223-1.554.417-1.554.417s.399-.625 1.16-.896c8.675-3.05 15.347 8.995-2.8 13.766 0 0 .21-.188.273-.356zM57.747 19s7.525 7.527-7.137 19.102c-11.758 9.286-2.681 14.58-.005 20.629-6.863-6.193-11.9-11.643-8.52-16.717C47.043 34.567 60.782 30.957 57.746 19z" fill="#B7B7BE"/><path d="M43.662 91.194c13.042.834 33.07-.464 33.544-6.635 0 0-.912 2.34-10.778 4.197-11.132 2.095-24.862 1.85-33.005.508 0 0 1.667 1.38 10.239 1.93z" fill="#B7B7BE"/></svg>