<svg width="110" height="110" viewBox="0 0 110 110" fill="none" xmlns="http://www.w3.org/2000/svg"><g clip-path="url(#clip0_7007_333)" fill="#B7B7BE"><path d="M16.247 41.628h13.581c3.987.034 6.875 1.177 8.666 3.429 1.79 2.253 2.382 5.329 1.773 9.228a17.65 17.65 0 01-1.57 5.245 15.59 15.59 0 01-3.244 4.64c-1.69 1.748-3.497 2.857-5.422 3.328a25.1 25.1 0 01-5.98.706H17.97l-1.926 9.581H9l7.247-36.157zm5.929 5.749l-3.04 15.128c.202.034.405.05.607.05h.71c3.243.034 5.946-.285 8.108-.958 2.162-.705 3.615-3.16 4.358-7.362.608-3.53 0-5.564-1.824-6.102-1.79-.538-4.037-.79-6.74-.756-.405.033-.794.05-1.166.05h-1.064l.05-.05zM48.294 32h6.993l-1.976 9.632h6.283c3.447.067 6.014.773 7.703 2.118 1.723 1.345 2.23 3.9 1.52 7.665l-3.395 16.793h-7.094L61.57 52.17c.338-1.68.236-2.874-.304-3.58s-1.706-1.06-3.497-1.06l-5.625-.05-4.155 20.727h-6.994L48.294 32zm28.034 9.628h13.581c3.986.034 6.875 1.177 8.666 3.429 1.79 2.253 2.381 5.329 1.773 9.228a17.637 17.637 0 01-1.57 5.245 15.587 15.587 0 01-3.244 4.64c-1.69 1.748-3.497 2.857-5.422 3.328a25.1 25.1 0 01-5.98.706H78.05l-1.926 9.581H69.08l7.247-36.157zm5.929 5.749l-3.04 15.128c.202.034.405.05.607.05h.71c3.243.034 5.946-.285 8.108-.958 2.162-.705 3.615-3.16 4.358-7.362.608-3.53 0-5.564-1.824-6.102-1.79-.538-4.038-.79-6.74-.756-.406.033-.794.05-1.166.05h-1.064l.05-.05z"/></g><defs><clipPath id="clip0_7007_333"><path fill="#fff" transform="translate(9 32)" d="M0 0h92v46H0z"/></clipPath></defs></svg>