<svg width="110" height="110" viewBox="0 0 110 110" fill="none" xmlns="http://www.w3.org/2000/svg"><g clip-path="url(#clip0_7007_121)"><path d="M28.629 40.649h18.887v1.49H30.36v11.222h16.133v1.49H30.36v12.32h17.353v1.491H28.63V40.65zm20.58 0h2.006l8.893 12.32 9.09-12.32L81.56 25 61.25 54.263l10.467 14.4h-2.085l-9.523-13.105-9.562 13.104H48.5l10.546-14.399-9.837-13.614zm23.255 1.49v-1.49h21.524v1.49h-9.916v26.523H82.34V42.14h-9.876zM5 40.65h2.164L37.007 85 24.675 68.662 6.81 42.767l-.079 25.895H5V40.65zm88.813 26.073a.61.61 0 01-.619-.624.61.61 0 01.62-.624c.357 0 .618.272.618.624a.608.608 0 01-.619.624zm1.701-1.642h.927c.012.498.379.833.918.833.602 0 .943-.36.943-1.034v-4.271h.944v4.275c0 1.215-.708 1.914-1.879 1.914-1.099 0-1.853-.678-1.853-1.717zm4.965-.054h.935c.08.573.644.938 1.457.938.758 0 1.314-.39 1.314-.926 0-.46-.353-.737-1.158-.925l-.783-.189c-1.099-.255-1.601-.783-1.601-1.67 0-1.077.885-1.793 2.211-1.793 1.234 0 2.135.716 2.19 1.734h-.918c-.089-.557-.577-.905-1.284-.905-.746 0-1.243.356-1.243.9 0 .432.32.679 1.112.863l.67.164c1.246.288 1.76.791 1.76 1.7 0 1.156-.901 1.88-2.342 1.88-1.347 0-2.252-.691-2.32-1.771z" fill="#B7B7BE"/></g><defs><clipPath id="clip0_7007_121"><path fill="#fff" transform="translate(5 25)" d="M0 0h100.141v60H0z"/></clipPath></defs></svg>