<svg width="110" height="110" viewBox="0 0 110 110" fill="none" xmlns="http://www.w3.org/2000/svg"><path d="M21.03 22.315c0-.407.34-.815.815-.815h5.968c.407 0 .814.34.814.815v66.37c0 .407-.34.815-.814.815h-5.968a.825.825 0 01-.814-.815v-66.37zm15.057 0c0-.407.34-.815.814-.815h5.968c.407 0 .814.34.814.815v66.37c0 .407-.34.815-.814.815h-5.968a.825.825 0 01-.814-.815v-66.37zm15.056 0c0-.407.34-.815.814-.815h5.968c.407 0 .814.34.814.815v66.37a.826.826 0 01-.814.815h-5.968a.825.825 0 01-.814-.815v-66.37zm15.056 0c0-.407.34-.815.814-.815h5.969c.406 0 .813.34.813.815v66.37c0 .407-.339.815-.813.815h-5.969a.825.825 0 01-.814-.815v-66.37zm15.124 26.426c0-.408.34-.815.814-.815h5.969c.407 0 .814.34.814.815v13.518c0 .408-.34.815-.814.815h-5.969a.825.825 0 01-.814-.815V48.741z" fill="#B7B7BE"/></svg>