<svg width="110" height="110" viewBox="0 0 110 110" fill="none" xmlns="http://www.w3.org/2000/svg"><g clip-path="url(#clip0_7007_905)"><path d="M87.994 40.281c0-.666-.013-1.325-.031-1.99-.038-1.444-.125-2.907-.38-4.338-.261-1.45-.684-2.8-1.356-4.119a13.747 13.747 0 00-2.552-3.51 14.006 14.006 0 00-3.509-2.55c-1.319-.672-2.67-1.096-4.12-1.357-1.43-.255-2.886-.342-4.336-.38-.666-.018-1.325-.024-1.991-.03H40.28c-.666 0-1.331.012-1.991.03l-1.089.038c-1.089.05-2.178.15-3.248.342a14.762 14.762 0 00-3.124.902 13.888 13.888 0 00-4.505 3.012 13.895 13.895 0 00-2.55 3.51c-.673 1.318-1.096 2.669-1.357 4.118-.255 1.431-.342 2.887-.38 4.337-.018.666-.025 1.326-.03 1.992C22 41.072 22 41.855 22 42.645v27.073c0 .666.012 1.325.031 1.991.037 1.444.125 2.906.38 4.337.261 1.45.684 2.8 1.356 4.12a13.898 13.898 0 006.06 6.06c1.32.672 2.67 1.095 4.12 1.356 1.431.255 2.887.343 4.337.38.666.019 1.325.025 1.99.03h29.44c.665 0 1.325-.011 1.99-.03 1.444-.037 2.907-.125 4.338-.38 1.45-.261 2.8-.684 4.119-1.356a13.9 13.9 0 006.06-6.06c.672-1.32 1.096-2.67 1.357-4.12.255-1.431.342-2.887.38-4.337.018-.666.024-1.325.03-1.991V40.281h.007z" fill="#B7B7BE"/><path d="M74.292 62.731c.075-.248.15-.497.212-.752 2.738-10.914-3.945-23.82-15.257-30.608 4.959 6.72 7.15 14.859 5.202 21.977-.175.635-.38 1.245-.616 1.836a17.757 17.757 0 00-.99-.585s-11.256-6.95-23.452-19.24c-.317-.323 6.503 9.75 14.25 17.933-3.647-2.047-13.814-9.445-20.254-15.338.79 1.32 1.73 2.589 2.763 3.815 5.376 6.82 12.388 15.232 20.782 21.69-5.899 3.61-14.237 3.89-22.543 0a34.128 34.128 0 01-5.769-3.44c3.516 5.618 8.93 10.472 15.513 13.303 7.852 3.379 15.667 3.148 21.485.056 0 0 .044-.019.063-.031.26-.137.522-.286.771-.436 2.813-1.443 8.294-2.868 11.244 2.869.728 1.412 2.265-6.067-3.404-13.042v-.007z" fill="#F4F4F4"/></g><defs><clipPath id="clip0_7007_905"><path fill="#fff" transform="translate(22 22)" d="M0 0h66v66H0z"/></clipPath></defs></svg>