<svg width="110" height="110" viewBox="0 0 110 110" fill="none" xmlns="http://www.w3.org/2000/svg"><path d="M106.237 67.59V42.535c0-.505-.337-.841-.841-.841h-3.7c-.504 0-.84.336-.84.84V67.59c0 .505.336.841.84.841h3.7c.504-.168.841-.504.841-.84zm-19.17.673v-26.4c-2.018 0-5.213 1.344-5.213 4.203V64.06c-1.177.168-2.859.336-3.868.336-3.363 0-4.204-2.354-4.204-5.549V45.898c-.168-3.195-3.7-4.036-5.213-4.036v16.816c0 6.054 3.027 9.921 9.417 9.921 1.009 0 3.027-.336 3.868-.504v.336c.84 5.213-5.55 3.195-8.913 2.859-2.522 0-4.204 2.018-4.708 4.372 1.513.504 6.222 1.009 9.585 1.345 6.054.168 9.249-3.195 9.249-8.744zm9.585-.673V42.535c0-.505-.337-.841-.841-.841h-3.7c-.504 0-.84.336-.84.84V67.59c0 .505.336.841.84.841h3.7c.504-.168.84-.504.84-.84zm-2.69-32.959a2.656 2.656 0 012.69 2.69 2.656 2.656 0 01-2.69 2.691 2.656 2.656 0 01-2.692-2.69c0-1.345 1.178-2.69 2.691-2.69zm9.752 0a2.656 2.656 0 012.691 2.69 2.656 2.656 0 01-2.691 2.691 2.656 2.656 0 01-2.69-2.69c0-1.345 1.177-2.69 2.69-2.69z" fill="#B7B7BE"/><path fill-rule="evenodd" clip-rule="evenodd" d="M36.735 42.95C34.11 35.37 41.785 27.243 48.101 27c3.784 1.974 7.033 7.158 6.87 14.193-.495 8.667-6.628 16.137-13.302 23.018-.371-8.391-2.153-13.74-4.934-21.26zM21.847 84c-1.058-8.462 2.378-15.68 5.787-20.082 1.62-2.067 2.867-3.953 3.814-5.69 1.792.776 6.606 3.302 9.26 7.404-.386 5.95-4.782 16.777-18.862 18.368" fill="#B7B7BE"/><path fill-rule="evenodd" clip-rule="evenodd" d="M16.525 51.86C5.32 48.727 2.555 38.882 3.055 32.261c10.882-4.41 22.593.108 29.355 9.525 4.741 6.6 7.71 15.062 8.312 22.447-3.253-4.292-7.361-6.78-12.594-8.727-3.579-1.331-6.885-2.213-11.603-3.645z" fill="#B7B7BE"/></svg>